<?xml version="1.0" encoding="UTF-8" standalone="no"?><svg xmlns="http://www.w3.org/2000/svg" xmlns:xlink="http://www.w3.org/1999/xlink" contentScriptType="application/ecmascript" contentStyleType="text/css" height="932px" preserveAspectRatio="none" style="width:583px;height:932px;" version="1.1" viewBox="0 0 583 932" width="583px" zoomAndPan="magnify"><defs/><g><!--MD5=[406b65fecc21e832f7a9b6ebadc6dce1]
cluster Client--><path d="M85.3846,321 L123.3846,321 A4.5,4.5 0 0 1 126.3846,324 L133.3846,341.4844 L151.385,341.4844 A3,3 0 0 1 154.385,344.4844 L154.385,393 A3,3 0 0 1 151.385,396 L85.3846,396 A3,3 0 0 1 82.3846,393 L82.3846,324 A3,3 0 0 1 85.3846,321 " fill="#FFFFFF" style="stroke: #000000; stroke-width: 1.5;"/><line style="stroke: #000000; stroke-width: 1.5;" x1="82.3846" x2="133.3846" y1="341.4844" y2="341.4844"/><text fill="#000000" font-family="Tahoma, sans-serif" font-size="12" font-weight="bold" lengthAdjust="spacingAndGlyphs" textLength="38" x="86.3846" y="335.0059">Client</text><!--MD5=[bab8871aa7844ca2d55c17c3aed324be]
cluster Roles--><path d="M47.8846,88 L84.8846,88 A4.5,4.5 0 0 1 87.8846,91 L94.8846,108.4844 L188.885,108.4844 A3,3 0 0 1 191.885,111.4844 L191.885,294 A3,3 0 0 1 188.885,297 L47.8846,297 A3,3 0 0 1 44.8846,294 L44.8846,91 A3,3 0 0 1 47.8846,88 " fill="#FFFFFF" style="stroke: #000000; stroke-width: 1.5;"/><line style="stroke: #000000; stroke-width: 1.5;" x1="44.8846" x2="94.8846" y1="108.4844" y2="108.4844"/><text fill="#000000" font-family="Tahoma, sans-serif" font-size="12" font-weight="bold" lengthAdjust="spacingAndGlyphs" textLength="37" x="48.8846" y="102.0059">Roles</text><!--MD5=[999f80192410ad58725ac6d158b21eb2]
cluster Views--><path d="M234.885,24 L272.885,24 A4.5,4.5 0 0 1 275.885,27 L282.885,44.4844 L362.885,44.4844 A3,3 0 0 1 365.885,47.4844 L365.885,404 A3,3 0 0 1 362.885,407 L234.885,407 A3,3 0 0 1 231.885,404 L231.885,27 A3,3 0 0 1 234.885,24 " fill="#FFFFFF" style="stroke: #000000; stroke-width: 1.5;"/><line style="stroke: #000000; stroke-width: 1.5;" x1="231.885" x2="282.885" y1="44.4844" y2="44.4844"/><text fill="#000000" font-family="Tahoma, sans-serif" font-size="12" font-weight="bold" lengthAdjust="spacingAndGlyphs" textLength="38" x="235.885" y="38.0059">Views</text><!--MD5=[cdfd548b3455e70392372b1f27091970]
cluster Services--><path d="M422.885,130 L479.885,130 A4.5,4.5 0 0 1 482.885,133 L489.885,150.4844 L568.885,150.4844 A3,3 0 0 1 571.885,153.4844 L571.885,408 A3,3 0 0 1 568.885,411 L422.885,411 A3,3 0 0 1 419.885,408 L419.885,133 A3,3 0 0 1 422.885,130 " fill="#FFFFFF" style="stroke: #000000; stroke-width: 1.5;"/><line style="stroke: #000000; stroke-width: 1.5;" x1="419.885" x2="489.885" y1="150.4844" y2="150.4844"/><text fill="#000000" font-family="Tahoma, sans-serif" font-size="12" font-weight="bold" lengthAdjust="spacingAndGlyphs" textLength="57" x="423.885" y="144.0059">Services</text><!--MD5=[fac864e77539af95038f0151207ed802]
cluster API--><path d="M88.3846,845 L110.3846,845 A4.5,4.5 0 0 1 113.3846,848 L120.3846,865.4844 L148.385,865.4844 A3,3 0 0 1 151.385,868.4844 L151.385,917 A3,3 0 0 1 148.385,920 L88.3846,920 A3,3 0 0 1 85.3846,917 L85.3846,848 A3,3 0 0 1 88.3846,845 " fill="#FFFFFF" style="stroke: #000000; stroke-width: 1.5;"/><line style="stroke: #000000; stroke-width: 1.5;" x1="85.3846" x2="120.3846" y1="865.4844" y2="865.4844"/><text fill="#000000" font-family="Tahoma, sans-serif" font-size="12" font-weight="bold" lengthAdjust="spacingAndGlyphs" textLength="22" x="89.3846" y="859.0059">API</text><!--MD5=[a216f63574981a7e4cf6939ecabe907e]
cluster Routes--><path d="M49.3846,611 L95.3846,611 A4.5,4.5 0 0 1 98.3846,614 L105.3846,631.4844 L187.385,631.4844 A3,3 0 0 1 190.385,634.4844 L190.385,818 A3,3 0 0 1 187.385,821 L49.3846,821 A3,3 0 0 1 46.3846,818 L46.3846,614 A3,3 0 0 1 49.3846,611 " fill="#FFFFFF" style="stroke: #000000; stroke-width: 1.5;"/><line style="stroke: #000000; stroke-width: 1.5;" x1="46.3846" x2="105.3846" y1="631.4844" y2="631.4844"/><text fill="#000000" font-family="Tahoma, sans-serif" font-size="12" font-weight="bold" lengthAdjust="spacingAndGlyphs" textLength="46" x="50.3846" y="625.0059">Routes</text><!--MD5=[027ebfd53c01aea08f474edbf35d0797]
cluster Models--><path d="M46.8846,420 L93.8846,420 A4.5,4.5 0 0 1 96.8846,423 L103.8846,440.4844 L189.885,440.4844 A3,3 0 0 1 192.885,443.4844 L192.885,584 A3,3 0 0 1 189.885,587 L46.8846,587 A3,3 0 0 1 43.8846,584 L43.8846,423 A3,3 0 0 1 46.8846,420 " fill="#FFFFFF" style="stroke: #000000; stroke-width: 1.5;"/><line style="stroke: #000000; stroke-width: 1.5;" x1="43.8846" x2="103.8846" y1="440.4844" y2="440.4844"/><text fill="#000000" font-family="Tahoma, sans-serif" font-size="12" font-weight="bold" lengthAdjust="spacingAndGlyphs" textLength="47" x="47.8846" y="434.0059">Models</text><!--MD5=[7c6608d7cf625e90131334e1ca091b1a]
cluster Functions--><path d="M219.885,605 L284.885,605 A4.5,4.5 0 0 1 287.885,608 L294.885,625.4844 L377.885,625.4844 A3,3 0 0 1 380.885,628.4844 L380.885,824 A3,3 0 0 1 377.885,827 L219.885,827 A3,3 0 0 1 216.885,824 L216.885,608 A3,3 0 0 1 219.885,605 " fill="#FFFFFF" style="stroke: #000000; stroke-width: 1.5;"/><line style="stroke: #000000; stroke-width: 1.5;" x1="216.885" x2="294.885" y1="625.4844" y2="625.4844"/><text fill="#000000" font-family="Tahoma, sans-serif" font-size="12" font-weight="bold" lengthAdjust="spacingAndGlyphs" textLength="65" x="220.885" y="619.0059">Functions</text><ellipse cx="118.3556" cy="367.242" fill="#F8F8F8" rx="19.9706" ry="13.242" style="stroke: #383838; stroke-width: 0.5;"/><text fill="#000000" font-family="Tahoma, sans-serif" font-size="12" font-weight="bold" lengthAdjust="spacingAndGlyphs" textLength="24" x="106.3556" y="370.9842">App</text><ellipse cx="118.6337" cy="224.242" fill="#F8F8F8" rx="27.7487" ry="13.242" style="stroke: #383838; stroke-width: 0.5;"/><text fill="#000000" font-family="Tahoma, sans-serif" font-size="12" lengthAdjust="spacingAndGlyphs" textLength="35" x="101.1337" y="227.9842">Admin</text><ellipse cx="118.2906" cy="134.242" fill="#F8F8F8" rx="33.4056" ry="13.242" style="stroke: #383838; stroke-width: 0.5;"/><text fill="#000000" font-family="Tahoma, sans-serif" font-size="12" lengthAdjust="spacingAndGlyphs" textLength="43" x="96.7906" y="137.9842">Cashier</text><ellipse cx="118.5863" cy="178.9403" fill="#F8F8F8" rx="57.7013" ry="13.9403" style="stroke: #383838; stroke-width: 0.5;"/><text fill="#000000" font-family="Tahoma, sans-serif" font-size="12" lengthAdjust="spacingAndGlyphs" textLength="82" x="77.5863" y="182.6824">InventoryClerk</text><ellipse cx="118.483" cy="268.242" fill="#F8F8F8" rx="42.598" ry="13.242" style="stroke: #383838; stroke-width: 0.5;"/><text fill="#000000" font-family="Tahoma, sans-serif" font-size="12" lengthAdjust="spacingAndGlyphs" textLength="56" x="90.483" y="271.9842">SysAdmin</text><ellipse cx="299.0332" cy="246.242" fill="#F8F8F8" rx="37.6482" ry="13.242" style="stroke: #383838; stroke-width: 0.5;"/><text fill="#000000" font-family="Tahoma, sans-serif" font-size="12" lengthAdjust="spacingAndGlyphs" textLength="49" x="274.5332" y="249.9842">AuditLog</text><ellipse cx="298.9327" cy="334.242" fill="#F8F8F8" rx="47.5477" ry="13.242" style="stroke: #383838; stroke-width: 0.5;"/><text fill="#000000" font-family="Tahoma, sans-serif" font-size="12" lengthAdjust="spacingAndGlyphs" textLength="63" x="267.4327" y="337.9842">Dashboard</text><ellipse cx="299.0688" cy="158.242" fill="#F8F8F8" rx="41.1838" ry="13.242" style="stroke: #383838; stroke-width: 0.5;"/><text fill="#000000" font-family="Tahoma, sans-serif" font-size="12" lengthAdjust="spacingAndGlyphs" textLength="54" x="272.0688" y="161.9842">Inventory</text><ellipse cx="298.7403" cy="114.242" fill="#F8F8F8" rx="38.3553" ry="13.242" style="stroke: #383838; stroke-width: 0.5;"/><text fill="#000000" font-family="Tahoma, sans-serif" font-size="12" lengthAdjust="spacingAndGlyphs" textLength="50" x="273.7403" y="117.9842">Invoices</text><ellipse cx="298.9683" cy="70.242" fill="#F8F8F8" rx="51.0833" ry="13.242" style="stroke: #383838; stroke-width: 0.5;"/><text fill="#000000" font-family="Tahoma, sans-serif" font-size="12" lengthAdjust="spacingAndGlyphs" textLength="68" x="264.9683" y="73.9842">PointOfSale</text><ellipse cx="298.8617" cy="202.242" fill="#F8F8F8" rx="40.4767" ry="13.242" style="stroke: #383838; stroke-width: 0.5;"/><text fill="#000000" font-family="Tahoma, sans-serif" font-size="12" lengthAdjust="spacingAndGlyphs" textLength="53" x="272.3617" y="205.9842">Suppliers</text><ellipse cx="298.7048" cy="378.242" fill="#F8F8F8" rx="34.8198" ry="13.242" style="stroke: #383838; stroke-width: 0.5;"/><text fill="#000000" font-family="Tahoma, sans-serif" font-size="12" lengthAdjust="spacingAndGlyphs" textLength="45" x="276.2048" y="381.9842">SysInfo</text><ellipse cx="298.7195" cy="290.242" fill="#F8F8F8" rx="26.3345" ry="13.242" style="stroke: #383838; stroke-width: 0.5;"/><text fill="#000000" font-family="Tahoma, sans-serif" font-size="12" lengthAdjust="spacingAndGlyphs" textLength="33" x="282.2195" y="293.9842">Users</text><!--MD5=[11d92bf68f1b4f6cf198e9d968b2a5ec]
entity _MongoCharts--><rect fill="#F8F8F8" height="34.4844" rx="3" ry="3" style="stroke: #000000; stroke-width: 0.5;" width="96" x="447.885" y="309"/><text fill="#000000" font-family="Tahoma, sans-serif" font-size="12" lengthAdjust="spacingAndGlyphs" textLength="76" x="457.885" y="331.0059">MongoCharts</text><!--MD5=[596e2d1b241ea563a9f6e2584c19fd96]
entity _MongoMetrics--><rect fill="#F8F8F8" height="34.4844" rx="3" ry="3" style="stroke: #000000; stroke-width: 0.5;" width="100" x="445.885" y="361"/><text fill="#000000" font-family="Tahoma, sans-serif" font-size="12" lengthAdjust="spacingAndGlyphs" textLength="80" x="455.885" y="383.0059">MongoMetrics</text><!--MD5=[d2546eb4f1760d27a472230d88878931]
entity _MongoWidgets--><rect fill="#F8F8F8" height="34.4844" rx="3" ry="3" style="stroke: #000000; stroke-width: 0.5;" width="105" x="443.385" y="257"/><text fill="#000000" font-family="Tahoma, sans-serif" font-size="12" lengthAdjust="spacingAndGlyphs" textLength="85" x="453.385" y="279.0059">MongoWidgets</text><ellipse cx="496.1009" cy="177.2432" fill="#F8F8F8" rx="59.2159" ry="14.2432" style="stroke: #383838; stroke-width: 0.5;"/><text fill="#000000" font-family="Tahoma, sans-serif" font-size="12" lengthAdjust="spacingAndGlyphs" textLength="86" x="453.1009" y="180.9854">ProductService</text><ellipse cx="495.8695" cy="223.8969" fill="#F8F8F8" rx="59.9845" ry="14.3969" style="stroke: #383838; stroke-width: 0.5;"/><text fill="#000000" font-family="Tahoma, sans-serif" font-size="12" lengthAdjust="spacingAndGlyphs" textLength="88" x="451.8695" y="227.6391">SupplierService</text><ellipse cx="118.5271" cy="891.242" fill="#F8F8F8" rx="17.1421" ry="13.242" style="stroke: #383838; stroke-width: 0.5;"/><text fill="#000000" font-family="Tahoma, sans-serif" font-size="12" font-weight="bold" lengthAdjust="spacingAndGlyphs" textLength="20" x="108.5271" y="894.9842">api</text><ellipse cx="118.3972" cy="657.242" fill="#F8F8F8" rx="44.0122" ry="13.242" style="stroke: #383838; stroke-width: 0.5;"/><text fill="#000000" font-family="Tahoma, sans-serif" font-size="12" lengthAdjust="spacingAndGlyphs" textLength="58" x="89.3972" y="660.9842">auth.route</text><ellipse cx="118.2384" cy="702.0707" fill="#F8F8F8" rx="55.8534" ry="13.5707" style="stroke: #383838; stroke-width: 0.5;"/><text fill="#000000" font-family="Tahoma, sans-serif" font-size="12" lengthAdjust="spacingAndGlyphs" textLength="77" x="79.7384" y="705.8129">product.route</text><ellipse cx="118.6037" cy="747.1437" fill="#F8F8F8" rx="56.2187" ry="13.6437" style="stroke: #383838; stroke-width: 0.5;"/><text fill="#000000" font-family="Tahoma, sans-serif" font-size="12" lengthAdjust="spacingAndGlyphs" textLength="78" x="79.6037" y="750.8859">supplier.route</text><ellipse cx="118.3972" cy="792.242" fill="#F8F8F8" rx="44.0122" ry="13.242" style="stroke: #383838; stroke-width: 0.5;"/><text fill="#000000" font-family="Tahoma, sans-serif" font-size="12" lengthAdjust="spacingAndGlyphs" textLength="58" x="89.3972" y="795.9842">user.route</text><ellipse cx="118.4621" cy="467.0154" fill="#F8F8F8" rx="58.0771" ry="14.0154" style="stroke: #383838; stroke-width: 0.5;"/><text fill="#000000" font-family="Tahoma, sans-serif" font-size="12" lengthAdjust="spacingAndGlyphs" textLength="83" x="76.9621" y="470.7576">product.model</text><ellipse cx="118.3398" cy="513.091" fill="#F8F8F8" rx="58.4548" ry="14.091" style="stroke: #383838; stroke-width: 0.5;"/><text fill="#000000" font-family="Tahoma, sans-serif" font-size="12" lengthAdjust="spacingAndGlyphs" textLength="84" x="76.3398" y="516.8331">supplier.model</text><ellipse cx="118.1398" cy="558.242" fill="#F8F8F8" rx="48.2548" ry="13.242" style="stroke: #383838; stroke-width: 0.5;"/><text fill="#000000" font-family="Tahoma, sans-serif" font-size="12" lengthAdjust="spacingAndGlyphs" textLength="64" x="86.1398" y="561.9842">user.model</text><ellipse cx="298.9621" cy="652.0154" fill="#F8F8F8" rx="58.0771" ry="14.0154" style="stroke: #383838; stroke-width: 0.5;"/><text fill="#000000" font-family="Tahoma, sans-serif" font-size="12" lengthAdjust="spacingAndGlyphs" textLength="83" x="257.4621" y="655.7576">auth.controller</text><ellipse cx="298.9328" cy="700.0096" fill="#F8F8F8" rx="65.5478" ry="15.5096" style="stroke: #383838; stroke-width: 0.5;"/><text fill="#000000" font-family="Tahoma, sans-serif" font-size="12" lengthAdjust="spacingAndGlyphs" textLength="102" x="247.9328" y="703.7518">product.controller</text><ellipse cx="298.8412" cy="749.0912" fill="#F8F8F8" rx="65.9562" ry="15.5912" style="stroke: #383838; stroke-width: 0.5;"/><text fill="#000000" font-family="Tahoma, sans-serif" font-size="12" lengthAdjust="spacingAndGlyphs" textLength="103" x="247.3412" y="752.8334">supplier.controller</text><ellipse cx="298.9621" cy="797.0154" fill="#F8F8F8" rx="58.0771" ry="14.0154" style="stroke: #383838; stroke-width: 0.5;"/><text fill="#000000" font-family="Tahoma, sans-serif" font-size="12" lengthAdjust="spacingAndGlyphs" textLength="83" x="257.4621" y="800.7576">user.controller</text><!--MD5=[35cb582d10241ac60dd8e03ee1e03d8d]
link Admin to AuditLog--><path d="M145.34,227.199 C175.016,230.856 223.926,236.885 258.348,241.127 " fill="none" id="Admin-&gt;AuditLog" style="stroke: #000000; stroke-width: 0.5;"/><polygon fill="#000000" points="263.318,241.74,254.8746,236.6695,258.3555,241.1286,253.8964,244.6095,263.318,241.74" style="stroke: #000000; stroke-width: 0.5;"/><!--MD5=[50d288d3f7e002eddb13069a1f01076d]
link Admin to Dashboard--><path d="M146.146,223.905 C164.335,225.366 187.45,230.492 200.885,246 C220.232,268.333 189.3,289.874 208.885,312 C218.374,322.721 232.183,328.624 246.105,331.771 " fill="none" id="Admin-&gt;Dashboard" style="stroke: #000000; stroke-width: 0.5;"/><polygon fill="#000000" points="251.231,332.81,243.2046,327.1024,246.3306,331.8171,241.6159,334.943,251.231,332.81" style="stroke: #000000; stroke-width: 0.5;"/><!--MD5=[1f13b5a9b9b671fb798ce279c622a21e]
link Admin to Inventory--><path d="M145.874,223.006 C163.469,221.004 185.988,215.68 200.885,202 C208.548,194.963 201.147,186.955 208.885,180 C220.902,169.198 237.385,163.503 252.902,160.564 " fill="none" id="Admin-&gt;Inventory" style="stroke: #000000; stroke-width: 0.5;"/><polygon fill="#000000" points="258.119,159.67,248.5728,157.247,253.1908,160.5142,249.9236,165.1322,258.119,159.67" style="stroke: #000000; stroke-width: 0.5;"/><!--MD5=[0864188ca207e6e3d25d06cd74113427]
link Admin to Invoices--><path d="M146.146,224.095 C164.335,222.634 187.45,217.508 200.885,202 C220.232,179.667 189.3,158.126 208.885,136 C220.357,123.039 238.143,117.12 254.809,114.598 " fill="none" id="Admin-&gt;Invoices" style="stroke: #000000; stroke-width: 0.5;"/><polygon fill="#000000" points="259.936,113.921,250.4892,111.1358,254.9792,114.5767,251.5383,119.0667,259.936,113.921" style="stroke: #000000; stroke-width: 0.5;"/><!--MD5=[9244b77e5f218a90508712933eee5330]
link Admin to PointOfSale--><path d="M145.986,224.319 C164.345,222.994 187.733,217.939 200.885,202 C216.483,183.096 193.086,110.737 208.885,92 C217.489,81.795 230.008,75.915 242.953,72.622 " fill="none" id="Admin-&gt;PointOfSale" style="stroke: #000000; stroke-width: 0.5;"/><polygon fill="#000000" points="248.123,71.443,238.459,69.5439,243.2481,72.5546,240.2375,77.3437,248.123,71.443" style="stroke: #000000; stroke-width: 0.5;"/><!--MD5=[0896d165bd5351a0f769a782af6677fc]
link Admin to Suppliers--><path d="M145.34,220.801 C174.16,217.249 221.12,211.461 255.334,207.244 " fill="none" id="Admin-&gt;Suppliers" style="stroke: #000000; stroke-width: 0.5;"/><polygon fill="#000000" points="260.711,206.582,251.2894,203.7125,255.7485,207.1934,252.2676,211.6525,260.711,206.582" style="stroke: #000000; stroke-width: 0.5;"/><!--MD5=[4e640689d42ddbba6e59b5f22fa8822e]
link Admin to SysInfo--><path d="M145.986,223.681 C164.345,225.006 187.733,230.061 200.885,246 C216.483,264.904 193.086,337.263 208.885,356 C220.983,370.348 240.818,376.146 258.696,378.226 " fill="none" id="Admin-&gt;SysInfo" style="stroke: #000000; stroke-width: 0.5;"/><polygon fill="#000000" points="263.678,378.718,255.1161,373.8503,258.7023,378.2251,254.3275,381.8114,263.678,378.718" style="stroke: #000000; stroke-width: 0.5;"/><!--MD5=[046d77a1f2269ec452d7d6de3274dc50]
link Admin to Users--><path d="M145.874,224.994 C163.469,226.996 185.988,232.32 200.885,246 C208.548,253.037 201.147,261.045 208.885,268 C224.682,282.199 248.195,287.573 267.087,289.464 " fill="none" id="Admin-&gt;Users" style="stroke: #000000; stroke-width: 0.5;"/><polygon fill="#000000" points="272.282,289.909,263.6566,285.1547,267.3003,289.4818,262.9732,293.1255,272.282,289.909" style="stroke: #000000; stroke-width: 0.5;"/><!--MD5=[a3f6020a13b8a02c1ca9a957bb0bfe77]
link <b>api</b> to auth.route--><path d="M103.6694,884.1068 C80.4488,872.3023 36.126,845.7817 18.3846,808 C7.1445,784.063 4.61,711.574 18.3846,689 C29.1072,671.428 49.8294,663.132 69.6423,659.348 " fill="none" id="&lt;b&gt;api&lt;/b&gt;-&gt;auth.route" style="stroke: #000000; stroke-width: 1.0;"/><polygon fill="#000000" points="74.6532,658.48,65.1025,656.0749,69.7266,659.3334,66.468,663.9575,74.6532,658.48" style="stroke: #000000; stroke-width: 1.0;"/><!--MD5=[679ec04b6ed4baf15a2a019b1246a061]
link <b>api</b> to product.model--><path d="M103.6694,884.1068 C80.4488,872.3023 36.126,845.7817 18.3846,808 C3.7913,776.922 0.5007,528.308 18.3846,499 C26.9464,484.969 41.8835,476.852 57.6426,472.224 " fill="none" id="&lt;b&gt;api&lt;/b&gt;-&gt;product.model" style="stroke: #000000; stroke-width: 1.0;"/><polygon fill="#000000" points="62.5535,470.897,52.8217,469.3833,57.7266,472.2014,54.9086,477.1063,62.5535,470.897" style="stroke: #000000; stroke-width: 1.0;"/><!--MD5=[b52430ca3e66c71216fa374760f15d75]
link <b>api</b> to product.route--><path d="M103.6694,884.1068 C80.4488,872.3023 36.126,845.7817 18.3846,808 C4.4053,778.23 1.2531,762.075 18.3846,734 C27.2045,719.546 42.7901,711.368 59.0701,706.815 " fill="none" id="&lt;b&gt;api&lt;/b&gt;-&gt;product.route" style="stroke: #000000; stroke-width: 1.0;"/><polygon fill="#000000" points="64.1381,705.515,54.4267,703.8755,59.2948,706.7568,56.4135,711.6248,64.1381,705.515" style="stroke: #000000; stroke-width: 1.0;"/><!--MD5=[c70431f71d4737018f96f5280ac460a8]
link <b>api</b> to supplier.model--><path d="M103.6694,884.1068 C80.4488,872.3023 36.126,845.7817 18.3846,808 C5.9638,781.549 3.1631,569.945 18.3846,545 C26.8603,531.11 41.5839,523.016 57.1677,518.365 " fill="none" id="&lt;b&gt;api&lt;/b&gt;-&gt;supplier.model" style="stroke: #000000; stroke-width: 1.0;"/><polygon fill="#000000" points="62.0257,517.029,52.2873,515.558,57.2046,518.3545,54.4081,523.2718,62.0257,517.029" style="stroke: #000000; stroke-width: 1.0;"/><!--MD5=[a6589d6408a01b8018852969e3fac602]
link <b>api</b> to supplier.route--><path d="M103.5051,884.2737 C69.4629,867.9124 -9.111,824.059 18.3846,779 C27.2045,764.546 42.7901,756.368 59.0701,751.815 " fill="none" id="&lt;b&gt;api&lt;/b&gt;-&gt;supplier.route" style="stroke: #000000; stroke-width: 1.0;"/><polygon fill="#000000" points="64.1381,750.515,54.4267,748.8755,59.2948,751.7568,56.4135,756.6248,64.1381,750.515" style="stroke: #000000; stroke-width: 1.0;"/><!--MD5=[2d7a4d17cebe3eae6bac2c62ab7fd8cc]
link <b>api</b> to user.model--><path d="M103.6694,884.1068 C80.4488,872.3023 36.126,845.7817 18.3846,808 C2.6106,774.408 2.6106,674.592 18.3846,641 C33.1906,609.469 66.5095,585.782 90.6263,571.946 " fill="none" id="&lt;b&gt;api&lt;/b&gt;-&gt;user.model" style="stroke: #000000; stroke-width: 1.0;"/><polygon fill="#000000" points="95.0158,569.477,85.2106,570.4032,90.658,571.9284,89.1328,577.3758,95.0158,569.477" style="stroke: #000000; stroke-width: 1.0;"/><!--MD5=[17a6c38fe1f735742b219ff08716859a]
link <b>api</b> to user.route--><path d="M118.385,877.8516 C118.385,855.2996 118.385,832.748 118.385,810.196 " fill="none" id="&lt;b&gt;api&lt;/b&gt;-&gt;user.route" style="stroke: #000000; stroke-width: 1.0;"/><polygon fill="#000000" points="118.385,805.079,114.385,814.079,118.385,810.079,122.385,814.079,118.385,805.079" style="stroke: #000000; stroke-width: 1.0;"/><!--MD5=[815b37453a7b59e819ce1c956071e7c1]
link <b>App</b> to Admin--><path d="M101.9633,359.529 C67.158,342.613 -8.7037,299.392 18.3846,255 C32.0278,232.642 61.9969,225.632 85.5893,223.775 " fill="none" id="&lt;b&gt;App&lt;/b&gt;-&gt;Admin" style="stroke: #000000; stroke-width: 1.0;"/><polygon fill="#000000" points="90.823,223.438,81.5844,220.0251,85.8334,223.7595,82.0989,228.0085,90.823,223.438" style="stroke: #000000; stroke-width: 1.0;"/><!--MD5=[77ef31bb0c393c53eb64c06e797f2f7e]
link <b>App</b> to Cashier--><path d="M102.134,359.32 C78.5445,347.15 35.7424,320.965 18.3846,284 C7.1445,260.063 4.61,187.574 18.3846,165 C30.8836,144.517 57.0846,136.916 79.532,134.357 " fill="none" id="&lt;b&gt;App&lt;/b&gt;-&gt;Cashier" style="stroke: #000000; stroke-width: 1.0;"/><polygon fill="#000000" points="84.5531,133.86,75.2026,130.7666,79.5774,134.3529,75.9912,138.7277,84.5531,133.86" style="stroke: #000000; stroke-width: 1.0;"/><!--MD5=[93241cd9d94fab6e1b55eb066e13a44f]
link <b>App</b> to InventoryClerk--><path d="M102.134,359.32 C78.5445,347.15 35.7424,320.965 18.3846,284 C4.5942,254.632 1.4846,238.695 18.3846,211 C26.9894,196.899 42.0338,188.771 57.8802,184.155 " fill="none" id="&lt;b&gt;App&lt;/b&gt;-&gt;InventoryClerk" style="stroke: #000000; stroke-width: 1.0;"/><polygon fill="#000000" points="62.8175,182.832,53.0889,181.2978,57.9879,184.1261,55.1595,189.0251,62.8175,182.832" style="stroke: #000000; stroke-width: 1.0;"/><!--MD5=[dfd9252c54cc63a801b1a563ec5d05e6]
link <b>App</b> to SysAdmin--><path d="M118.385,353.852 C118.385,331.3 118.385,308.748 118.385,286.196 " fill="none" id="&lt;b&gt;App&lt;/b&gt;-&gt;SysAdmin" style="stroke: #000000; stroke-width: 1.0;"/><polygon fill="#000000" points="118.385,281.079,114.385,290.079,118.385,286.079,122.385,290.079,118.385,281.079" style="stroke: #000000; stroke-width: 1.0;"/><!--MD5=[afd8fda9dbcd551f99eb0291dd88bdea]
link auth.route to auth.controller--><path d="M162.594,655.79 C184.653,655.172 211.879,654.409 236.111,653.73 " fill="none" id="auth.route-&gt;auth.controller" style="stroke: #000000; stroke-width: 0.5;"/><polygon fill="#000000" points="241.234,653.587,232.1255,649.8406,236.236,653.727,232.3496,657.8375,241.234,653.587" style="stroke: #000000; stroke-width: 0.5;"/><!--MD5=[1185c6672533da3ade170b9ccc6f8dee]
link Cashier to PointOfSale--><path d="M138.822,123.515 C156.643,114.234 183.97,100.829 208.885,92 C223.048,86.981 238.868,82.672 253.198,79.232 " fill="none" id="Cashier-&gt;PointOfSale" style="stroke: #000000; stroke-width: 0.5;"/><polygon fill="#000000" points="258.404,78.004,248.7263,76.176,253.5374,79.1513,250.562,83.9625,258.404,78.004" style="stroke: #000000; stroke-width: 0.5;"/><!--MD5=[5c89a48f4cd5407ed7db9b984ddd6772]
link Dashboard to _MongoCharts--><path d="M346.097,332.104 C375.056,330.916 412.453,329.382 442.51,328.149 " fill="none" id="Dashboard-&gt;_MongoCharts" style="stroke: #000000; stroke-width: 0.5;"/><polygon fill="#000000" points="447.649,327.938,438.4931,324.3091,442.6532,328.1423,438.8199,332.3024,447.649,327.938" style="stroke: #000000; stroke-width: 0.5;"/><!--MD5=[1b7b4b382e5d63435441c1dc37a0248a]
link Dashboard to _MongoWidgets--><path d="M338.169,326.64 C354.114,323.037 372.658,318.138 388.885,312 C399.669,307.921 401.23,304.407 411.885,300 C420.244,296.542 429.236,293.279 438.106,290.309 " fill="none" id="Dashboard-&gt;_MongoWidgets" style="stroke: #000000; stroke-width: 0.5;"/><polygon fill="#000000" points="443.017,288.689,433.2171,287.7084,438.2685,290.2547,435.7222,295.3061,443.017,288.689" style="stroke: #000000; stroke-width: 0.5;"/><!--MD5=[4f415ffba3753f49878570bc99e7de14]
link Inventory to ProductService--><path d="M338.41,161.754 C366.225,164.464 404.296,168.173 435.921,171.255 " fill="none" id="Inventory-&gt;ProductService" style="stroke: #000000; stroke-width: 0.5;"/><polygon fill="#000000" points="440.938,171.744,432.3692,166.8885,435.9617,171.2582,431.592,174.8507,440.938,171.744" style="stroke: #000000; stroke-width: 0.5;"/><!--MD5=[e797be1a45e7c42b7b1f56ca4e28495e]
link InventoryClerk to AuditLog--><path d="M169.763,185.315 C181.077,188.748 192.267,193.995 200.885,202 C208.508,209.081 201.147,217.045 208.885,224 C221.758,235.571 239.755,241.281 256.199,244.022 " fill="none" id="InventoryClerk-&gt;AuditLog" style="stroke: #000000; stroke-width: 0.5;"/><polygon fill="#000000" points="261.245,244.781,252.9392,239.4882,256.3005,244.0381,251.7506,247.3994,261.245,244.781" style="stroke: #000000; stroke-width: 0.5;"/><!--MD5=[7e153186d695577076aa28689bce81bb]
link InventoryClerk to Inventory--><path d="M170.536,172.982 C197.289,169.835 229.664,166.026 255.077,163.036 " fill="none" id="InventoryClerk-&gt;Inventory" style="stroke: #000000; stroke-width: 0.5;"/><polygon fill="#000000" points="260.063,162.45,250.6572,159.5291,255.0973,163.0343,251.5921,167.4743,260.063,162.45" style="stroke: #000000; stroke-width: 0.5;"/><!--MD5=[5b389857ae0c9a66eec0ed763f30cb4a]
link InventoryClerk to Invoices--><path d="M169.584,172.489 C180.903,169.063 192.141,163.867 200.885,156 C208.002,149.597 201.664,142.286 208.885,136 C221.722,124.824 239.365,119.146 255.557,116.323 " fill="none" id="InventoryClerk-&gt;Invoices" style="stroke: #000000; stroke-width: 0.5;"/><polygon fill="#000000" points="260.529,115.536,251.0136,112.9948,255.5907,116.319,252.2665,120.8961,260.529,115.536" style="stroke: #000000; stroke-width: 0.5;"/><!--MD5=[c6f49c3b8cc2d4eaf103ebaf1b48977c]
link InventoryClerk to Suppliers--><path d="M169.582,185.468 C196.843,188.981 230.16,193.274 256.01,196.604 " fill="none" id="InventoryClerk-&gt;Suppliers" style="stroke: #000000; stroke-width: 0.5;"/><polygon fill="#000000" points="261.077,197.257,252.6631,192.1378,256.1181,196.617,251.639,200.072,261.077,197.257" style="stroke: #000000; stroke-width: 0.5;"/><!--MD5=[2f61c8162db96c87f0d04f11932a922c]
link product.route to product.controller--><path d="M174.397,701.384 C191.438,701.193 210.442,700.98 228.335,700.779 " fill="none" id="product.route-&gt;product.controller" style="stroke: #000000; stroke-width: 0.5;"/><polygon fill="#000000" points="233.349,700.723,224.305,696.8235,228.3493,700.7787,224.3941,704.823,233.349,700.723" style="stroke: #000000; stroke-width: 0.5;"/><!--MD5=[5b9b4cf411381ce2a0e4ef98948468e9]
link supplier.route to supplier.controller--><path d="M174.397,747.616 C191.107,747.804 209.704,748.012 227.29,748.209 " fill="none" id="supplier.route-&gt;supplier.controller" style="stroke: #000000; stroke-width: 0.5;"/><polygon fill="#000000" points="232.712,748.27,223.7571,744.17,227.7123,748.2143,223.668,752.1695,232.712,748.27" style="stroke: #000000; stroke-width: 0.5;"/><!--MD5=[b96e56f662d1fff7db53522baa319347]
link Suppliers to SupplierService--><path d="M337.483,206.242 C365.427,209.394 404.089,213.756 436.102,217.368 " fill="none" id="Suppliers-&gt;SupplierService" style="stroke: #000000; stroke-width: 0.5;"/><polygon fill="#000000" points="441.181,217.941,432.6856,212.9582,436.2125,217.381,431.7896,220.9078,441.181,217.941" style="stroke: #000000; stroke-width: 0.5;"/><!--MD5=[620f35b7e390eddbca628f8c4d6317af]
link SysAdmin to AuditLog--><path d="M158.116,263.226 C187.68,259.583 228.269,254.58 258.092,250.904 " fill="none" id="SysAdmin-&gt;AuditLog" style="stroke: #000000; stroke-width: 0.5;"/><polygon fill="#000000" points="263.155,250.28,253.7334,247.4105,258.1925,250.8914,254.7116,255.3505,263.155,250.28" style="stroke: #000000; stroke-width: 0.5;"/><!--MD5=[39fdbe3650af1b1524e978fa51cc3483]
link SysAdmin to Dashboard--><path d="M139.454,279.421 C157.243,289.163 184.159,302.985 208.885,312 C223.529,317.339 239.993,321.813 254.741,325.302 " fill="none" id="SysAdmin-&gt;Dashboard" style="stroke: #000000; stroke-width: 0.5;"/><polygon fill="#000000" points="259.672,326.447,251.8103,320.5146,254.8016,325.3158,250.0004,328.3072,259.672,326.447" style="stroke: #000000; stroke-width: 0.5;"/><!--MD5=[f6fef00f93af8536510c81f3bc996db6]
link SysAdmin to SysInfo--><path d="M135.475,280.082 C152.994,293.776 181.145,317.408 200.885,342 C205.371,347.589 203.166,351.68 208.885,356 C223.156,366.782 242.047,372.337 258.753,375.177 " fill="none" id="SysAdmin-&gt;SysInfo" style="stroke: #000000; stroke-width: 0.5;"/><polygon fill="#000000" points="263.86,375.974,255.5832,370.636,258.9196,375.2042,254.3514,378.5406,263.86,375.974" style="stroke: #000000; stroke-width: 0.5;"/><!--MD5=[b28fcbb3cccb8914aa66440f4573a9be]
link SysInfo to _MongoMetrics--><path d="M334.298,378 C363.669,378 406.425,378 440.436,378 " fill="none" id="SysInfo-&gt;_MongoMetrics" style="stroke: #000000; stroke-width: 0.5;"/><polygon fill="#000000" points="445.817,378,436.817,374,440.817,378,436.817,382,445.817,378" style="stroke: #000000; stroke-width: 0.5;"/><!--MD5=[6b574aad5d04663510661cfe94b7dd4d]
link user.route to user.controller--><path d="M162.594,793.21 C184.653,793.828 211.879,794.591 236.111,795.27 " fill="none" id="user.route-&gt;user.controller" style="stroke: #000000; stroke-width: 0.5;"/><polygon fill="#000000" points="241.234,795.413,232.3496,791.1625,236.236,795.273,232.1255,799.1594,241.234,795.413" style="stroke: #000000; stroke-width: 0.5;"/><script type="text/plantuml"><![CDATA[MD5=[9ba1bf3829d35265994256ac2203ed33]
@startuml

scale max 1920 width
left to right direction

skinparam nodesep 18
skinparam ranksep 35
skinparam monochrome true
skinparam shadowing false
skinparam defaultFontName Tahoma
skinparam defaultFontSize 12
skinparam roundCorner 6
skinparam dpi 150
skinparam arrowColor black
skinparam arrowThickness 0.5
skinparam packageTitleAlignment left

skinparam usecase {
  borderThickness 0.5
}

skinparam rectangle {
  borderThickness 0.5
}

skinparam component {
  borderThickness 1
}


package "Client" {
  (<b>App</b>)
}

package "Roles" {
  (Admin)
  (Cashier)
  (InventoryClerk)
  (SysAdmin)
}

package "Views" {
  (AuditLog)
  (Dashboard)
  (Inventory)
  (Invoices)
  (PointOfSale)
  (Suppliers)
  (SysInfo)
  (Users)
}

package "Services" {
  rectangle "MongoCharts" as _MongoCharts
  rectangle "MongoMetrics" as _MongoMetrics
  rectangle "MongoWidgets" as _MongoWidgets
  (ProductService)
  (SupplierService)
}

package "API" {
  (<b>api</b>)
}

package "Routes" {
  (auth.route)
  (product.route)
  (supplier.route)
  (user.route)
}

package "Models" {
  (product.model)
  (supplier.model)
  (user.model)
}

package "Functions" {
  (auth.controller)
  (product.controller)
  (supplier.controller)
  (user.controller)
}

(Admin) --> (AuditLog)
(Admin) --> (Dashboard)
(Admin) --> (Inventory)
(Admin) --> (Invoices)
(Admin) --> (PointOfSale)
(Admin) --> (Suppliers)
(Admin) --> (SysInfo)
(Admin) --> (Users)
(<b>api</b>) -[thickness=1]> (auth.route)
(<b>api</b>) -[thickness=1]> (product.model)
(<b>api</b>) -[thickness=1]> (product.route)
(<b>api</b>) -[thickness=1]> (supplier.model)
(<b>api</b>) -[thickness=1]> (supplier.route)
(<b>api</b>) -[thickness=1]> (user.model)
(<b>api</b>) -[thickness=1]> (user.route)
(<b>App</b>) -[thickness=1]> (Admin)
(<b>App</b>) -[thickness=1]> (Cashier)
(<b>App</b>) -[thickness=1]> (InventoryClerk)
(<b>App</b>) -[thickness=1]> (SysAdmin)
(auth.route) --> (auth.controller)
(Cashier) --> (PointOfSale)
(Dashboard) ---> _MongoCharts
(Dashboard) ---> _MongoWidgets
(Inventory) --> (ProductService)
(InventoryClerk) --> (AuditLog)
(InventoryClerk) --> (Inventory)
(InventoryClerk) --> (Invoices)
(InventoryClerk) --> (Suppliers)
(product.route) --> (product.controller)
(supplier.route) --> (supplier.controller)
(Suppliers) --> (SupplierService)
(SysAdmin) --> (AuditLog)
(SysAdmin) --> (Dashboard)
(SysAdmin) --> (SysInfo)
(SysInfo) ---> _MongoMetrics
(user.route) --> (user.controller)

@enduml


' View and edit on https://arkit.pro
]]></script></g></svg>