<svg xmlns="http://www.w3.org/2000/svg" xmlns:xlink="http://www.w3.org/1999/xlink" width="583" height="932" contentScriptType="application/ecmascript" contentStyleType="text/css" style="width:583px;height:932px" preserveAspectRatio="none" version="1.1" viewBox="0 0 583 932" zoomAndPan="magnify"><g><path fill="#FFF" d="M85.3846,321 L123.3846,321 A4.5,4.5 0 0 1 126.3846,324 L133.3846,341.4844 L151.385,341.4844 A3,3 0 0 1 154.385,344.4844 L154.385,393 A3,3 0 0 1 151.385,396 L85.3846,396 A3,3 0 0 1 82.3846,393 L82.3846,324 A3,3 0 0 1 85.3846,321" style="stroke:#000;stroke-width:1.5"/><line style="stroke:#000;stroke-width:1.5" x1="82.385" x2="133.385" y1="341.484" y2="341.484"/><text x="86.385" y="335.006" fill="#000" font-family="Tahoma, sans-serif" font-size="12" font-weight="bold" lengthAdjust="spacingAndGlyphs" textLength="38">Client</text><path fill="#FFF" d="M47.8846,88 L84.8846,88 A4.5,4.5 0 0 1 87.8846,91 L94.8846,108.4844 L188.885,108.4844 A3,3 0 0 1 191.885,111.4844 L191.885,294 A3,3 0 0 1 188.885,297 L47.8846,297 A3,3 0 0 1 44.8846,294 L44.8846,91 A3,3 0 0 1 47.8846,88" style="stroke:#000;stroke-width:1.5"/><line style="stroke:#000;stroke-width:1.5" x1="44.885" x2="94.885" y1="108.484" y2="108.484"/><text x="48.885" y="102.006" fill="#000" font-family="Tahoma, sans-serif" font-size="12" font-weight="bold" lengthAdjust="spacingAndGlyphs" textLength="37">Roles</text><path fill="#FFF" d="M234.885,24 L272.885,24 A4.5,4.5 0 0 1 275.885,27 L282.885,44.4844 L362.885,44.4844 A3,3 0 0 1 365.885,47.4844 L365.885,404 A3,3 0 0 1 362.885,407 L234.885,407 A3,3 0 0 1 231.885,404 L231.885,27 A3,3 0 0 1 234.885,24" style="stroke:#000;stroke-width:1.5"/><line style="stroke:#000;stroke-width:1.5" x1="231.885" x2="282.885" y1="44.484" y2="44.484"/><text x="235.885" y="38.006" fill="#000" font-family="Tahoma, sans-serif" font-size="12" font-weight="bold" lengthAdjust="spacingAndGlyphs" textLength="38">Views</text><path fill="#FFF" d="M422.885,130 L479.885,130 A4.5,4.5 0 0 1 482.885,133 L489.885,150.4844 L568.885,150.4844 A3,3 0 0 1 571.885,153.4844 L571.885,408 A3,3 0 0 1 568.885,411 L422.885,411 A3,3 0 0 1 419.885,408 L419.885,133 A3,3 0 0 1 422.885,130" style="stroke:#000;stroke-width:1.5"/><line style="stroke:#000;stroke-width:1.5" x1="419.885" x2="489.885" y1="150.484" y2="150.484"/><text x="423.885" y="144.006" fill="#000" font-family="Tahoma, sans-serif" font-size="12" font-weight="bold" lengthAdjust="spacingAndGlyphs" textLength="57">Services</text><path fill="#FFF" d="M88.3846,845 L110.3846,845 A4.5,4.5 0 0 1 113.3846,848 L120.3846,865.4844 L148.385,865.4844 A3,3 0 0 1 151.385,868.4844 L151.385,917 A3,3 0 0 1 148.385,920 L88.3846,920 A3,3 0 0 1 85.3846,917 L85.3846,848 A3,3 0 0 1 88.3846,845" style="stroke:#000;stroke-width:1.5"/><line style="stroke:#000;stroke-width:1.5" x1="85.385" x2="120.385" y1="865.484" y2="865.484"/><text x="89.385" y="859.006" fill="#000" font-family="Tahoma, sans-serif" font-size="12" font-weight="bold" lengthAdjust="spacingAndGlyphs" textLength="22">API</text><path fill="#FFF" d="M49.3846,611 L95.3846,611 A4.5,4.5 0 0 1 98.3846,614 L105.3846,631.4844 L187.385,631.4844 A3,3 0 0 1 190.385,634.4844 L190.385,818 A3,3 0 0 1 187.385,821 L49.3846,821 A3,3 0 0 1 46.3846,818 L46.3846,614 A3,3 0 0 1 49.3846,611" style="stroke:#000;stroke-width:1.5"/><line style="stroke:#000;stroke-width:1.5" x1="46.385" x2="105.385" y1="631.484" y2="631.484"/><text x="50.385" y="625.006" fill="#000" font-family="Tahoma, sans-serif" font-size="12" font-weight="bold" lengthAdjust="spacingAndGlyphs" textLength="46">Routes</text><path fill="#FFF" d="M46.8846,420 L93.8846,420 A4.5,4.5 0 0 1 96.8846,423 L103.8846,440.4844 L189.885,440.4844 A3,3 0 0 1 192.885,443.4844 L192.885,584 A3,3 0 0 1 189.885,587 L46.8846,587 A3,3 0 0 1 43.8846,584 L43.8846,423 A3,3 0 0 1 46.8846,420" style="stroke:#000;stroke-width:1.5"/><line style="stroke:#000;stroke-width:1.5" x1="43.885" x2="103.885" y1="440.484" y2="440.484"/><text x="47.885" y="434.006" fill="#000" font-family="Tahoma, sans-serif" font-size="12" font-weight="bold" lengthAdjust="spacingAndGlyphs" textLength="47">Models</text><path fill="#FFF" d="M219.885,605 L284.885,605 A4.5,4.5 0 0 1 287.885,608 L294.885,625.4844 L377.885,625.4844 A3,3 0 0 1 380.885,628.4844 L380.885,824 A3,3 0 0 1 377.885,827 L219.885,827 A3,3 0 0 1 216.885,824 L216.885,608 A3,3 0 0 1 219.885,605" style="stroke:#000;stroke-width:1.5"/><line style="stroke:#000;stroke-width:1.5" x1="216.885" x2="294.885" y1="625.484" y2="625.484"/><text x="220.885" y="619.006" fill="#000" font-family="Tahoma, sans-serif" font-size="12" font-weight="bold" lengthAdjust="spacingAndGlyphs" textLength="65">Functions</text><ellipse cx="118.356" cy="367.242" fill="#F8F8F8" rx="19.971" ry="13.242" style="stroke:#383838;stroke-width:.5"/><text x="106.356" y="370.984" fill="#000" font-family="Tahoma, sans-serif" font-size="12" font-weight="bold" lengthAdjust="spacingAndGlyphs" textLength="24">App</text><ellipse cx="118.634" cy="224.242" fill="#F8F8F8" rx="27.749" ry="13.242" style="stroke:#383838;stroke-width:.5"/><text x="101.134" y="227.984" fill="#000" font-family="Tahoma, sans-serif" font-size="12" lengthAdjust="spacingAndGlyphs" textLength="35">Admin</text><ellipse cx="118.291" cy="134.242" fill="#F8F8F8" rx="33.406" ry="13.242" style="stroke:#383838;stroke-width:.5"/><text x="96.791" y="137.984" fill="#000" font-family="Tahoma, sans-serif" font-size="12" lengthAdjust="spacingAndGlyphs" textLength="43">Cashier</text><ellipse cx="118.586" cy="178.94" fill="#F8F8F8" rx="57.701" ry="13.94" style="stroke:#383838;stroke-width:.5"/><text x="77.586" y="182.682" fill="#000" font-family="Tahoma, sans-serif" font-size="12" lengthAdjust="spacingAndGlyphs" textLength="82">InventoryClerk</text><ellipse cx="118.483" cy="268.242" fill="#F8F8F8" rx="42.598" ry="13.242" style="stroke:#383838;stroke-width:.5"/><text x="90.483" y="271.984" fill="#000" font-family="Tahoma, sans-serif" font-size="12" lengthAdjust="spacingAndGlyphs" textLength="56">SysAdmin</text><ellipse cx="299.033" cy="246.242" fill="#F8F8F8" rx="37.648" ry="13.242" style="stroke:#383838;stroke-width:.5"/><text x="274.533" y="249.984" fill="#000" font-family="Tahoma, sans-serif" font-size="12" lengthAdjust="spacingAndGlyphs" textLength="49">AuditLog</text><ellipse cx="298.933" cy="334.242" fill="#F8F8F8" rx="47.548" ry="13.242" style="stroke:#383838;stroke-width:.5"/><text x="267.433" y="337.984" fill="#000" font-family="Tahoma, sans-serif" font-size="12" lengthAdjust="spacingAndGlyphs" textLength="63">Dashboard</text><ellipse cx="299.069" cy="158.242" fill="#F8F8F8" rx="41.184" ry="13.242" style="stroke:#383838;stroke-width:.5"/><text x="272.069" y="161.984" fill="#000" font-family="Tahoma, sans-serif" font-size="12" lengthAdjust="spacingAndGlyphs" textLength="54">Inventory</text><ellipse cx="298.74" cy="114.242" fill="#F8F8F8" rx="38.355" ry="13.242" style="stroke:#383838;stroke-width:.5"/><text x="273.74" y="117.984" fill="#000" font-family="Tahoma, sans-serif" font-size="12" lengthAdjust="spacingAndGlyphs" textLength="50">Invoices</text><ellipse cx="298.968" cy="70.242" fill="#F8F8F8" rx="51.083" ry="13.242" style="stroke:#383838;stroke-width:.5"/><text x="264.968" y="73.984" fill="#000" font-family="Tahoma, sans-serif" font-size="12" lengthAdjust="spacingAndGlyphs" textLength="68">PointOfSale</text><ellipse cx="298.862" cy="202.242" fill="#F8F8F8" rx="40.477" ry="13.242" style="stroke:#383838;stroke-width:.5"/><text x="272.362" y="205.984" fill="#000" font-family="Tahoma, sans-serif" font-size="12" lengthAdjust="spacingAndGlyphs" textLength="53">Suppliers</text><ellipse cx="298.705" cy="378.242" fill="#F8F8F8" rx="34.82" ry="13.242" style="stroke:#383838;stroke-width:.5"/><text x="276.205" y="381.984" fill="#000" font-family="Tahoma, sans-serif" font-size="12" lengthAdjust="spacingAndGlyphs" textLength="45">SysInfo</text><ellipse cx="298.719" cy="290.242" fill="#F8F8F8" rx="26.334" ry="13.242" style="stroke:#383838;stroke-width:.5"/><text x="282.219" y="293.984" fill="#000" font-family="Tahoma, sans-serif" font-size="12" lengthAdjust="spacingAndGlyphs" textLength="33">Users</text><rect style="stroke:#000;stroke-width:.5" width="96" height="34.484" x="447.885" y="309" fill="#F8F8F8" rx="3" ry="3"/><text x="457.885" y="331.006" fill="#000" font-family="Tahoma, sans-serif" font-size="12" lengthAdjust="spacingAndGlyphs" textLength="76">MongoCharts</text><rect style="stroke:#000;stroke-width:.5" width="100" height="34.484" x="445.885" y="361" fill="#F8F8F8" rx="3" ry="3"/><text x="455.885" y="383.006" fill="#000" font-family="Tahoma, sans-serif" font-size="12" lengthAdjust="spacingAndGlyphs" textLength="80">MongoMetrics</text><rect style="stroke:#000;stroke-width:.5" width="105" height="34.484" x="443.385" y="257" fill="#F8F8F8" rx="3" ry="3"/><text x="453.385" y="279.006" fill="#000" font-family="Tahoma, sans-serif" font-size="12" lengthAdjust="spacingAndGlyphs" textLength="85">MongoWidgets</text><ellipse cx="496.101" cy="177.243" fill="#F8F8F8" rx="59.216" ry="14.243" style="stroke:#383838;stroke-width:.5"/><text x="453.101" y="180.985" fill="#000" font-family="Tahoma, sans-serif" font-size="12" lengthAdjust="spacingAndGlyphs" textLength="86">ProductService</text><ellipse cx="495.87" cy="223.897" fill="#F8F8F8" rx="59.984" ry="14.397" style="stroke:#383838;stroke-width:.5"/><text x="451.87" y="227.639" fill="#000" font-family="Tahoma, sans-serif" font-size="12" lengthAdjust="spacingAndGlyphs" textLength="88">SupplierService</text><ellipse cx="118.527" cy="891.242" fill="#F8F8F8" rx="17.142" ry="13.242" style="stroke:#383838;stroke-width:.5"/><text x="108.527" y="894.984" fill="#000" font-family="Tahoma, sans-serif" font-size="12" font-weight="bold" lengthAdjust="spacingAndGlyphs" textLength="20">api</text><ellipse cx="118.397" cy="657.242" fill="#F8F8F8" rx="44.012" ry="13.242" style="stroke:#383838;stroke-width:.5"/><text x="89.397" y="660.984" fill="#000" font-family="Tahoma, sans-serif" font-size="12" lengthAdjust="spacingAndGlyphs" textLength="58">auth.route</text><ellipse cx="118.238" cy="702.071" fill="#F8F8F8" rx="55.853" ry="13.571" style="stroke:#383838;stroke-width:.5"/><text x="79.738" y="705.813" fill="#000" font-family="Tahoma, sans-serif" font-size="12" lengthAdjust="spacingAndGlyphs" textLength="77">product.route</text><ellipse cx="118.604" cy="747.144" fill="#F8F8F8" rx="56.219" ry="13.644" style="stroke:#383838;stroke-width:.5"/><text x="79.604" y="750.886" fill="#000" font-family="Tahoma, sans-serif" font-size="12" lengthAdjust="spacingAndGlyphs" textLength="78">supplier.route</text><ellipse cx="118.397" cy="792.242" fill="#F8F8F8" rx="44.012" ry="13.242" style="stroke:#383838;stroke-width:.5"/><text x="89.397" y="795.984" fill="#000" font-family="Tahoma, sans-serif" font-size="12" lengthAdjust="spacingAndGlyphs" textLength="58">user.route</text><ellipse cx="118.462" cy="467.015" fill="#F8F8F8" rx="58.077" ry="14.015" style="stroke:#383838;stroke-width:.5"/><text x="76.962" y="470.758" fill="#000" font-family="Tahoma, sans-serif" font-size="12" lengthAdjust="spacingAndGlyphs" textLength="83">product.model</text><ellipse cx="118.34" cy="513.091" fill="#F8F8F8" rx="58.455" ry="14.091" style="stroke:#383838;stroke-width:.5"/><text x="76.34" y="516.833" fill="#000" font-family="Tahoma, sans-serif" font-size="12" lengthAdjust="spacingAndGlyphs" textLength="84">supplier.model</text><ellipse cx="118.14" cy="558.242" fill="#F8F8F8" rx="48.255" ry="13.242" style="stroke:#383838;stroke-width:.5"/><text x="86.14" y="561.984" fill="#000" font-family="Tahoma, sans-serif" font-size="12" lengthAdjust="spacingAndGlyphs" textLength="64">user.model</text><ellipse cx="298.962" cy="652.015" fill="#F8F8F8" rx="58.077" ry="14.015" style="stroke:#383838;stroke-width:.5"/><text x="257.462" y="655.758" fill="#000" font-family="Tahoma, sans-serif" font-size="12" lengthAdjust="spacingAndGlyphs" textLength="83">auth.controller</text><ellipse cx="298.933" cy="700.01" fill="#F8F8F8" rx="65.548" ry="15.51" style="stroke:#383838;stroke-width:.5"/><text x="247.933" y="703.752" fill="#000" font-family="Tahoma, sans-serif" font-size="12" lengthAdjust="spacingAndGlyphs" textLength="102">product.controller</text><ellipse cx="298.841" cy="749.091" fill="#F8F8F8" rx="65.956" ry="15.591" style="stroke:#383838;stroke-width:.5"/><text x="247.341" y="752.833" fill="#000" font-family="Tahoma, sans-serif" font-size="12" lengthAdjust="spacingAndGlyphs" textLength="103">supplier.controller</text><ellipse cx="298.962" cy="797.015" fill="#F8F8F8" rx="58.077" ry="14.015" style="stroke:#383838;stroke-width:.5"/><text x="257.462" y="800.758" fill="#000" font-family="Tahoma, sans-serif" font-size="12" lengthAdjust="spacingAndGlyphs" textLength="83">user.controller</text><path id="Admin-&gt;AuditLog" fill="none" d="M145.34,227.199 C175.016,230.856 223.926,236.885 258.348,241.127" style="stroke:#000;stroke-width:.5"/><polygon fill="#000" points="263.318 241.74 254.875 236.669 258.356 241.129 253.896 244.609 263.318 241.74" style="stroke:#000;stroke-width:.5"/><path id="Admin-&gt;Dashboard" fill="none" d="M146.146,223.905 C164.335,225.366 187.45,230.492 200.885,246 C220.232,268.333 189.3,289.874 208.885,312 C218.374,322.721 232.183,328.624 246.105,331.771" style="stroke:#000;stroke-width:.5"/><polygon fill="#000" points="251.231 332.81 243.205 327.102 246.331 331.817 241.616 334.943 251.231 332.81" style="stroke:#000;stroke-width:.5"/><path id="Admin-&gt;Inventory" fill="none" d="M145.874,223.006 C163.469,221.004 185.988,215.68 200.885,202 C208.548,194.963 201.147,186.955 208.885,180 C220.902,169.198 237.385,163.503 252.902,160.564" style="stroke:#000;stroke-width:.5"/><polygon fill="#000" points="258.119 159.67 248.573 157.247 253.191 160.514 249.924 165.132 258.119 159.67" style="stroke:#000;stroke-width:.5"/><path id="Admin-&gt;Invoices" fill="none" d="M146.146,224.095 C164.335,222.634 187.45,217.508 200.885,202 C220.232,179.667 189.3,158.126 208.885,136 C220.357,123.039 238.143,117.12 254.809,114.598" style="stroke:#000;stroke-width:.5"/><polygon fill="#000" points="259.936 113.921 250.489 111.136 254.979 114.577 251.538 119.067 259.936 113.921" style="stroke:#000;stroke-width:.5"/><path id="Admin-&gt;PointOfSale" fill="none" d="M145.986,224.319 C164.345,222.994 187.733,217.939 200.885,202 C216.483,183.096 193.086,110.737 208.885,92 C217.489,81.795 230.008,75.915 242.953,72.622" style="stroke:#000;stroke-width:.5"/><polygon fill="#000" points="248.123 71.443 238.459 69.544 243.248 72.555 240.238 77.344 248.123 71.443" style="stroke:#000;stroke-width:.5"/><path id="Admin-&gt;Suppliers" fill="none" d="M145.34,220.801 C174.16,217.249 221.12,211.461 255.334,207.244" style="stroke:#000;stroke-width:.5"/><polygon fill="#000" points="260.711 206.582 251.289 203.713 255.749 207.193 252.268 211.653 260.711 206.582" style="stroke:#000;stroke-width:.5"/><path id="Admin-&gt;SysInfo" fill="none" d="M145.986,223.681 C164.345,225.006 187.733,230.061 200.885,246 C216.483,264.904 193.086,337.263 208.885,356 C220.983,370.348 240.818,376.146 258.696,378.226" style="stroke:#000;stroke-width:.5"/><polygon fill="#000" points="263.678 378.718 255.116 373.85 258.702 378.225 254.327 381.811 263.678 378.718" style="stroke:#000;stroke-width:.5"/><path id="Admin-&gt;Users" fill="none" d="M145.874,224.994 C163.469,226.996 185.988,232.32 200.885,246 C208.548,253.037 201.147,261.045 208.885,268 C224.682,282.199 248.195,287.573 267.087,289.464" style="stroke:#000;stroke-width:.5"/><polygon fill="#000" points="272.282 289.909 263.657 285.155 267.3 289.482 262.973 293.125 272.282 289.909" style="stroke:#000;stroke-width:.5"/><path id="&lt;b&gt;api&lt;/b&gt;-&gt;auth.route" fill="none" d="M103.6694,884.1068 C80.4488,872.3023 36.126,845.7817 18.3846,808 C7.1445,784.063 4.61,711.574 18.3846,689 C29.1072,671.428 49.8294,663.132 69.6423,659.348" style="stroke:#000;stroke-width:1"/><polygon fill="#000" points="74.653 658.48 65.103 656.075 69.727 659.333 66.468 663.957 74.653 658.48" style="stroke:#000;stroke-width:1"/><path id="&lt;b&gt;api&lt;/b&gt;-&gt;product.model" fill="none" d="M103.6694,884.1068 C80.4488,872.3023 36.126,845.7817 18.3846,808 C3.7913,776.922 0.5007,528.308 18.3846,499 C26.9464,484.969 41.8835,476.852 57.6426,472.224" style="stroke:#000;stroke-width:1"/><polygon fill="#000" points="62.553 470.897 52.822 469.383 57.727 472.201 54.909 477.106 62.553 470.897" style="stroke:#000;stroke-width:1"/><path id="&lt;b&gt;api&lt;/b&gt;-&gt;product.route" fill="none" d="M103.6694,884.1068 C80.4488,872.3023 36.126,845.7817 18.3846,808 C4.4053,778.23 1.2531,762.075 18.3846,734 C27.2045,719.546 42.7901,711.368 59.0701,706.815" style="stroke:#000;stroke-width:1"/><polygon fill="#000" points="64.138 705.515 54.427 703.875 59.295 706.757 56.413 711.625 64.138 705.515" style="stroke:#000;stroke-width:1"/><path id="&lt;b&gt;api&lt;/b&gt;-&gt;supplier.model" fill="none" d="M103.6694,884.1068 C80.4488,872.3023 36.126,845.7817 18.3846,808 C5.9638,781.549 3.1631,569.945 18.3846,545 C26.8603,531.11 41.5839,523.016 57.1677,518.365" style="stroke:#000;stroke-width:1"/><polygon fill="#000" points="62.026 517.029 52.287 515.558 57.205 518.355 54.408 523.272 62.026 517.029" style="stroke:#000;stroke-width:1"/><path id="&lt;b&gt;api&lt;/b&gt;-&gt;supplier.route" fill="none" d="M103.5051,884.2737 C69.4629,867.9124 -9.111,824.059 18.3846,779 C27.2045,764.546 42.7901,756.368 59.0701,751.815" style="stroke:#000;stroke-width:1"/><polygon fill="#000" points="64.138 750.515 54.427 748.875 59.295 751.757 56.413 756.625 64.138 750.515" style="stroke:#000;stroke-width:1"/><path id="&lt;b&gt;api&lt;/b&gt;-&gt;user.model" fill="none" d="M103.6694,884.1068 C80.4488,872.3023 36.126,845.7817 18.3846,808 C2.6106,774.408 2.6106,674.592 18.3846,641 C33.1906,609.469 66.5095,585.782 90.6263,571.946" style="stroke:#000;stroke-width:1"/><polygon fill="#000" points="95.016 569.477 85.211 570.403 90.658 571.928 89.133 577.376 95.016 569.477" style="stroke:#000;stroke-width:1"/><path id="&lt;b&gt;api&lt;/b&gt;-&gt;user.route" fill="none" d="M118.385,877.8516 C118.385,855.2996 118.385,832.748 118.385,810.196" style="stroke:#000;stroke-width:1"/><polygon fill="#000" points="118.385 805.079 114.385 814.079 118.385 810.079 122.385 814.079 118.385 805.079" style="stroke:#000;stroke-width:1"/><path id="&lt;b&gt;App&lt;/b&gt;-&gt;Admin" fill="none" d="M101.9633,359.529 C67.158,342.613 -8.7037,299.392 18.3846,255 C32.0278,232.642 61.9969,225.632 85.5893,223.775" style="stroke:#000;stroke-width:1"/><polygon fill="#000" points="90.823 223.438 81.584 220.025 85.833 223.76 82.099 228.008 90.823 223.438" style="stroke:#000;stroke-width:1"/><path id="&lt;b&gt;App&lt;/b&gt;-&gt;Cashier" fill="none" d="M102.134,359.32 C78.5445,347.15 35.7424,320.965 18.3846,284 C7.1445,260.063 4.61,187.574 18.3846,165 C30.8836,144.517 57.0846,136.916 79.532,134.357" style="stroke:#000;stroke-width:1"/><polygon fill="#000" points="84.553 133.86 75.203 130.767 79.577 134.353 75.991 138.728 84.553 133.86" style="stroke:#000;stroke-width:1"/><path id="&lt;b&gt;App&lt;/b&gt;-&gt;InventoryClerk" fill="none" d="M102.134,359.32 C78.5445,347.15 35.7424,320.965 18.3846,284 C4.5942,254.632 1.4846,238.695 18.3846,211 C26.9894,196.899 42.0338,188.771 57.8802,184.155" style="stroke:#000;stroke-width:1"/><polygon fill="#000" points="62.818 182.832 53.089 181.298 57.988 184.126 55.16 189.025 62.818 182.832" style="stroke:#000;stroke-width:1"/><path id="&lt;b&gt;App&lt;/b&gt;-&gt;SysAdmin" fill="none" d="M118.385,353.852 C118.385,331.3 118.385,308.748 118.385,286.196" style="stroke:#000;stroke-width:1"/><polygon fill="#000" points="118.385 281.079 114.385 290.079 118.385 286.079 122.385 290.079 118.385 281.079" style="stroke:#000;stroke-width:1"/><path id="auth.route-&gt;auth.controller" fill="none" d="M162.594,655.79 C184.653,655.172 211.879,654.409 236.111,653.73" style="stroke:#000;stroke-width:.5"/><polygon fill="#000" points="241.234 653.587 232.125 649.841 236.236 653.727 232.35 657.837 241.234 653.587" style="stroke:#000;stroke-width:.5"/><path id="Cashier-&gt;PointOfSale" fill="none" d="M138.822,123.515 C156.643,114.234 183.97,100.829 208.885,92 C223.048,86.981 238.868,82.672 253.198,79.232" style="stroke:#000;stroke-width:.5"/><polygon fill="#000" points="258.404 78.004 248.726 76.176 253.537 79.151 250.562 83.963 258.404 78.004" style="stroke:#000;stroke-width:.5"/><path id="Dashboard-&gt;_MongoCharts" fill="none" d="M346.097,332.104 C375.056,330.916 412.453,329.382 442.51,328.149" style="stroke:#000;stroke-width:.5"/><polygon fill="#000" points="447.649 327.938 438.493 324.309 442.653 328.142 438.82 332.302 447.649 327.938" style="stroke:#000;stroke-width:.5"/><path id="Dashboard-&gt;_MongoWidgets" fill="none" d="M338.169,326.64 C354.114,323.037 372.658,318.138 388.885,312 C399.669,307.921 401.23,304.407 411.885,300 C420.244,296.542 429.236,293.279 438.106,290.309" style="stroke:#000;stroke-width:.5"/><polygon fill="#000" points="443.017 288.689 433.217 287.708 438.269 290.255 435.722 295.306 443.017 288.689" style="stroke:#000;stroke-width:.5"/><path id="Inventory-&gt;ProductService" fill="none" d="M338.41,161.754 C366.225,164.464 404.296,168.173 435.921,171.255" style="stroke:#000;stroke-width:.5"/><polygon fill="#000" points="440.938 171.744 432.369 166.888 435.962 171.258 431.592 174.851 440.938 171.744" style="stroke:#000;stroke-width:.5"/><path id="InventoryClerk-&gt;AuditLog" fill="none" d="M169.763,185.315 C181.077,188.748 192.267,193.995 200.885,202 C208.508,209.081 201.147,217.045 208.885,224 C221.758,235.571 239.755,241.281 256.199,244.022" style="stroke:#000;stroke-width:.5"/><polygon fill="#000" points="261.245 244.781 252.939 239.488 256.3 244.038 251.751 247.399 261.245 244.781" style="stroke:#000;stroke-width:.5"/><path id="InventoryClerk-&gt;Inventory" fill="none" d="M170.536,172.982 C197.289,169.835 229.664,166.026 255.077,163.036" style="stroke:#000;stroke-width:.5"/><polygon fill="#000" points="260.063 162.45 250.657 159.529 255.097 163.034 251.592 167.474 260.063 162.45" style="stroke:#000;stroke-width:.5"/><path id="InventoryClerk-&gt;Invoices" fill="none" d="M169.584,172.489 C180.903,169.063 192.141,163.867 200.885,156 C208.002,149.597 201.664,142.286 208.885,136 C221.722,124.824 239.365,119.146 255.557,116.323" style="stroke:#000;stroke-width:.5"/><polygon fill="#000" points="260.529 115.536 251.014 112.995 255.591 116.319 252.267 120.896 260.529 115.536" style="stroke:#000;stroke-width:.5"/><path id="InventoryClerk-&gt;Suppliers" fill="none" d="M169.582,185.468 C196.843,188.981 230.16,193.274 256.01,196.604" style="stroke:#000;stroke-width:.5"/><polygon fill="#000" points="261.077 197.257 252.663 192.138 256.118 196.617 251.639 200.072 261.077 197.257" style="stroke:#000;stroke-width:.5"/><path id="product.route-&gt;product.controller" fill="none" d="M174.397,701.384 C191.438,701.193 210.442,700.98 228.335,700.779" style="stroke:#000;stroke-width:.5"/><polygon fill="#000" points="233.349 700.723 224.305 696.823 228.349 700.779 224.394 704.823 233.349 700.723" style="stroke:#000;stroke-width:.5"/><path id="supplier.route-&gt;supplier.controller" fill="none" d="M174.397,747.616 C191.107,747.804 209.704,748.012 227.29,748.209" style="stroke:#000;stroke-width:.5"/><polygon fill="#000" points="232.712 748.27 223.757 744.17 227.712 748.214 223.668 752.169 232.712 748.27" style="stroke:#000;stroke-width:.5"/><path id="Suppliers-&gt;SupplierService" fill="none" d="M337.483,206.242 C365.427,209.394 404.089,213.756 436.102,217.368" style="stroke:#000;stroke-width:.5"/><polygon fill="#000" points="441.181 217.941 432.686 212.958 436.212 217.381 431.79 220.908 441.181 217.941" style="stroke:#000;stroke-width:.5"/><path id="SysAdmin-&gt;AuditLog" fill="none" d="M158.116,263.226 C187.68,259.583 228.269,254.58 258.092,250.904" style="stroke:#000;stroke-width:.5"/><polygon fill="#000" points="263.155 250.28 253.733 247.411 258.192 250.891 254.712 255.351 263.155 250.28" style="stroke:#000;stroke-width:.5"/><path id="SysAdmin-&gt;Dashboard" fill="none" d="M139.454,279.421 C157.243,289.163 184.159,302.985 208.885,312 C223.529,317.339 239.993,321.813 254.741,325.302" style="stroke:#000;stroke-width:.5"/><polygon fill="#000" points="259.672 326.447 251.81 320.515 254.802 325.316 250 328.307 259.672 326.447" style="stroke:#000;stroke-width:.5"/><path id="SysAdmin-&gt;SysInfo" fill="none" d="M135.475,280.082 C152.994,293.776 181.145,317.408 200.885,342 C205.371,347.589 203.166,351.68 208.885,356 C223.156,366.782 242.047,372.337 258.753,375.177" style="stroke:#000;stroke-width:.5"/><polygon fill="#000" points="263.86 375.974 255.583 370.636 258.92 375.204 254.351 378.541 263.86 375.974" style="stroke:#000;stroke-width:.5"/><path id="SysInfo-&gt;_MongoMetrics" fill="none" d="M334.298,378 C363.669,378 406.425,378 440.436,378" style="stroke:#000;stroke-width:.5"/><polygon fill="#000" points="445.817 378 436.817 374 440.817 378 436.817 382 445.817 378" style="stroke:#000;stroke-width:.5"/><path id="user.route-&gt;user.controller" fill="none" d="M162.594,793.21 C184.653,793.828 211.879,794.591 236.111,795.27" style="stroke:#000;stroke-width:.5"/><polygon fill="#000" points="241.234 795.413 232.35 791.163 236.236 795.273 232.125 799.159 241.234 795.413" style="stroke:#000;stroke-width:.5"/><script type="text/plantuml"><![CDATA[MD5=[9ba1bf3829d35265994256ac2203ed33]
@startuml

scale max 1920 width
left to right direction

skinparam nodesep 18
skinparam ranksep 35
skinparam monochrome true
skinparam shadowing false
skinparam defaultFontName Tahoma
skinparam defaultFontSize 12
skinparam roundCorner 6
skinparam dpi 150
skinparam arrowColor black
skinparam arrowThickness 0.5
skinparam packageTitleAlignment left

skinparam usecase {
  borderThickness 0.5
}

skinparam rectangle {
  borderThickness 0.5
}

skinparam component {
  borderThickness 1
}


package "Client" {
  (<b>App</b>)
}

package "Roles" {
  (Admin)
  (Cashier)
  (InventoryClerk)
  (SysAdmin)
}

package "Views" {
  (AuditLog)
  (Dashboard)
  (Inventory)
  (Invoices)
  (PointOfSale)
  (Suppliers)
  (SysInfo)
  (Users)
}

package "Services" {
  rectangle "MongoCharts" as _MongoCharts
  rectangle "MongoMetrics" as _MongoMetrics
  rectangle "MongoWidgets" as _MongoWidgets
  (ProductService)
  (SupplierService)
}

package "API" {
  (<b>api</b>)
}

package "Routes" {
  (auth.route)
  (product.route)
  (supplier.route)
  (user.route)
}

package "Models" {
  (product.model)
  (supplier.model)
  (user.model)
}

package "Functions" {
  (auth.controller)
  (product.controller)
  (supplier.controller)
  (user.controller)
}

(Admin) --> (AuditLog)
(Admin) --> (Dashboard)
(Admin) --> (Inventory)
(Admin) --> (Invoices)
(Admin) --> (PointOfSale)
(Admin) --> (Suppliers)
(Admin) --> (SysInfo)
(Admin) --> (Users)
(<b>api</b>) -[thickness=1]> (auth.route)
(<b>api</b>) -[thickness=1]> (product.model)
(<b>api</b>) -[thickness=1]> (product.route)
(<b>api</b>) -[thickness=1]> (supplier.model)
(<b>api</b>) -[thickness=1]> (supplier.route)
(<b>api</b>) -[thickness=1]> (user.model)
(<b>api</b>) -[thickness=1]> (user.route)
(<b>App</b>) -[thickness=1]> (Admin)
(<b>App</b>) -[thickness=1]> (Cashier)
(<b>App</b>) -[thickness=1]> (InventoryClerk)
(<b>App</b>) -[thickness=1]> (SysAdmin)
(auth.route) --> (auth.controller)
(Cashier) --> (PointOfSale)
(Dashboard) ---> _MongoCharts
(Dashboard) ---> _MongoWidgets
(Inventory) --> (ProductService)
(InventoryClerk) --> (AuditLog)
(InventoryClerk) --> (Inventory)
(InventoryClerk) --> (Invoices)
(InventoryClerk) --> (Suppliers)
(product.route) --> (product.controller)
(supplier.route) --> (supplier.controller)
(Suppliers) --> (SupplierService)
(SysAdmin) --> (AuditLog)
(SysAdmin) --> (Dashboard)
(SysAdmin) --> (SysInfo)
(SysInfo) ---> _MongoMetrics
(user.route) --> (user.controller)

@enduml


' View and edit on https://arkit.pro
]]></script></g></svg>