<?xml version="1.0" encoding="UTF-8" standalone="no"?><svg xmlns="http://www.w3.org/2000/svg" xmlns:xlink="http://www.w3.org/1999/xlink" contentScriptType="application/ecmascript" contentStyleType="text/css" height="904px" preserveAspectRatio="none" style="width:586px;height:904px;" version="1.1" viewBox="0 0 586 904" width="586px" zoomAndPan="magnify"><defs/><g><!--MD5=[406b65fecc21e832f7a9b6ebadc6dce1]
cluster Client--><path d="M77.4692,781 L115.4692,781 A4.5,4.5 0 0 1 118.4692,784 L125.4692,801.4844 L160.469,801.4844 A3,3 0 0 1 163.469,804.4844 L163.469,853 A3,3 0 0 1 160.469,856 L77.4692,856 A3,3 0 0 1 74.4692,853 L74.4692,784 A3,3 0 0 1 77.4692,781 " fill="#FFFFFF" style="stroke: #000000; stroke-width: 1.5;"/><line style="stroke: #000000; stroke-width: 1.5;" x1="74.4692" x2="125.4692" y1="801.4844" y2="801.4844"/><text fill="#000000" font-family="Tahoma, sans-serif" font-size="12" font-weight="bold" lengthAdjust="spacingAndGlyphs" textLength="38" x="78.4692" y="795.0059">Client</text><!--MD5=[bab8871aa7844ca2d55c17c3aed324be]
cluster Roles--><path d="M48.4692,548 L85.4692,548 A4.5,4.5 0 0 1 88.4692,551 L95.4692,568.4844 L189.469,568.4844 A3,3 0 0 1 192.469,571.4844 L192.469,754 A3,3 0 0 1 189.469,757 L48.4692,757 A3,3 0 0 1 45.4692,754 L45.4692,551 A3,3 0 0 1 48.4692,548 " fill="#FFFFFF" style="stroke: #000000; stroke-width: 1.5;"/><line style="stroke: #000000; stroke-width: 1.5;" x1="45.4692" x2="95.4692" y1="568.4844" y2="568.4844"/><text fill="#000000" font-family="Tahoma, sans-serif" font-size="12" font-weight="bold" lengthAdjust="spacingAndGlyphs" textLength="37" x="49.4692" y="562.0059">Roles</text><!--MD5=[999f80192410ad58725ac6d158b21eb2]
cluster Views--><path d="M235.469,461 L273.469,461 A4.5,4.5 0 0 1 276.469,464 L283.469,481.4844 L363.469,481.4844 A3,3 0 0 1 366.469,484.4844 L366.469,885 A3,3 0 0 1 363.469,888 L235.469,888 A3,3 0 0 1 232.469,885 L232.469,464 A3,3 0 0 1 235.469,461 " fill="#FFFFFF" style="stroke: #000000; stroke-width: 1.5;"/><line style="stroke: #000000; stroke-width: 1.5;" x1="232.469" x2="283.469" y1="481.4844" y2="481.4844"/><text fill="#000000" font-family="Tahoma, sans-serif" font-size="12" font-weight="bold" lengthAdjust="spacingAndGlyphs" textLength="38" x="236.469" y="475.0059">Views</text><!--MD5=[cdfd548b3455e70392372b1f27091970]
cluster Services--><path d="M425.469,611 L482.469,611 A4.5,4.5 0 0 1 485.469,614 L492.469,631.4844 L571.469,631.4844 A3,3 0 0 1 574.469,634.4844 L574.469,889 A3,3 0 0 1 571.469,892 L425.469,892 A3,3 0 0 1 422.469,889 L422.469,614 A3,3 0 0 1 425.469,611 " fill="#FFFFFF" style="stroke: #000000; stroke-width: 1.5;"/><line style="stroke: #000000; stroke-width: 1.5;" x1="422.469" x2="492.469" y1="631.4844" y2="631.4844"/><text fill="#000000" font-family="Tahoma, sans-serif" font-size="12" font-weight="bold" lengthAdjust="spacingAndGlyphs" textLength="57" x="426.469" y="625.0059">Services</text><!--MD5=[979da56a7f83e2393dc758167ae295d0]
cluster Server--><path d="M73.9692,449 L115.9692,449 A4.5,4.5 0 0 1 118.9692,452 L125.9692,469.4844 L163.969,469.4844 A3,3 0 0 1 166.969,472.4844 L166.969,521 A3,3 0 0 1 163.969,524 L73.9692,524 A3,3 0 0 1 70.9692,521 L70.9692,452 A3,3 0 0 1 73.9692,449 " fill="#FFFFFF" style="stroke: #000000; stroke-width: 1.5;"/><line style="stroke: #000000; stroke-width: 1.5;" x1="70.9692" x2="125.9692" y1="469.4844" y2="469.4844"/><text fill="#000000" font-family="Tahoma, sans-serif" font-size="12" font-weight="bold" lengthAdjust="spacingAndGlyphs" textLength="42" x="74.9692" y="463.0059">Server</text><!--MD5=[fac864e77539af95038f0151207ed802]
cluster API--><path d="M49.9692,215 L71.9692,215 A4.5,4.5 0 0 1 74.9692,218 L81.9692,235.4844 L187.969,235.4844 A3,3 0 0 1 190.969,238.4844 L190.969,422 A3,3 0 0 1 187.969,425 L49.9692,425 A3,3 0 0 1 46.9692,422 L46.9692,218 A3,3 0 0 1 49.9692,215 " fill="#FFFFFF" style="stroke: #000000; stroke-width: 1.5;"/><line style="stroke: #000000; stroke-width: 1.5;" x1="46.9692" x2="81.9692" y1="235.4844" y2="235.4844"/><text fill="#000000" font-family="Tahoma, sans-serif" font-size="12" font-weight="bold" lengthAdjust="spacingAndGlyphs" textLength="22" x="50.9692" y="229.0059">API</text><!--MD5=[027ebfd53c01aea08f474edbf35d0797]
cluster Models--><path d="M47.4692,24 L94.4692,24 A4.5,4.5 0 0 1 97.4692,27 L104.4692,44.4844 L190.469,44.4844 A3,3 0 0 1 193.469,47.4844 L193.469,188 A3,3 0 0 1 190.469,191 L47.4692,191 A3,3 0 0 1 44.4692,188 L44.4692,27 A3,3 0 0 1 47.4692,24 " fill="#FFFFFF" style="stroke: #000000; stroke-width: 1.5;"/><line style="stroke: #000000; stroke-width: 1.5;" x1="44.4692" x2="104.4692" y1="44.4844" y2="44.4844"/><text fill="#000000" font-family="Tahoma, sans-serif" font-size="12" font-weight="bold" lengthAdjust="spacingAndGlyphs" textLength="47" x="48.4692" y="38.0059">Models</text><!--MD5=[7c6608d7cf625e90131334e1ca091b1a]
cluster Functions--><path d="M220.469,209 L285.469,209 A4.5,4.5 0 0 1 288.469,212 L295.469,229.4844 L378.469,229.4844 A3,3 0 0 1 381.469,232.4844 L381.469,428 A3,3 0 0 1 378.469,431 L220.469,431 A3,3 0 0 1 217.469,428 L217.469,212 A3,3 0 0 1 220.469,209 " fill="#FFFFFF" style="stroke: #000000; stroke-width: 1.5;"/><line style="stroke: #000000; stroke-width: 1.5;" x1="217.469" x2="295.469" y1="229.4844" y2="229.4844"/><text fill="#000000" font-family="Tahoma, sans-serif" font-size="12" font-weight="bold" lengthAdjust="spacingAndGlyphs" textLength="65" x="221.469" y="223.0059">Functions</text><ellipse cx="118.9248" cy="827.242" fill="#F8F8F8" rx="28.4558" ry="13.242" style="stroke: #383838; stroke-width: 0.5;"/><text fill="#000000" font-family="Tahoma, sans-serif" font-size="12" font-weight="bold" lengthAdjust="spacingAndGlyphs" textLength="36" x="100.9248" y="830.9842">Login</text><ellipse cx="119.2177" cy="684.242" fill="#F8F8F8" rx="27.7487" ry="13.242" style="stroke: #383838; stroke-width: 0.5;"/><text fill="#000000" font-family="Tahoma, sans-serif" font-size="12" lengthAdjust="spacingAndGlyphs" textLength="35" x="101.7177" y="687.9842">Admin</text><ellipse cx="118.8746" cy="594.242" fill="#F8F8F8" rx="33.4056" ry="13.242" style="stroke: #383838; stroke-width: 0.5;"/><text fill="#000000" font-family="Tahoma, sans-serif" font-size="12" lengthAdjust="spacingAndGlyphs" textLength="43" x="97.3746" y="597.9842">Cashier</text><ellipse cx="119.1703" cy="638.9403" fill="#F8F8F8" rx="57.7013" ry="13.9403" style="stroke: #383838; stroke-width: 0.5;"/><text fill="#000000" font-family="Tahoma, sans-serif" font-size="12" lengthAdjust="spacingAndGlyphs" textLength="82" x="78.1703" y="642.6824">InventoryClerk</text><ellipse cx="119.067" cy="728.242" fill="#F8F8F8" rx="42.598" ry="13.242" style="stroke: #383838; stroke-width: 0.5;"/><text fill="#000000" font-family="Tahoma, sans-serif" font-size="12" lengthAdjust="spacingAndGlyphs" textLength="56" x="91.067" y="731.9842">SysAdmin</text><ellipse cx="299.6172" cy="727.242" fill="#F8F8F8" rx="37.6482" ry="13.242" style="stroke: #383838; stroke-width: 0.5;"/><text fill="#000000" font-family="Tahoma, sans-serif" font-size="12" lengthAdjust="spacingAndGlyphs" textLength="49" x="275.1172" y="730.9842">AuditLog</text><ellipse cx="299.5817" cy="507.242" fill="#F8F8F8" rx="34.1127" ry="13.242" style="stroke: #383838; stroke-width: 0.5;"/><text fill="#000000" font-family="Tahoma, sans-serif" font-size="12" lengthAdjust="spacingAndGlyphs" textLength="44" x="277.5817" y="510.9842">Catalog</text><ellipse cx="299.5167" cy="859.242" fill="#F8F8F8" rx="47.5477" ry="13.242" style="stroke: #383838; stroke-width: 0.5;"/><text fill="#000000" font-family="Tahoma, sans-serif" font-size="12" lengthAdjust="spacingAndGlyphs" textLength="63" x="268.0167" y="862.9842">Dashboard</text><ellipse cx="299.6528" cy="683.242" fill="#F8F8F8" rx="41.1838" ry="13.242" style="stroke: #383838; stroke-width: 0.5;"/><text fill="#000000" font-family="Tahoma, sans-serif" font-size="12" lengthAdjust="spacingAndGlyphs" textLength="54" x="272.6528" y="686.9842">Inventory</text><ellipse cx="299.3243" cy="595.242" fill="#F8F8F8" rx="38.3553" ry="13.242" style="stroke: #383838; stroke-width: 0.5;"/><text fill="#000000" font-family="Tahoma, sans-serif" font-size="12" lengthAdjust="spacingAndGlyphs" textLength="50" x="274.3243" y="598.9842">Invoices</text><ellipse cx="299.5523" cy="551.242" fill="#F8F8F8" rx="51.0833" ry="13.242" style="stroke: #383838; stroke-width: 0.5;"/><text fill="#000000" font-family="Tahoma, sans-serif" font-size="12" lengthAdjust="spacingAndGlyphs" textLength="68" x="265.5523" y="554.9842">PointOfSale</text><ellipse cx="299.4457" cy="639.242" fill="#F8F8F8" rx="40.4767" ry="13.242" style="stroke: #383838; stroke-width: 0.5;"/><text fill="#000000" font-family="Tahoma, sans-serif" font-size="12" lengthAdjust="spacingAndGlyphs" textLength="53" x="272.9457" y="642.9842">Suppliers</text><ellipse cx="299.2888" cy="815.242" fill="#F8F8F8" rx="34.8198" ry="13.242" style="stroke: #383838; stroke-width: 0.5;"/><text fill="#000000" font-family="Tahoma, sans-serif" font-size="12" lengthAdjust="spacingAndGlyphs" textLength="45" x="276.7888" y="818.9842">SysInfo</text><ellipse cx="299.3035" cy="771.242" fill="#F8F8F8" rx="26.3345" ry="13.242" style="stroke: #383838; stroke-width: 0.5;"/><text fill="#000000" font-family="Tahoma, sans-serif" font-size="12" lengthAdjust="spacingAndGlyphs" textLength="33" x="282.8035" y="774.9842">Users</text><!--MD5=[11d92bf68f1b4f6cf198e9d968b2a5ec]
entity _MongoCharts--><rect fill="#F8F8F8" height="34.4844" rx="3" ry="3" style="stroke: #000000; stroke-width: 0.5;" width="96" x="450.469" y="790"/><text fill="#000000" font-family="Tahoma, sans-serif" font-size="12" lengthAdjust="spacingAndGlyphs" textLength="76" x="460.469" y="812.0059">MongoCharts</text><!--MD5=[437b34a7bcd6242cfeab55533156839b]
entity _MongoTables--><rect fill="#F8F8F8" height="34.4844" rx="3" ry="3" style="stroke: #000000; stroke-width: 0.5;" width="97" x="449.969" y="842"/><text fill="#000000" font-family="Tahoma, sans-serif" font-size="12" lengthAdjust="spacingAndGlyphs" textLength="77" x="459.969" y="864.0059">MongoTables</text><!--MD5=[d2546eb4f1760d27a472230d88878931]
entity _MongoWidgets--><rect fill="#F8F8F8" height="34.4844" rx="3" ry="3" style="stroke: #000000; stroke-width: 0.5;" width="105" x="445.969" y="738"/><text fill="#000000" font-family="Tahoma, sans-serif" font-size="12" lengthAdjust="spacingAndGlyphs" textLength="85" x="455.969" y="760.0059">MongoWidgets</text><ellipse cx="498.6849" cy="706.2432" fill="#F8F8F8" rx="59.2159" ry="14.2432" style="stroke: #383838; stroke-width: 0.5;"/><text fill="#000000" font-family="Tahoma, sans-serif" font-size="12" lengthAdjust="spacingAndGlyphs" textLength="86" x="455.6849" y="709.9854">ProductService</text><ellipse cx="498.4535" cy="658.8969" fill="#F8F8F8" rx="59.9845" ry="14.3969" style="stroke: #383838; stroke-width: 0.5;"/><text fill="#000000" font-family="Tahoma, sans-serif" font-size="12" lengthAdjust="spacingAndGlyphs" textLength="88" x="454.4535" y="662.6391">SupplierService</text><ellipse cx="118.9604" cy="495.242" fill="#F8F8F8" rx="31.9914" ry="13.242" style="stroke: #383838; stroke-width: 0.5;"/><text fill="#000000" font-family="Tahoma, sans-serif" font-size="12" font-weight="bold" lengthAdjust="spacingAndGlyphs" textLength="41" x="98.4604" y="498.9842">server</text><ellipse cx="118.9812" cy="261.242" fill="#F8F8F8" rx="44.0122" ry="13.242" style="stroke: #383838; stroke-width: 0.5;"/><text fill="#000000" font-family="Tahoma, sans-serif" font-size="12" lengthAdjust="spacingAndGlyphs" textLength="58" x="89.9812" y="264.9842">auth.route</text><ellipse cx="118.8224" cy="306.0707" fill="#F8F8F8" rx="55.8534" ry="13.5707" style="stroke: #383838; stroke-width: 0.5;"/><text fill="#000000" font-family="Tahoma, sans-serif" font-size="12" lengthAdjust="spacingAndGlyphs" textLength="77" x="80.3224" y="309.8129">product.route</text><ellipse cx="119.1877" cy="351.1437" fill="#F8F8F8" rx="56.2187" ry="13.6437" style="stroke: #383838; stroke-width: 0.5;"/><text fill="#000000" font-family="Tahoma, sans-serif" font-size="12" lengthAdjust="spacingAndGlyphs" textLength="78" x="80.1877" y="354.8859">supplier.route</text><ellipse cx="118.9812" cy="396.242" fill="#F8F8F8" rx="44.0122" ry="13.242" style="stroke: #383838; stroke-width: 0.5;"/><text fill="#000000" font-family="Tahoma, sans-serif" font-size="12" lengthAdjust="spacingAndGlyphs" textLength="58" x="89.9812" y="399.9842">user.route</text><ellipse cx="119.0461" cy="71.0154" fill="#F8F8F8" rx="58.0771" ry="14.0154" style="stroke: #383838; stroke-width: 0.5;"/><text fill="#000000" font-family="Tahoma, sans-serif" font-size="12" lengthAdjust="spacingAndGlyphs" textLength="83" x="77.5461" y="74.7576">product.model</text><ellipse cx="118.9238" cy="117.091" fill="#F8F8F8" rx="58.4548" ry="14.091" style="stroke: #383838; stroke-width: 0.5;"/><text fill="#000000" font-family="Tahoma, sans-serif" font-size="12" lengthAdjust="spacingAndGlyphs" textLength="84" x="76.9238" y="120.8331">supplier.model</text><ellipse cx="118.7238" cy="162.242" fill="#F8F8F8" rx="48.2548" ry="13.242" style="stroke: #383838; stroke-width: 0.5;"/><text fill="#000000" font-family="Tahoma, sans-serif" font-size="12" lengthAdjust="spacingAndGlyphs" textLength="64" x="86.7238" y="165.9842">user.model</text><ellipse cx="299.5461" cy="256.0154" fill="#F8F8F8" rx="58.0771" ry="14.0154" style="stroke: #383838; stroke-width: 0.5;"/><text fill="#000000" font-family="Tahoma, sans-serif" font-size="12" lengthAdjust="spacingAndGlyphs" textLength="83" x="258.0461" y="259.7576">auth.controller</text><ellipse cx="299.5168" cy="304.0096" fill="#F8F8F8" rx="65.5478" ry="15.5096" style="stroke: #383838; stroke-width: 0.5;"/><text fill="#000000" font-family="Tahoma, sans-serif" font-size="12" lengthAdjust="spacingAndGlyphs" textLength="102" x="248.5168" y="307.7518">product.controller</text><ellipse cx="299.4252" cy="353.0912" fill="#F8F8F8" rx="65.9562" ry="15.5912" style="stroke: #383838; stroke-width: 0.5;"/><text fill="#000000" font-family="Tahoma, sans-serif" font-size="12" lengthAdjust="spacingAndGlyphs" textLength="103" x="247.9252" y="356.8334">supplier.controller</text><ellipse cx="299.5461" cy="401.0154" fill="#F8F8F8" rx="58.0771" ry="14.0154" style="stroke: #383838; stroke-width: 0.5;"/><text fill="#000000" font-family="Tahoma, sans-serif" font-size="12" lengthAdjust="spacingAndGlyphs" textLength="83" x="258.0461" y="404.7576">user.controller</text><!--MD5=[35cb582d10241ac60dd8e03ee1e03d8d]
link Admin to AuditLog--><path d="M144.043,689.799 C174.7,697.184 227.916,710.004 263.165,718.495 " fill="none" id="Admin-&gt;AuditLog" style="stroke: #000000; stroke-width: 0.5;"/><polygon fill="#000000" points="268.23,719.716,260.4175,713.719,263.3691,718.5447,258.5434,721.4964,268.23,719.716" style="stroke: #000000; stroke-width: 0.5;"/><!--MD5=[50d288d3f7e002eddb13069a1f01076d]
link Admin to Dashboard--><path d="M146.627,683.634 C165.013,684.937 188.41,689.985 201.469,706 C219.9,728.603 190.798,814.5944 209.469,837 C218.726,848.1079 232.62,854.1027 246.695,857.2144 " fill="none" id="Admin-&gt;Dashboard" style="stroke: #000000; stroke-width: 0.5;"/><polygon fill="#000000" points="251.88,858.2346,243.822,852.5717,246.9741,857.2689,242.2769,860.4211,251.88,858.2346" style="stroke: #000000; stroke-width: 0.5;"/><!--MD5=[1f13b5a9b9b671fb798ce279c622a21e]
link Admin to Inventory--><path d="M146.692,683.85 C174.757,683.693 219.398,683.443 253.016,683.255 " fill="none" id="Admin-&gt;Inventory" style="stroke: #000000; stroke-width: 0.5;"/><polygon fill="#000000" points="258.313,683.225,249.2903,679.2765,253.3131,683.2536,249.336,687.2764,258.313,683.225" style="stroke: #000000; stroke-width: 0.5;"/><!--MD5=[0864188ca207e6e3d25d06cd74113427]
link Admin to Invoices--><path d="M146.469,683.862 C164.536,682.292 187.611,677.131 201.469,662 C215.19,647.02 195.59,631.833 209.469,617 C221.296,604.361 239.135,598.49 255.745,595.918 " fill="none" id="Admin-&gt;Invoices" style="stroke: #000000; stroke-width: 0.5;"/><polygon fill="#000000" points="260.852,595.222,251.394,592.4749,255.8979,595.8977,252.4751,600.4016,260.852,595.222" style="stroke: #000000; stroke-width: 0.5;"/><!--MD5=[9244b77e5f218a90508712933eee5330]
link Admin to PointOfSale--><path d="M146.489,684.251 C164.808,682.893 188.182,677.827 201.469,662 C214.237,646.792 196.54,588.071 209.469,573 C218.161,562.869 230.71,557.014 243.655,553.722 " fill="none" id="Admin-&gt;PointOfSale" style="stroke: #000000; stroke-width: 0.5;"/><polygon fill="#000000" points="248.824,552.542,239.16,550.6429,243.9491,553.6536,240.9385,558.4427,248.824,552.542" style="stroke: #000000; stroke-width: 0.5;"/><!--MD5=[0896d165bd5351a0f769a782af6677fc]
link Admin to Suppliers--><path d="M143.509,677.888 C161.55,673.218 187.068,666.647 209.469,661 C226.673,656.663 245.769,651.932 261.847,647.972 " fill="none" id="Admin-&gt;Suppliers" style="stroke: #000000; stroke-width: 0.5;"/><polygon fill="#000000" points="266.735,646.769,257.0396,645.037,261.88,647.9645,258.9525,652.8049,266.735,646.769" style="stroke: #000000; stroke-width: 0.5;"/><!--MD5=[4e640689d42ddbba6e59b5f22fa8822e]
link Admin to SysInfo--><path d="M146.479,683.757 C164.793,685.119 188.166,690.187 201.469,706 C213.968,720.857 196.813,778.277 209.469,793 C221.599,807.11 241.211,812.921 258.941,815.07 " fill="none" id="Admin-&gt;SysInfo" style="stroke: #000000; stroke-width: 0.5;"/><polygon fill="#000000" points="264.373,815.6245,255.8265,810.7298,259.3989,815.1159,255.0128,818.6883,264.373,815.6245" style="stroke: #000000; stroke-width: 0.5;"/><!--MD5=[046d77a1f2269ec452d7d6de3274dc50]
link Admin to Users--><path d="M146.82,684.206 C164.81,685.833 187.65,691.033 201.469,706 C214.656,720.282 196.131,734.859 209.469,749 C224.244,764.663 248.257,769.916 267.618,771.387 " fill="none" id="Admin-&gt;Users" style="stroke: #000000; stroke-width: 0.5;"/><polygon fill="#000000" points="272.944,771.707,264.2002,767.1743,267.953,771.407,263.7202,775.1598,272.944,771.707" style="stroke: #000000; stroke-width: 0.5;"/><!--MD5=[5468e45969713e5a894de7971631c8d1]
link AuditLog to ProductService--><path d="M335.689,723.246 C364.368,720.188 405.459,715.808 439.051,712.227 " fill="none" id="AuditLog-&gt;ProductService" style="stroke: #000000; stroke-width: 0.5;"/><polygon fill="#000000" points="444.375,711.66,435.0017,708.6366,439.4032,712.19,435.8497,716.5915,444.375,711.66" style="stroke: #000000; stroke-width: 0.5;"/><!--MD5=[afd8fda9dbcd551f99eb0291dd88bdea]
link auth.route to auth.controller--><path d="M163.179,259.79 C185.238,259.172 212.464,258.409 236.696,257.73 " fill="none" id="auth.route-&gt;auth.controller" style="stroke: #000000; stroke-width: 0.5;"/><polygon fill="#000000" points="241.818,257.587,232.7095,253.8406,236.82,257.727,232.9336,261.8375,241.818,257.587" style="stroke: #000000; stroke-width: 0.5;"/><!--MD5=[0123583069a1a6acccb7158c2d3fe865]
link Cashier to Catalog--><path d="M132.88,582.096 C149.412,567.481 179.518,542.926 209.469,529 C226.08,521.276 245.744,516.051 262.359,512.638 " fill="none" id="Cashier-&gt;Catalog" style="stroke: #000000; stroke-width: 0.5;"/><polygon fill="#000000" points="267.41,511.637,257.8043,509.462,262.5053,512.6085,259.3587,517.3095,267.41,511.637" style="stroke: #000000; stroke-width: 0.5;"/><!--MD5=[1185c6672533da3ade170b9ccc6f8dee]
link Cashier to PointOfSale--><path d="M147.86,587.281 C176.992,580.263 223.029,569.173 256.542,561.1 " fill="none" id="Cashier-&gt;PointOfSale" style="stroke: #000000; stroke-width: 0.5;"/><polygon fill="#000000" points="261.808,559.831,252.1219,558.0479,256.9468,561.0009,253.9938,565.8259,261.808,559.831" style="stroke: #000000; stroke-width: 0.5;"/><!--MD5=[e8491d331d4025563c4e72cb9f436996]
link Catalog to ProductService--><path d="M333.735,506.685 C352.714,508.35 375.446,513.786 389.469,529 C436.465,579.986 368.192,631.362 414.469,683 C421.013,690.302 429.649,695.372 438.878,698.874 " fill="none" id="Catalog-&gt;ProductService" style="stroke: #000000; stroke-width: 0.5;"/><polygon fill="#000000" points="443.749,700.567,436.561,693.8341,439.0261,698.9256,433.9346,701.3907,443.749,700.567" style="stroke: #000000; stroke-width: 0.5;"/><!--MD5=[5c89a48f4cd5407ed7db9b984ddd6772]
link Dashboard to _MongoCharts--><path d="M335.613,850.5583 C352.007,846.5575 371.765,841.6461 389.469,837 C407.707,832.214 427.61,826.7535 445.305,821.8145 " fill="none" id="Dashboard-&gt;_MongoCharts" style="stroke: #000000; stroke-width: 0.5;"/><polygon fill="#000000" points="450.234,820.4363,440.4895,819.0062,445.4185,821.782,442.6427,826.711,450.234,820.4363" style="stroke: #000000; stroke-width: 0.5;"/><!--MD5=[437f8e243f06a32d1711f4cef0d50d30]
link Dashboard to _MongoTables--><path d="M347.155,859 C376.411,859 414.192,859 444.557,859 " fill="none" id="Dashboard-&gt;_MongoTables" style="stroke: #000000; stroke-width: 0.5;"/><polygon fill="#000000" points="449.75,859,440.75,855,444.75,859,440.75,863,449.75,859" style="stroke: #000000; stroke-width: 0.5;"/><!--MD5=[1b7b4b382e5d63435441c1dc37a0248a]
link Dashboard to _MongoWidgets--><path d="M345.738,855.8251 C361.01,852.8034 377.261,847.2125 389.469,837 C410.375,819.5114 394.108,799.12 414.469,781 C422.03,774.271 431.322,769.283 440.92,765.586 " fill="none" id="Dashboard-&gt;_MongoWidgets" style="stroke: #000000; stroke-width: 0.5;"/><polygon fill="#000000" points="445.651,763.873,435.8268,763.177,440.9499,765.5757,438.5512,770.6989,445.651,763.873" style="stroke: #000000; stroke-width: 0.5;"/><!--MD5=[4f415ffba3753f49878570bc99e7de14]
link Inventory to ProductService--><path d="M338.453,687.435 C367.214,690.793 407.215,695.463 439.901,699.279 " fill="none" id="Inventory-&gt;ProductService" style="stroke: #000000; stroke-width: 0.5;"/><polygon fill="#000000" points="445.081,699.884,436.6058,694.8669,440.1148,699.3039,435.6777,702.8129,445.081,699.884" style="stroke: #000000; stroke-width: 0.5;"/><!--MD5=[e797be1a45e7c42b7b1f56ca4e28495e]
link InventoryClerk to AuditLog--><path d="M172.169,644.611 C183.152,648.087 193.738,653.53 201.469,662 C214.574,676.357 196.131,690.859 209.469,705 C221.544,717.801 239.79,723.649 256.624,726.161 " fill="none" id="InventoryClerk-&gt;AuditLog" style="stroke: #000000; stroke-width: 0.5;"/><polygon fill="#000000" points="261.794,726.838,253.389,721.7042,256.8363,726.1893,252.3511,729.6366,261.794,726.838" style="stroke: #000000; stroke-width: 0.5;"/><!--MD5=[7e153186d695577076aa28689bce81bb]
link InventoryClerk to Inventory--><path d="M160.028,648.874 C190.441,656.371 231.938,666.6 261.55,673.9 " fill="none" id="InventoryClerk-&gt;Inventory" style="stroke: #000000; stroke-width: 0.5;"/><polygon fill="#000000" points="266.566,675.136,258.7856,669.0974,261.7114,673.9388,256.87,676.8647,266.566,675.136" style="stroke: #000000; stroke-width: 0.5;"/><!--MD5=[5b389857ae0c9a66eec0ed763f30cb4a]
link InventoryClerk to Invoices--><path d="M160.028,629.126 C190.927,621.509 233.266,611.072 262.96,603.753 " fill="none" id="InventoryClerk-&gt;Invoices" style="stroke: #000000; stroke-width: 0.5;"/><polygon fill="#000000" points="267.982,602.515,258.286,600.7863,263.1274,603.7122,260.2016,608.5536,267.982,602.515" style="stroke: #000000; stroke-width: 0.5;"/><!--MD5=[c6f49c3b8cc2d4eaf103ebaf1b48977c]
link InventoryClerk to Suppliers--><path d="M176.939,639 C201.791,639 230.502,639 253.776,639 " fill="none" id="InventoryClerk-&gt;Suppliers" style="stroke: #000000; stroke-width: 0.5;"/><polygon fill="#000000" points="258.96,639,249.96,635,253.96,639,249.96,643,258.96,639" style="stroke: #000000; stroke-width: 0.5;"/><!--MD5=[e321946630d77d99f07dcb85a6caadd0]
link <b>Login</b> to Admin--><path d="M98.6061,817.6418 C62.1789,799.551 -7.9701,757.78 18.4692,715 C32.3021,692.618 62.4057,685.611 86.0796,683.762 " fill="none" id="&lt;b&gt;Login&lt;/b&gt;-&gt;Admin" style="stroke: #000000; stroke-width: 1.0;"/><polygon fill="#000000" points="91.3308,683.426,82.094,680.0081,86.341,683.7448,82.6042,687.9918,91.3308,683.426" style="stroke: #000000; stroke-width: 1.0;"/><!--MD5=[cb20854daf8179b7f71840666a06aa29]
link <b>Login</b> to Cashier--><path d="M98.9663,817.4286 C74.7216,804.574 35.056,779.211 18.4692,744 C7.1998,720.077 4.5666,647.495 18.4692,625 C31.1419,604.495 57.4705,596.895 80.0006,594.342 " fill="none" id="&lt;b&gt;Login&lt;/b&gt;-&gt;Cashier" style="stroke: #000000; stroke-width: 1.0;"/><polygon fill="#000000" points="85.0398,593.846,75.6913,590.7468,80.0638,594.3357,76.4749,598.7083,85.0398,593.846" style="stroke: #000000; stroke-width: 1.0;"/><!--MD5=[eb01701a5428b9a989aa4a988a83f520]
link <b>Login</b> to InventoryClerk--><path d="M98.9663,817.4286 C74.7216,804.574 35.056,779.211 18.4692,744 C4.6428,714.649 1.4122,698.599 18.4692,671 C27.237,656.813 42.4869,648.671 58.4968,644.067 " fill="none" id="&lt;b&gt;Login&lt;/b&gt;-&gt;InventoryClerk" style="stroke: #000000; stroke-width: 1.0;"/><polygon fill="#000000" points="63.4834,642.75,53.7601,641.1823,58.6494,644.0275,55.8041,648.9167,63.4834,642.75" style="stroke: #000000; stroke-width: 1.0;"/><!--MD5=[30be874b04c37083029acd0d7afdb338]
link <b>Login</b> to SysAdmin--><path d="M118.969,813.8516 C118.969,791.3 118.969,768.748 118.969,746.196 " fill="none" id="&lt;b&gt;Login&lt;/b&gt;-&gt;SysAdmin" style="stroke: #000000; stroke-width: 1.0;"/><polygon fill="#000000" points="118.969,741.079,114.969,750.079,118.969,746.079,122.969,750.079,118.969,741.079" style="stroke: #000000; stroke-width: 1.0;"/><!--MD5=[2f61c8162db96c87f0d04f11932a922c]
link product.route to product.controller--><path d="M174.982,305.384 C192.023,305.193 211.027,304.98 228.919,304.779 " fill="none" id="product.route-&gt;product.controller" style="stroke: #000000; stroke-width: 0.5;"/><polygon fill="#000000" points="233.934,304.723,224.89,300.8235,228.9343,304.7787,224.9791,308.823,233.934,304.723" style="stroke: #000000; stroke-width: 0.5;"/><!--MD5=[735577409edf0f5d22a87a459b56aa1c]
link <b>server</b> to auth.route--><path d="M98.1144,484.975 C73.8023,471.983 34.8631,446.801 18.4692,412 C7.1998,388.077 4.5666,315.495 18.4692,293 C29.3406,275.41 50.1776,267.112 70.0723,263.331 " fill="none" id="&lt;b&gt;server&lt;/b&gt;-&gt;auth.route" style="stroke: #000000; stroke-width: 1.0;"/><polygon fill="#000000" points="75.1034,262.464,65.5548,260.0506,70.176,263.3132,66.9135,267.9344,75.1034,262.464" style="stroke: #000000; stroke-width: 1.0;"/><!--MD5=[dd074cf90328a5e62ceb6d362a0d96c0]
link <b>server</b> to product.model--><path d="M98.1144,484.975 C73.8023,471.983 34.8631,446.801 18.4692,412 C3.8379,380.94 0.4191,132.206 18.4692,103 C27.1498,88.955 42.1841,80.833 58.0191,76.206 " fill="none" id="&lt;b&gt;server&lt;/b&gt;-&gt;product.model" style="stroke: #000000; stroke-width: 1.0;"/><polygon fill="#000000" points="62.953,74.879,53.223,73.3533,58.1245,76.1774,55.3005,81.0789,62.953,74.879" style="stroke: #000000; stroke-width: 1.0;"/><!--MD5=[f9e8673458d70023167ec328747b878d]
link <b>server</b> to product.route--><path d="M98.1144,484.975 C73.8023,471.983 34.8631,446.801 18.4692,412 C4.4534,382.247 1.1785,365.977 18.4692,338 C27.4551,323.461 43.2496,315.269 59.6929,310.73 " fill="none" id="&lt;b&gt;server&lt;/b&gt;-&gt;product.route" style="stroke: #000000; stroke-width: 1.0;"/><polygon fill="#000000" points="64.81,309.436,55.1038,307.7656,59.9627,310.6623,57.066,315.5212,64.81,309.436" style="stroke: #000000; stroke-width: 1.0;"/><!--MD5=[fd3974dfba07cc599ac8132d14141cfc]
link <b>server</b> to supplier.model--><path d="M98.1144,484.975 C73.8023,471.983 34.8631,446.801 18.4692,412 C6.016,385.564 3.1062,173.858 18.4692,149 C27.1062,135.025 42.0331,126.915 57.7804,122.276 " fill="none" id="&lt;b&gt;server&lt;/b&gt;-&gt;supplier.model" style="stroke: #000000; stroke-width: 1.0;"/><polygon fill="#000000" points="62.6878,120.945,52.9545,119.4407,57.8622,122.254,55.0489,127.1616,62.6878,120.945" style="stroke: #000000; stroke-width: 1.0;"/><!--MD5=[301dfed6cea6eac9496c8a385bbff045]
link <b>server</b> to supplier.route--><path d="M97.7485,485.215 C61.0915,466.9 -7.7641,425.446 18.4692,383 C27.4551,368.461 43.2496,360.269 59.6929,355.73 " fill="none" id="&lt;b&gt;server&lt;/b&gt;-&gt;supplier.route" style="stroke: #000000; stroke-width: 1.0;"/><polygon fill="#000000" points="64.81,354.436,55.1038,352.7656,59.9627,355.6623,57.066,360.5212,64.81,354.436" style="stroke: #000000; stroke-width: 1.0;"/><!--MD5=[77e6726095d6b8eb23ae512ea4d9a1c0]
link <b>server</b> to user.model--><path d="M98.1144,484.975 C73.8023,471.983 34.8631,446.801 18.4692,412 C2.6541,378.427 2.6541,278.573 18.4692,245 C33.3578,213.394 66.8416,189.722 91.0762,175.91 " fill="none" id="&lt;b&gt;server&lt;/b&gt;-&gt;user.model" style="stroke: #000000; stroke-width: 1.0;"/><polygon fill="#000000" points="95.4871,173.446,85.6793,174.3441,91.1223,175.8849,89.5815,181.3279,95.4871,173.446" style="stroke: #000000; stroke-width: 1.0;"/><!--MD5=[a00417e69892b6a14458ba1de544fc44]
link <b>server</b> to user.route--><path d="M118.969,481.852 C118.969,459.3 118.969,436.748 118.969,414.196 " fill="none" id="&lt;b&gt;server&lt;/b&gt;-&gt;user.route" style="stroke: #000000; stroke-width: 1.0;"/><polygon fill="#000000" points="118.969,409.079,114.969,418.079,118.969,414.079,122.969,418.079,118.969,409.079" style="stroke: #000000; stroke-width: 1.0;"/><!--MD5=[5b9b4cf411381ce2a0e4ef98948468e9]
link supplier.route to supplier.controller--><path d="M174.982,351.616 C191.692,351.804 210.289,352.012 227.875,352.209 " fill="none" id="supplier.route-&gt;supplier.controller" style="stroke: #000000; stroke-width: 0.5;"/><polygon fill="#000000" points="233.297,352.27,224.3433,348.1674,228.2973,352.2129,224.2519,356.1669,233.297,352.27" style="stroke: #000000; stroke-width: 0.5;"/><!--MD5=[b96e56f662d1fff7db53522baa319347]
link Suppliers to SupplierService--><path d="M338.453,642.856 C366.577,645.711 405.449,649.658 437.719,652.934 " fill="none" id="Suppliers-&gt;SupplierService" style="stroke: #000000; stroke-width: 0.5;"/><polygon fill="#000000" points="442.839,653.454,434.2883,648.5666,437.8645,652.9497,433.4814,656.5258,442.839,653.454" style="stroke: #000000; stroke-width: 0.5;"/><!--MD5=[620f35b7e390eddbca628f8c4d6317af]
link SysAdmin to AuditLog--><path d="M161.82,727.766 C190.34,727.606 227.957,727.395 256.502,727.235 " fill="none" id="SysAdmin-&gt;AuditLog" style="stroke: #000000; stroke-width: 0.5;"/><polygon fill="#000000" points="261.722,727.206,252.7004,723.2549,256.7221,727.2331,252.7438,731.2548,261.722,727.206" style="stroke: #000000; stroke-width: 0.5;"/><!--MD5=[39fdbe3650af1b1524e978fa51cc3483]
link SysAdmin to Dashboard--><path d="M138.543,739.794 C157.355,752.739 185.84,775.274 201.469,802 C209.524,815.7744 198.286,825.6179 209.469,837 C219.404,847.1116 233.198,852.8503 246.964,856.0349 " fill="none" id="SysAdmin-&gt;Dashboard" style="stroke: #000000; stroke-width: 0.5;"/><polygon fill="#000000" points="252.027,857.096,244.039,851.3348,247.1333,856.0703,242.3978,859.1647,252.027,857.096" style="stroke: #000000; stroke-width: 0.5;"/><!--MD5=[f6fef00f93af8536510c81f3bc996db6]
link SysAdmin to SysInfo--><path d="M133.462,740.418 C150.112,755.088 179.867,779.236 209.469,793 C225.819,800.602 245.126,805.784 261.572,809.1991 " fill="none" id="SysAdmin-&gt;SysInfo" style="stroke: #000000; stroke-width: 0.5;"/><polygon fill="#000000" points="266.577,810.203,258.5389,804.5118,261.6746,809.2201,256.9663,812.3558,266.577,810.203" style="stroke: #000000; stroke-width: 0.5;"/><!--MD5=[6b574aad5d04663510661cfe94b7dd4d]
link user.route to user.controller--><path d="M163.179,397.21 C185.238,397.828 212.464,398.591 236.696,399.27 " fill="none" id="user.route-&gt;user.controller" style="stroke: #000000; stroke-width: 0.5;"/><polygon fill="#000000" points="241.818,399.413,232.9336,395.1625,236.82,399.273,232.7095,403.1594,241.818,399.413" style="stroke: #000000; stroke-width: 0.5;"/><script type="text/plantuml"><![CDATA[MD5=[40854df1e37d9eaaee465255b5ae9ab8]
@startuml

scale max 1920 width
left to right direction

skinparam nodesep 18
skinparam ranksep 36
skinparam monochrome true
skinparam shadowing false
skinparam defaultFontName Tahoma
skinparam defaultFontSize 12
skinparam roundCorner 6
skinparam dpi 150
skinparam arrowColor black
skinparam arrowThickness 0.5
skinparam packageTitleAlignment left

skinparam usecase {
  borderThickness 0.5
}

skinparam rectangle {
  borderThickness 0.5
}

skinparam component {
  borderThickness 1
}


package "Client" {
  (<b>Login</b>)
}

package "Roles" {
  (Admin)
  (Cashier)
  (InventoryClerk)
  (SysAdmin)
}

package "Views" {
  (AuditLog)
  (Catalog)
  (Dashboard)
  (Inventory)
  (Invoices)
  (PointOfSale)
  (Suppliers)
  (SysInfo)
  (Users)
}

package "Services" {
  rectangle "MongoCharts" as _MongoCharts
  rectangle "MongoTables" as _MongoTables
  rectangle "MongoWidgets" as _MongoWidgets
  (ProductService)
  (SupplierService)
}

package "Server" {
  (<b>server</b>)
}

package "API" {
  (auth.route)
  (product.route)
  (supplier.route)
  (user.route)
}

package "Models" {
  (product.model)
  (supplier.model)
  (user.model)
}

package "Functions" {
  (auth.controller)
  (product.controller)
  (supplier.controller)
  (user.controller)
}

(Admin) --> (AuditLog)
(Admin) --> (Dashboard)
(Admin) --> (Inventory)
(Admin) --> (Invoices)
(Admin) --> (PointOfSale)
(Admin) --> (Suppliers)
(Admin) --> (SysInfo)
(Admin) --> (Users)
(AuditLog) --> (ProductService)
(auth.route) --> (auth.controller)
(Cashier) --> (Catalog)
(Cashier) --> (PointOfSale)
(Catalog) --> (ProductService)
(Dashboard) ---> _MongoCharts
(Dashboard) ---> _MongoTables
(Dashboard) ---> _MongoWidgets
(Inventory) --> (ProductService)
(InventoryClerk) --> (AuditLog)
(InventoryClerk) --> (Inventory)
(InventoryClerk) --> (Invoices)
(InventoryClerk) --> (Suppliers)
(<b>Login</b>) -[thickness=1]> (Admin)
(<b>Login</b>) -[thickness=1]> (Cashier)
(<b>Login</b>) -[thickness=1]> (InventoryClerk)
(<b>Login</b>) -[thickness=1]> (SysAdmin)
(product.route) --> (product.controller)
(<b>server</b>) -[thickness=1]> (auth.route)
(<b>server</b>) -[thickness=1]> (product.model)
(<b>server</b>) -[thickness=1]> (product.route)
(<b>server</b>) -[thickness=1]> (supplier.model)
(<b>server</b>) -[thickness=1]> (supplier.route)
(<b>server</b>) -[thickness=1]> (user.model)
(<b>server</b>) -[thickness=1]> (user.route)
(supplier.route) --> (supplier.controller)
(Suppliers) --> (SupplierService)
(SysAdmin) --> (AuditLog)
(SysAdmin) --> (Dashboard)
(SysAdmin) --> (SysInfo)
(user.route) --> (user.controller)

@enduml


' View and edit on https://arkit.pro
]]></script></g></svg>