<svg xmlns="http://www.w3.org/2000/svg" xmlns:xlink="http://www.w3.org/1999/xlink" width="1036" height="1289" contentScriptType="application/ecmascript" contentStyleType="text/css" style="width:1036px;height:1289px" preserveAspectRatio="none" version="1.1" viewBox="0 0 1036 1289" zoomAndPan="magnify"><g><path fill="#FFF" d="M96.0571,581.585 L138.0571,581.585 A4.5,4.5 0 0 1 141.0571,584.585 L148.0571,602.0694 L186.057,602.0694 A3,3 0 0 1 189.057,605.0694 L189.057,653.585 A3,3 0 0 1 186.057,656.585 L96.0571,656.585 A3,3 0 0 1 93.0571,653.585 L93.0571,584.585 A3,3 0 0 1 96.0571,581.585" style="stroke:#000;stroke-width:1.5"/><line style="stroke:#000;stroke-width:1.5" x1="93.057" x2="148.057" y1="602.069" y2="602.069"/><text x="97.057" y="595.591" fill="#000" font-family="Tahoma, sans-serif" font-size="12" font-weight="bold" lengthAdjust="spacingAndGlyphs" textLength="42">Server</text><path fill="#FFF" d="M64.0571,279.585 L86.0571,279.585 A4.5,4.5 0 0 1 89.0571,282.585 L96.0571,300.0694 L218.057,300.0694 A3,3 0 0 1 221.057,303.0694 L221.057,554.585 A3,3 0 0 1 218.057,557.585 L64.0571,557.585 A3,3 0 0 1 61.0571,554.585 L61.0571,282.585 A3,3 0 0 1 64.0571,279.585" style="stroke:#000;stroke-width:1.5"/><line style="stroke:#000;stroke-width:1.5" x1="61.057" x2="96.057" y1="300.069" y2="300.069"/><text x="65.057" y="293.591" fill="#000" font-family="Tahoma, sans-serif" font-size="12" font-weight="bold" lengthAdjust="spacingAndGlyphs" textLength="22">API</text><path fill="#FFF" d="M61.5571,23.58 L108.5571,23.58 A4.5,4.5 0 0 1 111.5571,26.58 L118.5571,44.0644 L220.557,44.0644 A3,3 0 0 1 223.557,47.0644 L223.557,252.58 A3,3 0 0 1 220.557,255.58 L61.5571,255.58 A3,3 0 0 1 58.5571,252.58 L58.5571,26.58 A3,3 0 0 1 61.5571,23.58" style="stroke:#000;stroke-width:1.5"/><line style="stroke:#000;stroke-width:1.5" x1="58.557" x2="118.557" y1="44.064" y2="44.064"/><text x="62.557" y="37.586" fill="#000" font-family="Tahoma, sans-serif" font-size="12" font-weight="bold" lengthAdjust="spacingAndGlyphs" textLength="47">Models</text><path fill="#FFF" d="M250.557,271.585 L315.557,271.585 A4.5,4.5 0 0 1 318.557,274.585 L325.557,292.0694 L425.557,292.0694 A3,3 0 0 1 428.557,295.0694 L428.557,563.585 A3,3 0 0 1 425.557,566.585 L250.557,566.585 A3,3 0 0 1 247.557,563.585 L247.557,274.585 A3,3 0 0 1 250.557,271.585" style="stroke:#000;stroke-width:1.5"/><line style="stroke:#000;stroke-width:1.5" x1="247.557" x2="325.557" y1="292.069" y2="292.069"/><text x="251.557" y="285.591" fill="#000" font-family="Tahoma, sans-serif" font-size="12" font-weight="bold" lengthAdjust="spacingAndGlyphs" textLength="65">Functions</text><path fill="#FFF" d="M99.5571,680.585 L137.5571,680.585 A4.5,4.5 0 0 1 140.5571,683.585 L147.5571,701.0694 L182.557,701.0694 A3,3 0 0 1 185.557,704.0694 L185.557,752.585 A3,3 0 0 1 182.557,755.585 L99.5571,755.585 A3,3 0 0 1 96.5571,752.585 L96.5571,683.585 A3,3 0 0 1 99.5571,680.585" style="stroke:#000;stroke-width:1.5"/><line style="stroke:#000;stroke-width:1.5" x1="96.557" x2="147.557" y1="701.069" y2="701.069"/><text x="100.557" y="694.591" fill="#000" font-family="Tahoma, sans-serif" font-size="12" font-weight="bold" lengthAdjust="spacingAndGlyphs" textLength="38">Client</text><path fill="#FFF" d="M70.5571,779.585 L152.5571,779.585 A4.5,4.5 0 0 1 155.5571,782.585 L162.5571,800.0694 L211.557,800.0694 A3,3 0 0 1 214.557,803.0694 L214.557,1000.585 A3,3 0 0 1 211.557,1003.585 L70.5571,1003.585 A3,3 0 0 1 67.5571,1000.585 L67.5571,782.585 A3,3 0 0 1 70.5571,779.585" style="stroke:#000;stroke-width:1.5"/><line style="stroke:#000;stroke-width:1.5" x1="67.557" x2="162.557" y1="800.069" y2="800.069"/><text x="71.557" y="793.591" fill="#000" font-family="Tahoma, sans-serif" font-size="12" font-weight="bold" lengthAdjust="spacingAndGlyphs" textLength="82">Permissions</text><path fill="#FFF" d="M270.057,657.585 L310.057,657.585 A4.5,4.5 0 0 1 313.057,660.585 L320.057,678.0694 L406.057,678.0694 A3,3 0 0 1 409.057,681.0694 L409.057,1123.585 A3,3 0 0 1 406.057,1126.585 L270.057,1126.585 A3,3 0 0 1 267.057,1123.585 L267.057,660.585 A3,3 0 0 1 270.057,657.585" style="stroke:#000;stroke-width:1.5"/><line style="stroke:#000;stroke-width:1.5" x1="267.057" x2="320.057" y1="678.069" y2="678.069"/><text x="271.057" y="671.591" fill="#000" font-family="Tahoma, sans-serif" font-size="12" font-weight="bold" lengthAdjust="spacingAndGlyphs" textLength="40">Pages</text><path fill="#FFF" d="M492.557,541.585 L564.557,541.585 A4.5,4.5 0 0 1 567.557,544.585 L574.557,562.0694 L827.557,562.0694 A3,3 0 0 1 830.557,565.0694 L830.557,1181.5849 A3,3 0 0 1 827.557,1184.5849 L492.557,1184.5849 A3,3 0 0 1 489.557,1181.5849 L489.557,544.585 A3,3 0 0 1 492.557,541.585" style="stroke:#000;stroke-width:1.5"/><line style="stroke:#000;stroke-width:1.5" x1="489.557" x2="574.557" y1="562.069" y2="562.069"/><text x="493.557" y="555.591" fill="#000" font-family="Tahoma, sans-serif" font-size="12" font-weight="bold" lengthAdjust="spacingAndGlyphs" textLength="72">Containers</text><path fill="#FFF" d="M857.557,903.585 L914.557,903.585 A4.5,4.5 0 0 1 917.557,906.585 L924.557,924.0694 L1021.56,924.0694 A3,3 0 0 1 1024.56,927.0694 L1024.56,1232.5849 A3,3 0 0 1 1021.56,1235.5849 L857.557,1235.5849 A3,3 0 0 1 854.557,1232.5849 L854.557,906.585 A3,3 0 0 1 857.557,903.585" style="stroke:#000;stroke-width:1.5"/><line style="stroke:#000;stroke-width:1.5" x1="854.557" x2="924.557" y1="924.069" y2="924.069"/><text x="858.557" y="917.591" fill="#000" font-family="Tahoma, sans-serif" font-size="12" font-weight="bold" lengthAdjust="spacingAndGlyphs" textLength="57">Services</text><ellipse cx="141.048" cy="627.827" fill="#F8F8F8" rx="31.991" ry="13.242" style="stroke:#383838;stroke-width:.5"/><text x="120.548" y="631.569" fill="#000" font-family="Tahoma, sans-serif" font-size="12" font-weight="bold" lengthAdjust="spacingAndGlyphs" textLength="41">server</text><ellipse cx="141.069" cy="325.827" fill="#F8F8F8" rx="44.012" ry="13.242" style="stroke:#383838;stroke-width:.5"/><text x="112.069" y="329.569" fill="#000" font-family="Tahoma, sans-serif" font-size="12" lengthAdjust="spacingAndGlyphs" textLength="58">auth.route</text><ellipse cx="140.91" cy="375.656" fill="#F8F8F8" rx="55.853" ry="13.571" style="stroke:#383838;stroke-width:.5"/><text x="102.41" y="379.398" fill="#000" font-family="Tahoma, sans-serif" font-size="12" lengthAdjust="spacingAndGlyphs" textLength="77">product.route</text><ellipse cx="141.276" cy="425.729" fill="#F8F8F8" rx="56.219" ry="13.644" style="stroke:#383838;stroke-width:.5"/><text x="102.276" y="429.471" fill="#000" font-family="Tahoma, sans-serif" font-size="12" lengthAdjust="spacingAndGlyphs" textLength="78">supplier.route</text><ellipse cx="140.985" cy="477.771" fill="#F8F8F8" rx="63.928" ry="15.186" style="stroke:#383838;stroke-width:.5"/><text x="91.985" y="481.513" fill="#000" font-family="Tahoma, sans-serif" font-size="12" lengthAdjust="spacingAndGlyphs" textLength="98">transaction.route</text><ellipse cx="141.069" cy="528.827" fill="#F8F8F8" rx="44.012" ry="13.242" style="stroke:#383838;stroke-width:.5"/><text x="112.069" y="532.569" fill="#000" font-family="Tahoma, sans-serif" font-size="12" lengthAdjust="spacingAndGlyphs" textLength="58">user.route</text><ellipse cx="141.134" cy="119.595" fill="#F8F8F8" rx="58.077" ry="14.015" style="stroke:#383838;stroke-width:.5"/><text x="99.634" y="123.338" fill="#000" font-family="Tahoma, sans-serif" font-size="12" lengthAdjust="spacingAndGlyphs" textLength="83">product.model</text><ellipse cx="141.012" cy="170.671" fill="#F8F8F8" rx="58.455" ry="14.091" style="stroke:#383838;stroke-width:.5"/><text x="99.012" y="174.413" fill="#000" font-family="Tahoma, sans-serif" font-size="12" lengthAdjust="spacingAndGlyphs" textLength="84">supplier.model</text><ellipse cx="140.923" cy="223.753" fill="#F8F8F8" rx="66.366" ry="15.673" style="stroke:#383838;stroke-width:.5"/><text x="88.923" y="227.495" fill="#000" font-family="Tahoma, sans-serif" font-size="12" lengthAdjust="spacingAndGlyphs" textLength="104">transaction.model</text><ellipse cx="140.812" cy="69.822" fill="#F8F8F8" rx="48.255" ry="13.242" style="stroke:#383838;stroke-width:.5"/><text x="108.812" y="73.564" fill="#000" font-family="Tahoma, sans-serif" font-size="12" lengthAdjust="spacingAndGlyphs" textLength="64">user.model</text><ellipse cx="338.134" cy="318.6" fill="#F8F8F8" rx="58.077" ry="14.015" style="stroke:#383838;stroke-width:.5"/><text x="296.634" y="322.343" fill="#000" font-family="Tahoma, sans-serif" font-size="12" lengthAdjust="spacingAndGlyphs" textLength="83">auth.controller</text><ellipse cx="338.105" cy="371.595" fill="#F8F8F8" rx="65.548" ry="15.51" style="stroke:#383838;stroke-width:.5"/><text x="287.105" y="375.337" fill="#000" font-family="Tahoma, sans-serif" font-size="12" lengthAdjust="spacingAndGlyphs" textLength="102">product.controller</text><ellipse cx="338.013" cy="425.676" fill="#F8F8F8" rx="65.956" ry="15.591" style="stroke:#383838;stroke-width:.5"/><text x="286.513" y="429.418" fill="#000" font-family="Tahoma, sans-serif" font-size="12" lengthAdjust="spacingAndGlyphs" textLength="103">supplier.controller</text><ellipse cx="337.926" cy="481.359" fill="#F8F8F8" rx="74.369" ry="17.274" style="stroke:#383838;stroke-width:.5"/><text x="276.426" y="485.101" fill="#000" font-family="Tahoma, sans-serif" font-size="12" lengthAdjust="spacingAndGlyphs" textLength="123">transaction.controller</text><ellipse cx="338.134" cy="536.6" fill="#F8F8F8" rx="58.077" ry="14.015" style="stroke:#383838;stroke-width:.5"/><text x="296.634" y="540.343" fill="#000" font-family="Tahoma, sans-serif" font-size="12" lengthAdjust="spacingAndGlyphs" textLength="83">user.controller</text><ellipse cx="141.013" cy="726.827" fill="#F8F8F8" rx="28.456" ry="13.242" style="stroke:#383838;stroke-width:.5"/><text x="123.013" y="730.569" fill="#000" font-family="Tahoma, sans-serif" font-size="12" font-weight="bold" lengthAdjust="spacingAndGlyphs" textLength="36">Login</text><ellipse cx="141.306" cy="925.827" fill="#F8F8F8" rx="27.749" ry="13.242" style="stroke:#383838;stroke-width:.5"/><text x="123.806" y="929.569" fill="#000" font-family="Tahoma, sans-serif" font-size="12" lengthAdjust="spacingAndGlyphs" textLength="35">Admin</text><ellipse cx="140.963" cy="825.827" fill="#F8F8F8" rx="33.406" ry="13.242" style="stroke:#383838;stroke-width:.5"/><text x="119.463" y="829.569" fill="#000" font-family="Tahoma, sans-serif" font-size="12" lengthAdjust="spacingAndGlyphs" textLength="43">Cashier</text><ellipse cx="141.258" cy="875.525" fill="#F8F8F8" rx="57.701" ry="13.94" style="stroke:#383838;stroke-width:.5"/><text x="100.258" y="879.267" fill="#000" font-family="Tahoma, sans-serif" font-size="12" lengthAdjust="spacingAndGlyphs" textLength="82">InventoryClerk</text><ellipse cx="141.155" cy="974.827" fill="#F8F8F8" rx="42.598" ry="13.242" style="stroke:#383838;stroke-width:.5"/><text x="113.155" y="978.569" fill="#000" font-family="Tahoma, sans-serif" font-size="12" lengthAdjust="spacingAndGlyphs" textLength="56">SysAdmin</text><ellipse cx="338.17" cy="703.827" fill="#F8F8F8" rx="34.113" ry="13.242" style="stroke:#383838;stroke-width:.5"/><text x="316.17" y="707.569" fill="#000" font-family="Tahoma, sans-serif" font-size="12" lengthAdjust="spacingAndGlyphs" textLength="44">Catalog</text><ellipse cx="338.105" cy="1097.827" fill="#F8F8F8" rx="47.548" ry="13.242" style="stroke:#383838;stroke-width:.5"/><text x="306.605" y="1101.569" fill="#000" font-family="Tahoma, sans-serif" font-size="12" lengthAdjust="spacingAndGlyphs" textLength="63">Dashboard</text><ellipse cx="338.241" cy="801.827" fill="#F8F8F8" rx="41.184" ry="13.242" style="stroke:#383838;stroke-width:.5"/><text x="311.241" y="805.569" fill="#000" font-family="Tahoma, sans-serif" font-size="12" lengthAdjust="spacingAndGlyphs" textLength="54">Inventory</text><ellipse cx="338.14" cy="752.827" fill="#F8F8F8" rx="51.083" ry="13.242" style="stroke:#383838;stroke-width:.5"/><text x="304.14" y="756.569" fill="#000" font-family="Tahoma, sans-serif" font-size="12" lengthAdjust="spacingAndGlyphs" textLength="68">PointOfSale</text><ellipse cx="338.134" cy="899.827" fill="#F8F8F8" rx="30.577" ry="13.242" style="stroke:#383838;stroke-width:.5"/><text x="318.634" y="903.569" fill="#000" font-family="Tahoma, sans-serif" font-size="12" lengthAdjust="spacingAndGlyphs" textLength="39">Recent</text><ellipse cx="338.034" cy="850.827" fill="#F8F8F8" rx="40.477" ry="13.242" style="stroke:#383838;stroke-width:.5"/><text x="311.534" y="854.569" fill="#000" font-family="Tahoma, sans-serif" font-size="12" lengthAdjust="spacingAndGlyphs" textLength="53">Suppliers</text><ellipse cx="337.877" cy="1048.827" fill="#F8F8F8" rx="34.82" ry="13.242" style="stroke:#383838;stroke-width:.5"/><text x="315.377" y="1052.569" fill="#000" font-family="Tahoma, sans-serif" font-size="12" lengthAdjust="spacingAndGlyphs" textLength="45">SysInfo</text><ellipse cx="338.187" cy="949.511" fill="#F8F8F8" rx="55.13" ry="13.426" style="stroke:#383838;stroke-width:.5"/><text x="300.687" y="953.253" fill="#000" font-family="Tahoma, sans-serif" font-size="12" lengthAdjust="spacingAndGlyphs" textLength="75">Transactions</text><ellipse cx="337.892" cy="999.827" fill="#F8F8F8" rx="26.334" ry="13.242" style="stroke:#383838;stroke-width:.5"/><text x="321.392" y="1003.569" fill="#000" font-family="Tahoma, sans-serif" font-size="12" lengthAdjust="spacingAndGlyphs" textLength="33">Users</text><ellipse cx="576.047" cy="1154.583" fill="#F8F8F8" rx="55.49" ry="13.498" style="stroke:#383838;stroke-width:.5"/><text x="538.047" y="1158.325" fill="#000" font-family="Tahoma, sans-serif" font-size="12" lengthAdjust="spacingAndGlyphs" textLength="76">Development</text><ellipse cx="576.042" cy="638.482" fill="#F8F8F8" rx="59.984" ry="14.397" style="stroke:#383838;stroke-width:.5"/><text x="532.042" y="642.224" fill="#000" font-family="Tahoma, sans-serif" font-size="12" lengthAdjust="spacingAndGlyphs" textLength="88">ProductCatalog</text><ellipse cx="575.985" cy="691.771" fill="#F8F8F8" rx="63.928" ry="15.186" style="stroke:#383838;stroke-width:.5"/><text x="526.985" y="695.513" fill="#000" font-family="Tahoma, sans-serif" font-size="12" lengthAdjust="spacingAndGlyphs" textLength="98">ProductInventory</text><rect style="stroke:#000;stroke-width:.5" width="98" height="34.484" x="704.557" y="574.585" fill="#F8F8F8" rx="3" ry="3"/><text x="714.557" y="596.591" fill="#000" font-family="Tahoma, sans-serif" font-size="12" lengthAdjust="spacingAndGlyphs" textLength="78">ProductModal</text><ellipse cx="575.817" cy="744.637" fill="#F8F8F8" rx="60.76" ry="14.552" style="stroke:#383838;stroke-width:.5"/><text x="530.817" y="748.379" fill="#000" font-family="Tahoma, sans-serif" font-size="12" lengthAdjust="spacingAndGlyphs" textLength="90">RecentProducts</text><ellipse cx="576.1" cy="846.793" fill="#F8F8F8" rx="61.543" ry="14.709" style="stroke:#383838;stroke-width:.5"/><text x="530.1" y="850.536" fill="#000" font-family="Tahoma, sans-serif" font-size="12" lengthAdjust="spacingAndGlyphs" textLength="92">RecentSuppliers</text><ellipse cx="576.087" cy="900.591" fill="#F8F8F8" rx="70.529" ry="16.506" style="stroke:#383838;stroke-width:.5"/><text x="519.087" y="904.333" fill="#000" font-family="Tahoma, sans-serif" font-size="12" lengthAdjust="spacingAndGlyphs" textLength="114">RecentTransactions</text><ellipse cx="575.969" cy="1006.827" fill="#F8F8F8" rx="53.912" ry="13.242" style="stroke:#383838;stroke-width:.5"/><text x="539.969" y="1010.569" fill="#000" font-family="Tahoma, sans-serif" font-size="12" lengthAdjust="spacingAndGlyphs" textLength="72">RecentUsers</text><ellipse cx="575.877" cy="1104.827" fill="#F8F8F8" rx="34.82" ry="13.242" style="stroke:#383838;stroke-width:.5"/><text x="553.377" y="1108.569" fill="#000" font-family="Tahoma, sans-serif" font-size="12" lengthAdjust="spacingAndGlyphs" textLength="45">Release</text><ellipse cx="576.22" cy="587.827" fill="#F8F8F8" rx="29.163" ry="13.242" style="stroke:#383838;stroke-width:.5"/><text x="557.72" y="591.569" fill="#000" font-family="Tahoma, sans-serif" font-size="12" lengthAdjust="spacingAndGlyphs" textLength="37">Status</text><rect style="stroke:#000;stroke-width:.5" width="100" height="34.484" x="703.557" y="631.585" fill="#F8F8F8" rx="3" ry="3"/><text x="713.557" y="653.591" fill="#000" font-family="Tahoma, sans-serif" font-size="12" lengthAdjust="spacingAndGlyphs" textLength="80">SupplierModal</text><ellipse cx="576.143" cy="795.802" fill="#F8F8F8" rx="56.586" ry="13.717" style="stroke:#383838;stroke-width:.5"/><text x="536.643" y="799.544" fill="#000" font-family="Tahoma, sans-serif" font-size="12" lengthAdjust="spacingAndGlyphs" textLength="79">SuppliersCard</text><rect style="stroke:#000;stroke-width:.5" width="122" height="34.484" x="692.557" y="688.585" fill="#F8F8F8" rx="3" ry="3"/><text x="702.557" y="710.591" fill="#000" font-family="Tahoma, sans-serif" font-size="12" lengthAdjust="spacingAndGlyphs" textLength="102">TransactionModal</text><ellipse cx="576.285" cy="955.531" fill="#F8F8F8" rx="62.728" ry="14.946" style="stroke:#383838;stroke-width:.5"/><text x="528.785" y="959.273" fill="#000" font-family="Tahoma, sans-serif" font-size="12" lengthAdjust="spacingAndGlyphs" textLength="95">TransactionsList</text><rect style="stroke:#000;stroke-width:.5" width="80" height="34.484" x="713.557" y="745.585" fill="#F8F8F8" rx="3" ry="3"/><text x="723.557" y="767.591" fill="#000" font-family="Tahoma, sans-serif" font-size="12" lengthAdjust="spacingAndGlyphs" textLength="60">UserModal</text><ellipse cx="576.034" cy="1055.827" fill="#F8F8F8" rx="40.477" ry="13.242" style="stroke:#383838;stroke-width:.5"/><text x="549.534" y="1059.569" fill="#000" font-family="Tahoma, sans-serif" font-size="12" lengthAdjust="spacingAndGlyphs" textLength="53">UsersList</text><ellipse cx="939.327" cy="1206.827" fill="#F8F8F8" rx="39.77" ry="13.242" style="stroke:#383838;stroke-width:.5"/><text x="913.327" y="1210.569" fill="#000" font-family="Tahoma, sans-serif" font-size="12" lengthAdjust="spacingAndGlyphs" textLength="52">Commits</text><ellipse cx="939.773" cy="950.828" fill="#F8F8F8" rx="59.216" ry="14.243" style="stroke:#383838;stroke-width:.5"/><text x="896.773" y="954.57" fill="#000" font-family="Tahoma, sans-serif" font-size="12" lengthAdjust="spacingAndGlyphs" textLength="86">ProductService</text><ellipse cx="939.327" cy="1157.827" fill="#F8F8F8" rx="39.77" ry="13.242" style="stroke:#383838;stroke-width:.5"/><text x="913.327" y="1161.569" fill="#000" font-family="Tahoma, sans-serif" font-size="12" lengthAdjust="spacingAndGlyphs" textLength="52">Releases</text><ellipse cx="939.542" cy="1002.482" fill="#F8F8F8" rx="59.984" ry="14.397" style="stroke:#383838;stroke-width:.5"/><text x="895.542" y="1006.224" fill="#000" font-family="Tahoma, sans-serif" font-size="12" lengthAdjust="spacingAndGlyphs" textLength="88">SupplierService</text><ellipse cx="939.407" cy="1056.755" fill="#F8F8F8" rx="68.85" ry="16.17" style="stroke:#383838;stroke-width:.5"/><text x="884.407" y="1060.497" fill="#000" font-family="Tahoma, sans-serif" font-size="12" lengthAdjust="spacingAndGlyphs" textLength="110">TransactionService</text><ellipse cx="939.64" cy="1108.827" fill="#F8F8F8" rx="51.083" ry="13.242" style="stroke:#383838;stroke-width:.5"/><text x="905.64" y="1112.569" fill="#000" font-family="Tahoma, sans-serif" font-size="12" lengthAdjust="spacingAndGlyphs" textLength="68">UserService</text><path id="Admin-&gt;Dashboard" fill="none" d="M168.789,925.307 C189.322,926.66 216.614,932.169 231.557,950.585 C248.816,971.854 221.97,1052.586 239.557,1073.585 C250.766,1086.968 268.124,1093.553 285.107,1096.611" style="stroke:#000;stroke-width:.5"/><polygon fill="#000" points="290.358 1097.451 282.103 1092.079 285.421 1096.661 280.839 1099.979 290.358 1097.451" style="stroke:#000;stroke-width:.5"/><path id="Admin-&gt;Inventory" fill="none" d="M168.557,926.011 C188.958,924.802 216.187,919.557 231.557,901.585 C253.345,876.109 217.629,851.941 239.557,826.585 C252.409,811.724 272.777,805.095 291.582,802.333" style="stroke:#000;stroke-width:.5"/><polygon fill="#000" points="296.837 801.653 287.397 798.843 291.878 802.296 288.426 806.777 296.837 801.653" style="stroke:#000;stroke-width:.5"/><path id="Admin-&gt;PointOfSale" fill="none" d="M168.763,926.184 C189.281,925.073 216.566,919.874 231.557,901.585 C249.061,880.229 221.936,798.844 239.557,777.585 C250.068,764.905 266.054,758.173 282.061,754.728" style="stroke:#000;stroke-width:.5"/><polygon fill="#000" points="287.023 753.761 277.424 751.558 282.115 754.718 278.955 759.41 287.023 753.761" style="stroke:#000;stroke-width:.5"/><path id="Admin-&gt;Recent" fill="none" d="M167.952,922.132 C202.951,917.466 265.387,909.141 303.815,904.017" style="stroke:#000;stroke-width:.5"/><polygon fill="#000" points="308.842 903.347 299.392 900.573 303.886 904.009 300.45 908.503 308.842 903.347" style="stroke:#000;stroke-width:.5"/><path id="Admin-&gt;Suppliers" fill="none" d="M168.884,925.056 C188.647,923.248 214.88,917.664 231.557,901.585 C240.261,893.193 230.807,883.929 239.557,875.585 C253.66,862.137 273.977,855.661 292.419,852.635" style="stroke:#000;stroke-width:.5"/><polygon fill="#000" points="297.564 851.87 288.074 849.235 292.618 852.604 289.249 857.148 297.564 851.87" style="stroke:#000;stroke-width:.5"/><path id="Admin-&gt;SysInfo" fill="none" d="M168.577,925.482 C188.989,926.935 216.224,932.493 231.557,950.585 C252.945,975.821 217.78,999.683 239.557,1024.585 C253.839,1040.916 277.278,1047.041 297.595,1049.023" style="stroke:#000;stroke-width:.5"/><polygon fill="#000" points="302.685 1049.441 294.042 1044.719 297.702 1049.033 293.388 1052.692 302.685 1049.441" style="stroke:#000;stroke-width:.5"/><path id="Admin-&gt;Transactions" fill="none" d="M167.952,928.772 C197.3,932.384 245.939,938.37 283.539,942.998" style="stroke:#000;stroke-width:.5"/><polygon fill="#000" points="288.534 943.613 280.091 938.543 283.572 943.002 279.112 946.482 288.534 943.613" style="stroke:#000;stroke-width:.5"/><path id="Admin-&gt;Users" fill="none" d="M168.797,926.556 C188.515,928.66 214.73,934.568 231.557,950.585 C239.701,958.337 231.33,966.921 239.557,974.585 C257.473,991.276 284.988,997.185 306.225,999.115" style="stroke:#000;stroke-width:.5"/><polygon fill="#000" points="311.48 999.524 302.818 994.837 306.495 999.135 302.196 1002.812 311.48 999.524" style="stroke:#000;stroke-width:.5"/><path id="auth.route-&gt;auth.controller" fill="none" d="M184.851,324.049 C211.452,323.094 246.086,321.85 275.595,320.791" style="stroke:#000;stroke-width:.5"/><polygon fill="#000" points="280.662 320.609 271.525 316.933 275.665 320.788 271.811 324.928 280.662 320.609" style="stroke:#000;stroke-width:.5"/><path id="Cashier-&gt;Catalog" fill="none" d="M160.82,814.792 C181.015,802.268 212.762,779.813 231.557,752.585 C237.944,743.332 231.33,736.249 239.557,728.585 C255.469,713.76 278.953,707.441 298.886,704.861" style="stroke:#000;stroke-width:.5"/><polygon fill="#000" points="303.87 704.283 294.469 701.346 298.903 704.859 295.39 709.293 303.87 704.283" style="stroke:#000;stroke-width:.5"/><path id="Cashier-&gt;PointOfSale" fill="none" d="M160.602,815.014 C179.849,804.39 211.067,788.122 239.557,777.585 C256.49,771.323 275.635,766.043 292.449,761.973" style="stroke:#000;stroke-width:.5"/><polygon fill="#000" points="297.587 760.749 287.905 758.943 292.723 761.908 289.759 766.725 297.587 760.749" style="stroke:#000;stroke-width:.5"/><path id="Catalog-&gt;ProductCatalog" fill="none" d="M366.129,696.129 C406.396,685.038 482.505,664.076 530.903,650.746" style="stroke:#000;stroke-width:.5"/><polygon fill="#000" points="535.788 649.4 526.049 647.935 530.968 650.729 528.174 655.648 535.788 649.4" style="stroke:#000;stroke-width:.5"/><path id="Development-&gt;Commits" fill="none" d="M586.998,1167.951 C605.016,1190.9141 645.585,1237.0759 692.557,1254.5849 C753.359,1277.249 775.286,1268.9835 838.557,1254.5849 C866.773,1248.1637 896.319,1232.7428 915.912,1221.0997" style="stroke:#000;stroke-width:.5"/><polygon fill="#000" points="920.672 1218.229 910.899 1219.453 916.391 1220.811 915.032 1226.303 920.672 1218.229" style="stroke:#000;stroke-width:.5"/><path id="Inventory-&gt;ProductInventory" fill="none" d="M378.035,798.093 C396.921,794.944 419.208,788.958 436.557,777.585 C464.138,759.504 454.342,737.211 481.557,718.585 C492.512,711.087 505.55,705.649 518.361,701.711" style="stroke:#000;stroke-width:.5"/><polygon fill="#000" points="523.445 700.221 513.683 698.915 518.647 701.628 515.934 706.592 523.445 700.221" style="stroke:#000;stroke-width:.5"/><path id="InventoryClerk-&gt;Inventory" fill="none" d="M194.281,869.936 C207.797,866.249 221.39,860.262 231.557,850.585 C239.701,842.833 231.33,834.249 239.557,826.585 C253.698,813.41 273.819,806.953 292.114,803.868" style="stroke:#000;stroke-width:.5"/><polygon fill="#000" points="297.219 803.085 287.716 800.496 292.277 803.843 288.93 808.404 297.219 803.085" style="stroke:#000;stroke-width:.5"/><path id="InventoryClerk-&gt;Recent" fill="none" d="M192.782,881.828 C227.665,886.121 273.016,891.703 303.481,895.452" style="stroke:#000;stroke-width:.5"/><polygon fill="#000" points="308.614 896.084 300.171 891.014 303.651 895.473 299.192 898.953 308.614 896.084" style="stroke:#000;stroke-width:.5"/><path id="InventoryClerk-&gt;Suppliers" fill="none" d="M192.274,869.147 C224.17,865.058 264.973,859.826 295.129,855.96" style="stroke:#000;stroke-width:.5"/><polygon fill="#000" points="300.252 855.303 290.816 852.48 295.293 855.939 291.834 860.415 300.252 855.303" style="stroke:#000;stroke-width:.5"/><path id="InventoryClerk-&gt;Transactions" fill="none" d="M193.293,881.685 C207.113,885.507 221.113,891.67 231.557,901.585 C239.406,909.036 231.591,917.259 239.557,924.585 C250.709,934.84 265.49,941.016 280.163,944.7" style="stroke:#000;stroke-width:.5"/><polygon fill="#000" points="285.13 945.857 277.272 939.92 280.26 944.723 275.457 947.711 285.13 945.857" style="stroke:#000;stroke-width:.5"/><path id="&lt;b&gt;Login&lt;/b&gt;-&gt;Admin" fill="none" d="M119.487,735.282 C92.2808,747.577 46.7408,772.886 27.5571,811.085 C11.7995,842.461 9.0981,860.218 27.5571,890.085 C44.0421,916.758 80.9147,924.278 108.182,925.982" style="stroke:#000;stroke-width:1"/><polygon fill="#000" points="113.499 926.249 104.712 921.802 108.505 925.998 104.309 929.791 113.499 926.249" style="stroke:#000;stroke-width:1"/><path id="&lt;b&gt;Login&lt;/b&gt;-&gt;Cashier" fill="none" d="M141.057,739.664 C141.057,762.216 141.057,784.768 141.057,807.32" style="stroke:#000;stroke-width:1"/><polygon fill="#000" points="141.057 812.436 145.057 803.436 141.057 807.436 137.057 803.436 141.057 812.436" style="stroke:#000;stroke-width:1"/><path id="&lt;b&gt;Login&lt;/b&gt;-&gt;InventoryClerk" fill="none" d="M119.33,735.128 C79.0315,752.301 -0.7399,793.299 27.5571,839.085 C38.7396,857.179 59.233,866.627 79.7604,871.456" style="stroke:#000;stroke-width:1"/><polygon fill="#000" points="84.693 872.531 76.751 866.707 79.808 871.467 75.048 874.524 84.693 872.531" style="stroke:#000;stroke-width:1"/><path id="&lt;b&gt;Login&lt;/b&gt;-&gt;Status" fill="none" d="M159.534,716.434 C178.676,705.646 210.524,688.647 239.557,677.585 C348.415,636.106 484.017,605.981 544.021,593.692" style="stroke:#000;stroke-width:1"/><polygon fill="#000" points="549.245 592.628 539.628 590.503 544.345 593.625 541.223 598.342 549.245 592.628" style="stroke:#000;stroke-width:1"/><path id="&lt;b&gt;Login&lt;/b&gt;-&gt;SysAdmin" fill="none" d="M119.487,735.282 C92.2808,747.577 46.7408,772.886 27.5571,811.085 C2.0257,861.923 -2.3512,890.692 27.5571,939.085 C41.1867,961.138 68.7528,970.098 93.3044,973.503" style="stroke:#000;stroke-width:1"/><polygon fill="#000" points="98.492 974.149 90.054 969.069 93.53 973.532 89.067 977.008 98.492 974.149" style="stroke:#000;stroke-width:1"/><path id="product.route-&gt;product.controller" fill="none" d="M196.894,374.46 C218.783,374.011 244.244,373.489 267.414,373.013" style="stroke:#000;stroke-width:.5"/><polygon fill="#000" points="272.629 372.906 263.55 369.089 267.63 373.007 263.712 377.088 272.629 372.906" style="stroke:#000;stroke-width:.5"/><path id="ProductCatalog-&gt;ProductService" fill="none" d="M619.8,648.686 C629.567,652.642 639.219,658.095 646.557,665.585 C688.277,708.169 649.981,749.856 692.557,791.585 C741.541,839.595 781.155,804.043 838.557,841.585 C876.191,866.198 909.127,908.136 926.185,932.183" style="stroke:#000;stroke-width:.5"/><polygon fill="#000" points="929.182 936.457 927.289 926.792 926.311 932.363 920.739 931.385 929.182 936.457" style="stroke:#000;stroke-width:.5"/><path id="ProductInventory-&gt;_ProductModal" fill="none" d="M615.512,679.727 C625.987,675.688 637.057,670.632 646.557,664.585 C670.423,649.393 669.315,636.715 692.557,620.585 C697.458,617.184 702.819,613.976 708.255,611.022" style="stroke:#000;stroke-width:.5;stroke-dasharray:7,7"/><polygon fill="#000" points="712.831 608.601 703.005 609.274 708.412 610.939 706.746 616.346 712.831 608.601" style="stroke:#000;stroke-width:.5"/><path id="ProductInventory-&gt;ProductService" fill="none" d="M621.057,702.472 C630.335,706.366 639.453,711.594 646.557,718.585 C685.206,756.618 653.714,793.751 692.557,831.585 C742.229,879.966 776.573,855.504 838.557,886.585 C866.308,900.5 896.018,920.194 915.777,934.05" style="stroke:#000;stroke-width:.5"/><polygon fill="#000" points="920.084 937.089 915.036 928.632 915.999 934.206 910.424 935.169 920.084 937.089" style="stroke:#000;stroke-width:.5"/><path id="Recent-&gt;RecentProducts" fill="none" d="M368.612,899.074 C389.748,897.233 417.682,891.6 436.557,875.585 C475.271,842.736 443.338,804.008 481.557,770.585 C491.298,762.066 503.61,756.319 516.074,752.446" style="stroke:#000;stroke-width:.5"/><polygon fill="#000" points="521.039 751.001 511.28 749.675 516.238 752.398 513.515 757.356 521.039 751.001" style="stroke:#000;stroke-width:.5"/><path id="Recent-&gt;RecentSuppliers" fill="none" d="M365.671,893.608 C404.48,884.892 477.271,868.545 525.964,857.61" style="stroke:#000;stroke-width:.5"/><polygon fill="#000" points="530.893 856.503 521.235 854.572 526.014 857.599 522.988 862.378 530.893 856.503" style="stroke:#000;stroke-width:.5"/><path id="Recent-&gt;RecentTransactions" fill="none" d="M368.947,899.712 C401.79,899.851 455.79,900.079 500.279,900.268" style="stroke:#000;stroke-width:.5"/><polygon fill="#000" points="505.379 900.29 496.395 896.254 500.379 900.27 496.363 904.254 505.379 900.29" style="stroke:#000;stroke-width:.5"/><path id="Recent-&gt;RecentUsers" fill="none" d="M368.375,902.062 C388.864,904.94 416.106,911.158 436.557,924.585 C463.831,942.492 454.286,964.675 481.557,982.585 C493.659,990.533 508.241,995.849 522.25,999.406" style="stroke:#000;stroke-width:.5"/><polygon fill="#000" points="527.38 1000.638 519.564 994.646 522.518 999.47 517.694 1002.424 527.38 1000.638" style="stroke:#000;stroke-width:.5"/><path id="RecentProducts-&gt;_ProductModal" fill="none" d="M620.057,734.38 C629.593,730.602 639.076,725.484 646.557,718.585 C681.927,685.966 658.728,654.8 692.557,620.585 C695.902,617.201 699.721,614.157 703.775,611.429" style="stroke:#000;stroke-width:.5;stroke-dasharray:7,7"/><polygon fill="#000" points="708.255 608.593 698.511 610.03 704.031 611.269 702.792 616.788 708.255 608.593" style="stroke:#000;stroke-width:.5"/><path id="RecentProducts-&gt;ProductService" fill="none" d="M620.238,754.598 C629.767,758.382 639.202,763.551 646.557,770.585 C684.263,806.643 653.556,843.931 692.557,878.585 C721.435,904.243 824.292,928.216 887.5,940.987" style="stroke:#000;stroke-width:.5"/><polygon fill="#000" points="892.734 942.037 884.696 936.346 887.832 941.054 883.123 944.189 892.734 942.037" style="stroke:#000;stroke-width:.5"/><path id="RecentSuppliers-&gt;_SupplierModal" fill="none" d="M621.432,836.752 C630.692,832.973 639.709,827.761 646.557,820.585 C692.649,772.286 648.741,727.958 692.557,677.585 C695.45,674.26 698.81,671.282 702.434,668.622" style="stroke:#000;stroke-width:.5;stroke-dasharray:7,7"/><polygon fill="#000" points="706.799 665.643 697.11 667.412 702.669 668.462 701.62 674.02 706.799 665.643" style="stroke:#000;stroke-width:.5"/><path id="RecentSuppliers-&gt;SupplierService" fill="none" d="M620.095,856.749 C629.63,860.528 639.102,865.656 646.557,872.585 C682.392,905.889 653.042,943.743 692.557,972.585 C747.602,1012.761 828.703,1014.706 882.546,1010.349" style="stroke:#000;stroke-width:.5"/><polygon fill="#000" points="887.67 1009.909 878.36 1006.695 882.688 1010.338 879.046 1014.666 887.67 1009.909" style="stroke:#000;stroke-width:.5"/><path id="RecentTransactions-&gt;_TransactionModal" fill="none" d="M623.571,888.392 C632.065,884.462 640.229,879.313 646.557,872.585 C690.851,825.492 649.871,783.14 692.557,734.585 C695.467,731.275 698.84,728.308 702.472,725.655" style="stroke:#000;stroke-width:.5;stroke-dasharray:7,7"/><polygon fill="#000" points="706.845 722.683 697.153 724.432 702.709 725.493 701.649 731.049 706.845 722.683" style="stroke:#000;stroke-width:.5"/><path id="RecentTransactions-&gt;TransactionService" fill="none" d="M620.934,913.499 C630.112,917.608 639.218,922.886 646.557,929.585 C678.861,959.073 657.03,991.071 692.557,1016.585 C743.372,1053.078 815.258,1061.109 868.205,1061.187" style="stroke:#000;stroke-width:.5"/><polygon fill="#000" points="873.268 1061.17 864.254 1057.201 868.268 1061.187 864.282 1065.201 873.268 1061.17" style="stroke:#000;stroke-width:.5"/><path id="RecentUsers-&gt;_UserModal" fill="none" d="M618.171,998.294 C628.31,994.747 638.546,989.713 646.557,982.585 C708.342,927.608 737.515,828.676 747.901,784.697" style="stroke:#000;stroke-width:.5;stroke-dasharray:7,7"/><polygon fill="#000" points="749.076 779.613 743.155 787.483 747.952 784.485 750.95 789.282 749.076 779.613" style="stroke:#000;stroke-width:.5"/><path id="RecentUsers-&gt;UserService" fill="none" d="M614.781,1015.682 C625.7,1019.456 637.19,1024.627 646.557,1031.585 C674.101,1052.045 662.392,1077.235 692.557,1093.585 C755.293,1127.588 840.69,1123.654 892.599,1116.781" style="stroke:#000;stroke-width:.5"/><polygon fill="#000" points="897.826 1116.064 888.366 1113.323 892.872 1116.743 889.452 1121.249 897.826 1116.064" style="stroke:#000;stroke-width:.5"/><path id="Release-&gt;Releases" fill="none" d="M607.441,1110.621 C620.548,1114.389 635.397,1120.343 646.557,1129.585 C677.555,1155.253 657.61,1187.6231 692.557,1207.5849 C748.902,1239.7692 786.146,1245.8425 838.557,1207.5849 C847.98,1200.7067 838.127,1190.649 846.557,1182.5849 C859.456,1170.2463 877.813,1163.867 894.742,1160.615" style="stroke:#000;stroke-width:.5"/><polygon fill="#000" points="899.942 1159.703 890.387 1157.316 895.017 1160.566 891.767 1165.196 899.942 1159.703" style="stroke:#000;stroke-width:.5"/><path id="&lt;b&gt;server&lt;/b&gt;-&gt;auth.route" fill="none" d="M118.063,618.24 C90.7183,605.716 46.41,580.625 27.5571,543.085 C9.5056,507.141 6.411,396.3 27.5571,362.085 C40.9674,340.387 67.7681,331.12 91.9598,327.345" style="stroke:#000;stroke-width:1"/><polygon fill="#000" points="97.077 326.621 87.605 323.922 92.126 327.322 88.726 331.843 97.077 326.621" style="stroke:#000;stroke-width:1"/><path id="&lt;b&gt;server&lt;/b&gt;-&gt;product.model" fill="none" d="M118.063,618.24 C90.7183,605.716 46.41,580.625 27.5571,543.085 C8.259,504.659 4.9506,192.66 27.5571,156.08 C38.6892,138.07 59.0486,128.63 79.483,123.78" style="stroke:#000;stroke-width:1"/><polygon fill="#000" points="84.394 122.7 74.746 120.725 79.511 123.773 76.463 128.538 84.394 122.7" style="stroke:#000;stroke-width:1"/><path id="&lt;b&gt;server&lt;/b&gt;-&gt;product.route" fill="none" d="M118.063,618.24 C90.7183,605.716 46.41,580.625 27.5571,543.085 C1.4273,491.055 -3.0521,461.612 27.5571,412.085 C38.9914,393.584 60.1608,384.121 81.1474,379.394" style="stroke:#000;stroke-width:1"/><polygon fill="#000" points="86.186 378.346 76.56 376.262 81.291 379.364 78.189 384.094 86.186 378.346" style="stroke:#000;stroke-width:1"/><path id="&lt;b&gt;server&lt;/b&gt;-&gt;supplier.model" fill="none" d="M118.063,618.24 C90.7183,605.716 46.41,580.625 27.5571,543.085 C10.852,509.822 7.9882,239.75 27.5571,208.08 C38.7181,190.03 59.0833,180.41 79.5143,175.38" style="stroke:#000;stroke-width:1"/><polygon fill="#000" points="84.425 174.25 74.759 172.361 79.551 175.367 76.546 180.159 84.425 174.25" style="stroke:#000;stroke-width:1"/><path id="&lt;b&gt;server&lt;/b&gt;-&gt;supplier.route" fill="none" d="M118.063,618.24 C90.7183,605.716 46.41,580.625 27.5571,543.085 C11.6,511.311 8.8644,493.33 27.5571,463.085 C39.0717,444.454 60.3826,434.811 81.4556,429.912" style="stroke:#000;stroke-width:1"/><polygon fill="#000" points="86.514 428.823 76.874 426.807 81.626 429.876 78.558 434.628 86.514 428.823" style="stroke:#000;stroke-width:1"/><path id="&lt;b&gt;server&lt;/b&gt;-&gt;transaction.model" fill="none" d="M118.063,618.24 C90.7183,605.716 46.41,580.625 27.5571,543.085 C4.4193,497.013 4.8069,357.349 27.5571,311.085 C43.6961,278.265 78.723,254.29 105.6256,239.82" style="stroke:#000;stroke-width:1"/><polygon fill="#000" points="110.208 237.4 100.381 238.054 105.784 239.73 104.108 245.132 110.208 237.4" style="stroke:#000;stroke-width:1"/><path id="&lt;b&gt;server&lt;/b&gt;-&gt;transaction.route" fill="none" d="M117.777,618.487 C77.0553,601.152 -0.2525,561.082 27.5571,516.085 C38.0451,499.115 56.5967,489.456 75.7011,484.012" style="stroke:#000;stroke-width:1"/><polygon fill="#000" points="80.566 482.717 70.839 481.168 75.734 484.004 72.898 488.898 80.566 482.717" style="stroke:#000;stroke-width:1"/><path id="&lt;b&gt;server&lt;/b&gt;-&gt;user.model" fill="none" d="M118.063,618.24 C90.7183,605.716 46.41,580.625 27.5571,543.085 C5.7158,499.595 1.9715,146.48 27.5571,105.08 C40.1206,84.76 64.5255,75.55 87.4958,71.57" style="stroke:#000;stroke-width:1"/><polygon fill="#000" points="92.677 70.75 83.164 68.199 87.738 71.528 84.409 76.102 92.677 70.75" style="stroke:#000;stroke-width:1"/><path id="&lt;b&gt;server&lt;/b&gt;-&gt;user.route" fill="none" d="M141.057,614.436 C141.057,591.884 141.057,569.333 141.057,546.781" style="stroke:#000;stroke-width:1"/><polygon fill="#000" points="141.057 541.664 137.057 550.664 141.057 546.664 145.057 550.664 141.057 541.664" style="stroke:#000;stroke-width:1"/><path id="supplier.route-&gt;supplier.controller" fill="none" d="M197.154,425.585 C218.724,425.585 243.732,425.585 266.588,425.585" style="stroke:#000;stroke-width:.5"/><polygon fill="#000" points="271.734 425.585 262.734 421.585 266.734 425.585 262.734 429.585 271.734 425.585" style="stroke:#000;stroke-width:.5"/><path id="Suppliers-&gt;SuppliersCard" fill="none" d="M371.377,843.053 C412.424,833.487 483.481,816.927 529.878,806.114" style="stroke:#000;stroke-width:.5"/><polygon fill="#000" points="534.848 804.956 525.175 803.102 529.978 806.09 526.99 810.893 534.848 804.956" style="stroke:#000;stroke-width:.5"/><path id="SuppliersCard-&gt;_SupplierModal" fill="none" d="M618.496,786.471 C628.517,782.788 638.615,777.669 646.557,770.585 C680.969,739.889 659.802,710.043 692.557,677.585 C695.937,674.236 699.779,671.214 703.848,668.502" style="stroke:#000;stroke-width:.5;stroke-dasharray:7,7"/><polygon fill="#000" points="708.341 665.679 698.592 667.079 704.107 668.339 702.848 673.854 708.341 665.679" style="stroke:#000;stroke-width:.5"/><path id="SuppliersCard-&gt;SupplierService" fill="none" d="M619.234,804.427 C629.128,808.108 638.981,813.293 646.557,820.585 C685.922,858.473 651.747,898.258 692.557,934.585 C742.812,979.318 773.718,956.626 838.557,974.585 C856.98,979.688 877.296,985.367 894.778,990.269" style="stroke:#000;stroke-width:.5"/><polygon fill="#000" points="899.629 991.631 892.043 985.35 894.815 990.281 889.883 993.052 899.629 991.631" style="stroke:#000;stroke-width:.5"/><path id="SysAdmin-&gt;Dashboard" fill="none" d="M150.943,987.423 C166.396,1008.736 200.346,1051.28 239.557,1073.585 C254.662,1082.177 272.788,1087.717 289.291,1091.279" style="stroke:#000;stroke-width:.5"/><polygon fill="#000" points="294.355 1092.322 286.347 1086.589 289.458 1091.313 284.733 1094.424 294.355 1092.322" style="stroke:#000;stroke-width:.5"/><path id="SysAdmin-&gt;SysInfo" fill="none" d="M161.24,986.12 C180.474,997.274 211.224,1013.998 239.557,1024.585 C259.409,1032.003 282.394,1037.788 301.059,1041.818" style="stroke:#000;stroke-width:.5"/><polygon fill="#000" points="306.203 1042.908 298.228 1037.128 301.312 1041.871 296.569 1044.954 306.203 1042.908" style="stroke:#000;stroke-width:.5"/><path id="SysAdmin-&gt;Users" fill="none" d="M180.583,979.524 C217.669,984.279 272.989,991.371 306.951,995.725" style="stroke:#000;stroke-width:.5"/><polygon fill="#000" points="312.212 996.4 303.794 991.288 307.253 995.764 302.776 999.223 312.212 996.4" style="stroke:#000;stroke-width:.5"/><path id="SysInfo-&gt;Development" fill="none" d="M372.33,1051.776 C392.235,1054.929 417.315,1061.185 436.557,1073.585 C463.396,1090.88 454.807,1112.152 481.557,1129.585 C493.719,1137.511 508.32,1142.934 522.329,1146.642" style="stroke:#000;stroke-width:.5"/><polygon fill="#000" points="527.458 1147.931 519.706 1141.856 522.609 1146.711 517.754 1149.614 527.458 1147.931" style="stroke:#000;stroke-width:.5"/><path id="SysInfo-&gt;Release" fill="none" d="M367.995,1055.452 C411.816,1065.85 494.815,1085.544 541.317,1096.579" style="stroke:#000;stroke-width:.5"/><polygon fill="#000" points="546.252 1097.75 538.418 1091.781 541.387 1096.596 536.572 1099.565 546.252 1097.75" style="stroke:#000;stroke-width:.5"/><path id="transaction.route-&gt;transaction.controller" fill="none" d="M204.83,478.873 C221.927,479.223 240.663,479.608 258.517,479.974" style="stroke:#000;stroke-width:.5"/><polygon fill="#000" points="263.527 480.077 254.611 475.893 258.528 479.974 254.447 483.891 263.527 480.077" style="stroke:#000;stroke-width:.5"/><path id="Transactions-&gt;TransactionsList" fill="none" d="M392.904,950.954 C427.136,951.824 471.716,952.958 508.205,953.885" style="stroke:#000;stroke-width:.5"/><polygon fill="#000" points="513.528 954.021 504.633 949.793 508.53 953.894 504.429 957.791 513.528 954.021" style="stroke:#000;stroke-width:.5"/><path id="TransactionsList-&gt;_TransactionModal" fill="none" d="M622.235,945.314 C631.346,941.397 640.096,936.003 646.557,928.585 C704.756,861.763 637.066,803.672 692.557,734.585 C695.213,731.278 698.338,728.324 701.744,725.689" style="stroke:#000;stroke-width:.5;stroke-dasharray:7,7"/><polygon fill="#000" points="705.86 722.741 696.214 724.73 701.795 725.653 700.873 731.234 705.86 722.741" style="stroke:#000;stroke-width:.5"/><path id="TransactionsList-&gt;TransactionService" fill="none" d="M619.037,966.492 C628.824,970.428 638.675,975.67 646.557,982.585 C678.553,1010.657 655.938,1044.888 692.557,1066.585 C755.434,1103.84 844.06,1086.868 895.989,1071.487" style="stroke:#000;stroke-width:.5"/><polygon fill="#000" points="900.898 1070.005 891.126 1068.778 896.112 1071.451 893.439 1076.437 900.898 1070.005" style="stroke:#000;stroke-width:.5"/><path id="user.route-&gt;user.controller" fill="none" d="M184.851,530.34 C211.452,531.432 246.086,532.853 275.595,534.063" style="stroke:#000;stroke-width:.5"/><polygon fill="#000" points="280.662 534.271 271.833 529.907 275.666 534.067 271.506 537.9 280.662 534.271" style="stroke:#000;stroke-width:.5"/><path id="Users-&gt;UsersList" fill="none" d="M362.115,1005.056 C403.044,1014.768 488.707,1035.095 537.999,1046.792" style="stroke:#000;stroke-width:.5"/><polygon fill="#000" points="542.946 1047.965 535.112 1041.996 538.081 1046.811 533.266 1049.78 542.946 1047.965" style="stroke:#000;stroke-width:.5"/><path id="UsersList-&gt;_UserModal" fill="none" d="M612.4,1049.653 C624.465,1046.121 637.247,1040.504 646.557,1031.585 C719.447,961.754 743.23,835.645 750.079,784.763" style="stroke:#000;stroke-width:.5;stroke-dasharray:7,7"/><polygon fill="#000" points="750.726 779.792 745.597 788.2 750.08 784.75 753.53 789.233 750.726 779.792" style="stroke:#000;stroke-width:.5"/><path id="UsersList-&gt;UserService" fill="none" d="M610.653,1062.504 C622.945,1066.292 636.333,1072.023 646.557,1080.585 C678.002,1106.917 657.056,1140.046 692.557,1160.585 C748.724,1193.0789 786.563,1199.4075 838.557,1160.585 C848.586,1153.097 837.607,1142.334 846.557,1133.585 C856.993,1123.383 871.154,1117.244 885.236,1113.578" style="stroke:#000;stroke-width:.5"/><polygon fill="#000" points="890.413 1112.336 880.729 1110.544 885.551 1113.502 882.593 1118.324 890.413 1112.336" style="stroke:#000;stroke-width:.5"/><script type="text/plantuml"><![CDATA[MD5=[3d7ed2a23fa8a4fbe9a7ad763fe8cc93]
@startuml

scale max 1920 width
left to right direction

skinparam nodesep 23
skinparam ranksep 46
skinparam monochrome true
skinparam shadowing false
skinparam defaultFontName Tahoma
skinparam defaultFontSize 12
skinparam roundCorner 6
skinparam dpi 150
skinparam arrowColor black
skinparam arrowThickness 0.5
skinparam packageTitleAlignment left

skinparam usecase {
  borderThickness 0.5
}

skinparam rectangle {
  borderThickness 0.5
}

skinparam component {
  borderThickness 1
}


package "Server" {
  (<b>server</b>)
}

package "API" {
  (auth.route)
  (product.route)
  (supplier.route)
  (transaction.route)
  (user.route)
}

package "Models" {
  (product.model)
  (supplier.model)
  (transaction.model)
  (user.model)
}

package "Functions" {
  (auth.controller)
  (product.controller)
  (supplier.controller)
  (transaction.controller)
  (user.controller)
}

package "Client" {
  (<b>Login</b>)
}

package "Permissions" {
  (Admin)
  (Cashier)
  (InventoryClerk)
  (SysAdmin)
}

package "Pages" {
  (Catalog)
  (Dashboard)
  (Inventory)
  (PointOfSale)
  (Recent)
  (Suppliers)
  (SysInfo)
  (Transactions)
  (Users)
}

package "Containers" {
  (Development)
  (ProductCatalog)
  (ProductInventory)
  rectangle "ProductModal" as _ProductModal
  (RecentProducts)
  (RecentSuppliers)
  (RecentTransactions)
  (RecentUsers)
  (Release)
  (Status)
  rectangle "SupplierModal" as _SupplierModal
  (SuppliersCard)
  rectangle "TransactionModal" as _TransactionModal
  (TransactionsList)
  rectangle "UserModal" as _UserModal
  (UsersList)
}

package "Services" {
  (Commits)
  (ProductService)
  (Releases)
  (SupplierService)
  (TransactionService)
  (UserService)
}

(Admin) --> (Dashboard)
(Admin) --> (Inventory)
(Admin) --> (PointOfSale)
(Admin) --> (Recent)
(Admin) --> (Suppliers)
(Admin) --> (SysInfo)
(Admin) --> (Transactions)
(Admin) --> (Users)
(auth.route) --> (auth.controller)
(Cashier) --> (Catalog)
(Cashier) --> (PointOfSale)
(Catalog) --> (ProductCatalog)
(Development) ---> (Commits)
(Inventory) --> (ProductInventory)
(InventoryClerk) --> (Inventory)
(InventoryClerk) --> (Recent)
(InventoryClerk) --> (Suppliers)
(InventoryClerk) --> (Transactions)
(<b>Login</b>) -[thickness=1]> (Admin)
(<b>Login</b>) -[thickness=1]> (Cashier)
(<b>Login</b>) -[thickness=1]> (InventoryClerk)
(<b>Login</b>) -[thickness=1]> (Status)
(<b>Login</b>) -[thickness=1]> (SysAdmin)
(product.route) --> (product.controller)
(ProductCatalog) --> (ProductService)
(ProductInventory) ..> _ProductModal
(ProductInventory) --> (ProductService)
(Recent) ---> (RecentProducts)
(Recent) ---> (RecentSuppliers)
(Recent) ---> (RecentTransactions)
(Recent) ---> (RecentUsers)
(RecentProducts) ..> _ProductModal
(RecentProducts) ---> (ProductService)
(RecentSuppliers) ..> _SupplierModal
(RecentSuppliers) ---> (SupplierService)
(RecentTransactions) ..> _TransactionModal
(RecentTransactions) ---> (TransactionService)
(RecentUsers) ..> _UserModal
(RecentUsers) ---> (UserService)
(Release) ---> (Releases)
(<b>server</b>) -[thickness=1]> (auth.route)
(<b>server</b>) -[thickness=1]> (product.model)
(<b>server</b>) -[thickness=1]> (product.route)
(<b>server</b>) -[thickness=1]> (supplier.model)
(<b>server</b>) -[thickness=1]> (supplier.route)
(<b>server</b>) -[thickness=1]> (transaction.model)
(<b>server</b>) -[thickness=1]> (transaction.route)
(<b>server</b>) -[thickness=1]> (user.model)
(<b>server</b>) -[thickness=1]> (user.route)
(supplier.route) --> (supplier.controller)
(Suppliers) --> (SuppliersCard)
(SuppliersCard) ..> _SupplierModal
(SuppliersCard) --> (SupplierService)
(SysAdmin) --> (Dashboard)
(SysAdmin) --> (SysInfo)
(SysAdmin) --> (Users)
(SysInfo) --> (Development)
(SysInfo) --> (Release)
(transaction.route) --> (transaction.controller)
(Transactions) --> (TransactionsList)
(TransactionsList) ..> _TransactionModal
(TransactionsList) --> (TransactionService)
(user.route) --> (user.controller)
(Users) --> (UsersList)
(UsersList) ..> _UserModal
(UsersList) --> (UserService)

@enduml


' View and edit on https://arkit.pro
]]></script></g></svg>