<svg xmlns="http://www.w3.org/2000/svg" xmlns:xlink="http://www.w3.org/1999/xlink" width="558" height="938" contentScriptType="application/ecmascript" contentStyleType="text/css" style="width:558px;height:938px" preserveAspectRatio="none" version="1.1" viewBox="0 0 558 938" zoomAndPan="magnify"><g><path fill="#FFF" d="M85.3846,820 L123.3846,820 A4.5,4.5 0 0 1 126.3846,823 L133.3846,840.4844 L151.385,840.4844 A3,3 0 0 1 154.385,843.4844 L154.385,892 A3,3 0 0 1 151.385,895 L85.3846,895 A3,3 0 0 1 82.3846,892 L82.3846,823 A3,3 0 0 1 85.3846,820" style="stroke:#000;stroke-width:1.5"/><line style="stroke:#000;stroke-width:1.5" x1="82.385" x2="133.385" y1="840.484" y2="840.484"/><text x="86.385" y="834.006" fill="#000" font-family="Tahoma, sans-serif" font-size="12" font-weight="bold" lengthAdjust="spacingAndGlyphs" textLength="38">Client</text><path fill="#FFF" d="M47.8846,587 L85.8846,587 A4.5,4.5 0 0 1 88.8846,590 L95.8846,607.4844 L188.885,607.4844 A3,3 0 0 1 191.885,610.4844 L191.885,793 A3,3 0 0 1 188.885,796 L47.8846,796 A3,3 0 0 1 44.8846,793 L44.8846,590 A3,3 0 0 1 47.8846,587" style="stroke:#000;stroke-width:1.5"/><line style="stroke:#000;stroke-width:1.5" x1="44.885" x2="95.885" y1="607.484" y2="607.484"/><text x="48.885" y="601.006" fill="#000" font-family="Tahoma, sans-serif" font-size="12" font-weight="bold" lengthAdjust="spacingAndGlyphs" textLength="38">Views</text><path fill="#FFF" d="M234.885,455 L306.885,455 A4.5,4.5 0 0 1 309.885,458 L316.885,475.4844 L362.885,475.4844 A3,3 0 0 1 365.885,478.4844 L365.885,923 A3,3 0 0 1 362.885,926 L234.885,926 A3,3 0 0 1 231.885,923 L231.885,458 A3,3 0 0 1 234.885,455" style="stroke:#000;stroke-width:1.5"/><line style="stroke:#000;stroke-width:1.5" x1="231.885" x2="316.885" y1="475.484" y2="475.484"/><text x="235.885" y="469.006" fill="#000" font-family="Tahoma, sans-serif" font-size="12" font-weight="bold" lengthAdjust="spacingAndGlyphs" textLength="72">Containers</text><path fill="#FFF" d="M407.885,608 L464.885,608 A4.5,4.5 0 0 1 467.885,611 L474.885,628.4844 L543.885,628.4844 A3,3 0 0 1 546.885,631.4844 L546.885,770 A3,3 0 0 1 543.885,773 L407.885,773 A3,3 0 0 1 404.885,770 L404.885,611 A3,3 0 0 1 407.885,608" style="stroke:#000;stroke-width:1.5"/><line style="stroke:#000;stroke-width:1.5" x1="404.885" x2="474.885" y1="628.484" y2="628.484"/><text x="408.885" y="622.006" fill="#000" font-family="Tahoma, sans-serif" font-size="12" font-weight="bold" lengthAdjust="spacingAndGlyphs" textLength="57">Services</text><path fill="#FFF" d="M73.3846,449 L115.3846,449 A4.5,4.5 0 0 1 118.3846,452 L125.3846,469.4844 L163.385,469.4844 A3,3 0 0 1 166.385,472.4844 L166.385,521 A3,3 0 0 1 163.385,524 L73.3846,524 A3,3 0 0 1 70.3846,521 L70.3846,452 A3,3 0 0 1 73.3846,449" style="stroke:#000;stroke-width:1.5"/><line style="stroke:#000;stroke-width:1.5" x1="70.385" x2="125.385" y1="469.484" y2="469.484"/><text x="74.385" y="463.006" fill="#000" font-family="Tahoma, sans-serif" font-size="12" font-weight="bold" lengthAdjust="spacingAndGlyphs" textLength="42">Server</text><path fill="#FFF" d="M49.3846,215 L71.3846,215 A4.5,4.5 0 0 1 74.3846,218 L81.3846,235.4844 L187.385,235.4844 A3,3 0 0 1 190.385,238.4844 L190.385,422 A3,3 0 0 1 187.385,425 L49.3846,425 A3,3 0 0 1 46.3846,422 L46.3846,218 A3,3 0 0 1 49.3846,215" style="stroke:#000;stroke-width:1.5"/><line style="stroke:#000;stroke-width:1.5" x1="46.385" x2="81.385" y1="235.484" y2="235.484"/><text x="50.385" y="229.006" fill="#000" font-family="Tahoma, sans-serif" font-size="12" font-weight="bold" lengthAdjust="spacingAndGlyphs" textLength="22">API</text><path fill="#FFF" d="M46.8846,24 L160.8846,24 A4.5,4.5 0 0 1 163.8846,27 L170.8846,44.4844 L189.885,44.4844 A3,3 0 0 1 192.885,47.4844 L192.885,188 A3,3 0 0 1 189.885,191 L46.8846,191 A3,3 0 0 1 43.8846,188 L43.8846,27 A3,3 0 0 1 46.8846,24" style="stroke:#000;stroke-width:1.5"/><line style="stroke:#000;stroke-width:1.5" x1="43.885" x2="170.885" y1="44.484" y2="44.484"/><text x="47.885" y="38.006" fill="#000" font-family="Tahoma, sans-serif" font-size="12" font-weight="bold" lengthAdjust="spacingAndGlyphs" textLength="114">Database Models</text><path fill="#FFF" d="M219.885,209 L284.885,209 A4.5,4.5 0 0 1 287.885,212 L294.885,229.4844 L377.885,229.4844 A3,3 0 0 1 380.885,232.4844 L380.885,428 A3,3 0 0 1 377.885,431 L219.885,431 A3,3 0 0 1 216.885,428 L216.885,212 A3,3 0 0 1 219.885,209" style="stroke:#000;stroke-width:1.5"/><line style="stroke:#000;stroke-width:1.5" x1="216.885" x2="294.885" y1="229.484" y2="229.484"/><text x="220.885" y="223.006" fill="#000" font-family="Tahoma, sans-serif" font-size="12" font-weight="bold" lengthAdjust="spacingAndGlyphs" textLength="65">Functions</text><ellipse cx="118.356" cy="866.242" fill="#F8F8F8" rx="19.971" ry="13.242" style="stroke:#383838;stroke-width:.5"/><text x="106.356" y="869.984" fill="#000" font-family="Tahoma, sans-serif" font-size="12" font-weight="bold" lengthAdjust="spacingAndGlyphs" textLength="24">App</text><ellipse cx="118.634" cy="677.242" fill="#F8F8F8" rx="27.749" ry="13.242" style="stroke:#383838;stroke-width:.5"/><text x="101.134" y="680.984" fill="#000" font-family="Tahoma, sans-serif" font-size="12" lengthAdjust="spacingAndGlyphs" textLength="35">Admin</text><ellipse cx="118.291" cy="633.242" fill="#F8F8F8" rx="33.406" ry="13.242" style="stroke:#383838;stroke-width:.5"/><text x="96.791" y="636.984" fill="#000" font-family="Tahoma, sans-serif" font-size="12" lengthAdjust="spacingAndGlyphs" textLength="43">Cashier</text><ellipse cx="118.586" cy="721.94" fill="#F8F8F8" rx="57.701" ry="13.94" style="stroke:#383838;stroke-width:.5"/><text x="77.586" y="725.682" fill="#000" font-family="Tahoma, sans-serif" font-size="12" lengthAdjust="spacingAndGlyphs" textLength="82">InventoryClerk</text><ellipse cx="118.483" cy="767.242" fill="#F8F8F8" rx="42.598" ry="13.242" style="stroke:#383838;stroke-width:.5"/><text x="90.483" y="770.984" fill="#000" font-family="Tahoma, sans-serif" font-size="12" lengthAdjust="spacingAndGlyphs" textLength="56">SysAdmin</text><ellipse cx="299.033" cy="853.242" fill="#F8F8F8" rx="37.648" ry="13.242" style="stroke:#383838;stroke-width:.5"/><text x="274.533" y="856.984" fill="#000" font-family="Tahoma, sans-serif" font-size="12" lengthAdjust="spacingAndGlyphs" textLength="49">AuditLog</text><ellipse cx="298.947" cy="545.242" fill="#F8F8F8" rx="39.062" ry="13.242" style="stroke:#383838;stroke-width:.5"/><text x="273.447" y="548.984" fill="#000" font-family="Tahoma, sans-serif" font-size="12" font-weight="bold" lengthAdjust="spacingAndGlyphs" textLength="51">Catalog</text><ellipse cx="298.933" cy="809.242" fill="#F8F8F8" rx="47.548" ry="13.242" style="stroke:#383838;stroke-width:.5"/><text x="267.433" y="812.984" fill="#000" font-family="Tahoma, sans-serif" font-size="12" lengthAdjust="spacingAndGlyphs" textLength="63">Dashboard</text><ellipse cx="299.069" cy="721.242" fill="#F8F8F8" rx="41.184" ry="13.242" style="stroke:#383838;stroke-width:.5"/><text x="272.069" y="724.984" fill="#000" font-family="Tahoma, sans-serif" font-size="12" lengthAdjust="spacingAndGlyphs" textLength="54">Inventory</text><ellipse cx="298.74" cy="677.242" fill="#F8F8F8" rx="38.355" ry="13.242" style="stroke:#383838;stroke-width:.5"/><text x="273.74" y="680.984" fill="#000" font-family="Tahoma, sans-serif" font-size="12" lengthAdjust="spacingAndGlyphs" textLength="50">Invoices</text><ellipse cx="298.968" cy="589.242" fill="#F8F8F8" rx="51.083" ry="13.242" style="stroke:#383838;stroke-width:.5"/><text x="264.968" y="592.984" fill="#000" font-family="Tahoma, sans-serif" font-size="12" lengthAdjust="spacingAndGlyphs" textLength="68">PointOfSale</text><ellipse cx="298.776" cy="765.242" fill="#F8F8F8" rx="41.891" ry="13.242" style="stroke:#383838;stroke-width:.5"/><text x="271.276" y="768.984" fill="#000" font-family="Tahoma, sans-serif" font-size="12" font-weight="bold" lengthAdjust="spacingAndGlyphs" textLength="55">Settings</text><ellipse cx="298.862" cy="633.242" fill="#F8F8F8" rx="40.477" ry="13.242" style="stroke:#383838;stroke-width:.5"/><text x="272.362" y="636.984" fill="#000" font-family="Tahoma, sans-serif" font-size="12" lengthAdjust="spacingAndGlyphs" textLength="53">Suppliers</text><ellipse cx="298.705" cy="897.242" fill="#F8F8F8" rx="34.82" ry="13.242" style="stroke:#383838;stroke-width:.5"/><text x="276.205" y="900.984" fill="#000" font-family="Tahoma, sans-serif" font-size="12" lengthAdjust="spacingAndGlyphs" textLength="45">SysInfo</text><ellipse cx="298.719" cy="501.242" fill="#F8F8F8" rx="26.334" ry="13.242" style="stroke:#383838;stroke-width:.5"/><text x="282.219" y="504.984" fill="#000" font-family="Tahoma, sans-serif" font-size="12" lengthAdjust="spacingAndGlyphs" textLength="33">Users</text><ellipse cx="475.797" cy="700.242" fill="#F8F8F8" rx="53.912" ry="13.242" style="stroke:#383838;stroke-width:.5"/><text x="439.797" y="703.984" fill="#000" font-family="Tahoma, sans-serif" font-size="12" lengthAdjust="spacingAndGlyphs" textLength="72">useProducts</text><ellipse cx="475.656" cy="654.854" fill="#F8F8F8" rx="54.771" ry="13.354" style="stroke:#383838;stroke-width:.5"/><text x="438.656" y="658.596" fill="#000" font-family="Tahoma, sans-serif" font-size="12" lengthAdjust="spacingAndGlyphs" textLength="74">useSuppliers</text><ellipse cx="475.726" cy="744.242" fill="#F8F8F8" rx="46.841" ry="13.242" style="stroke:#383838;stroke-width:.5"/><text x="444.726" y="747.984" fill="#000" font-family="Tahoma, sans-serif" font-size="12" font-weight="bold" lengthAdjust="spacingAndGlyphs" textLength="62">useUsers</text><ellipse cx="118.376" cy="495.242" fill="#F8F8F8" rx="31.991" ry="13.242" style="stroke:#383838;stroke-width:.5"/><text x="97.876" y="498.984" fill="#000" font-family="Tahoma, sans-serif" font-size="12" font-weight="bold" lengthAdjust="spacingAndGlyphs" textLength="41">server</text><ellipse cx="118.397" cy="261.242" fill="#F8F8F8" rx="44.012" ry="13.242" style="stroke:#383838;stroke-width:.5"/><text x="89.397" y="264.984" fill="#000" font-family="Tahoma, sans-serif" font-size="12" lengthAdjust="spacingAndGlyphs" textLength="58">auth.route</text><ellipse cx="118.238" cy="306.071" fill="#F8F8F8" rx="55.853" ry="13.571" style="stroke:#383838;stroke-width:.5"/><text x="79.738" y="309.813" fill="#000" font-family="Tahoma, sans-serif" font-size="12" lengthAdjust="spacingAndGlyphs" textLength="77">product.route</text><ellipse cx="118.604" cy="351.144" fill="#F8F8F8" rx="56.219" ry="13.644" style="stroke:#383838;stroke-width:.5"/><text x="79.604" y="354.886" fill="#000" font-family="Tahoma, sans-serif" font-size="12" lengthAdjust="spacingAndGlyphs" textLength="78">supplier.route</text><ellipse cx="118.397" cy="396.242" fill="#F8F8F8" rx="44.012" ry="13.242" style="stroke:#383838;stroke-width:.5"/><text x="89.397" y="399.984" fill="#000" font-family="Tahoma, sans-serif" font-size="12" lengthAdjust="spacingAndGlyphs" textLength="58">user.route</text><ellipse cx="118.462" cy="161.015" fill="#F8F8F8" rx="58.077" ry="14.015" style="stroke:#383838;stroke-width:.5"/><text x="76.962" y="164.758" fill="#000" font-family="Tahoma, sans-serif" font-size="12" lengthAdjust="spacingAndGlyphs" textLength="83">product.model</text><ellipse cx="118.34" cy="71.091" fill="#F8F8F8" rx="58.455" ry="14.091" style="stroke:#383838;stroke-width:.5"/><text x="76.34" y="74.833" fill="#000" font-family="Tahoma, sans-serif" font-size="12" lengthAdjust="spacingAndGlyphs" textLength="84">supplier.model</text><ellipse cx="118.14" cy="116.242" fill="#F8F8F8" rx="48.255" ry="13.242" style="stroke:#383838;stroke-width:.5"/><text x="86.14" y="119.984" fill="#000" font-family="Tahoma, sans-serif" font-size="12" lengthAdjust="spacingAndGlyphs" textLength="64">user.model</text><ellipse cx="298.962" cy="256.015" fill="#F8F8F8" rx="58.077" ry="14.015" style="stroke:#383838;stroke-width:.5"/><text x="257.462" y="259.758" fill="#000" font-family="Tahoma, sans-serif" font-size="12" lengthAdjust="spacingAndGlyphs" textLength="83">auth.controller</text><ellipse cx="298.933" cy="304.01" fill="#F8F8F8" rx="65.548" ry="15.51" style="stroke:#383838;stroke-width:.5"/><text x="247.933" y="307.752" fill="#000" font-family="Tahoma, sans-serif" font-size="12" lengthAdjust="spacingAndGlyphs" textLength="102">product.controller</text><ellipse cx="298.841" cy="353.091" fill="#F8F8F8" rx="65.956" ry="15.591" style="stroke:#383838;stroke-width:.5"/><text x="247.341" y="356.833" fill="#000" font-family="Tahoma, sans-serif" font-size="12" lengthAdjust="spacingAndGlyphs" textLength="103">supplier.controller</text><ellipse cx="298.962" cy="401.015" fill="#F8F8F8" rx="58.077" ry="14.015" style="stroke:#383838;stroke-width:.5"/><text x="257.462" y="404.758" fill="#000" font-family="Tahoma, sans-serif" font-size="12" lengthAdjust="spacingAndGlyphs" textLength="83">user.controller</text><path id="Admin-&gt;AuditLog" fill="none" d="M146.044,676.633 C164.431,677.935 187.829,682.982 200.885,699 C219.451,721.78 190.077,808.42 208.885,831 C220.332,844.7433 238.878,850.6601 256.086,852.9733" style="stroke:#000;stroke-width:.5"/><polygon fill="#000" points="261.374 853.58 252.889 848.58 256.407 853.01 251.977 856.528 261.374 853.58" style="stroke:#000;stroke-width:.5"/><path id="Admin-&gt;Dashboard" fill="none" d="M145.899,676.753 C164.216,678.113 187.589,683.18 200.885,699 C213.518,714.032 196.092,772.103 208.885,787 C218.305,797.969 232.247,803.924 246.315,807.041" style="stroke:#000;stroke-width:.5"/><polygon fill="#000" points="251.495 808.066 243.442 802.396 246.59 807.096 241.89 810.244 251.495 808.066" style="stroke:#000;stroke-width:.5"/><path id="Admin-&gt;Inventory" fill="none" d="M143.088,682.843 C173.188,690.262 225.455,703.146 260.839,711.868" style="stroke:#000;stroke-width:.5"/><polygon fill="#000" points="265.933 713.124 258.153 707.085 261.078 711.927 256.237 714.853 265.933 713.124" style="stroke:#000;stroke-width:.5"/><path id="Admin-&gt;Invoices" fill="none" d="M146.108,677 C174.819,677 220.878,677 254.736,677" style="stroke:#000;stroke-width:.5"/><polygon fill="#000" points="260.061 677 251.061 673 255.061 677 251.061 681 260.061 677" style="stroke:#000;stroke-width:.5"/><path id="Admin-&gt;PointOfSale" fill="none" d="M146.254,676.811 C164.253,675.193 187.096,669.996 200.885,655 C214.338,640.369 195.276,625.487 208.885,611 C217.928,601.373 230.46,595.676 243.269,592.372" style="stroke:#000;stroke-width:.5"/><polygon fill="#000" points="248.378 591.179 238.705 589.327 243.509 592.315 240.522 597.119 248.378 591.179" style="stroke:#000;stroke-width:.5"/><path id="Admin-&gt;Suppliers" fill="none" d="M143.088,671.157 C173.278,663.715 225.769,650.776 261.158,642.053" style="stroke:#000;stroke-width:.5"/><polygon fill="#000" points="266.25 640.798 256.555 639.066 261.395 641.994 258.467 646.834 266.25 640.798" style="stroke:#000;stroke-width:.5"/><path id="Admin-&gt;Users" fill="none" d="M146.044,677.367 C164.431,676.065 187.829,671.018 200.885,655 C219.451,632.22 190.077,545.58 208.885,523 C222.817,506.272 247.268,501.139 267.02,499.986" style="stroke:#000;stroke-width:.5"/><polygon fill="#000" points="272.192 499.767 263.031 496.151 267.197 499.978 263.369 504.144 272.192 499.767" style="stroke:#000;stroke-width:.5"/><path id="&lt;b&gt;App&lt;/b&gt;-&gt;Admin" fill="none" d="M102.134,858.3205 C78.5445,846.1502 35.7424,819.965 18.3846,783 C4.2164,752.828 1.0216,736.454 18.3846,708 C32.0278,685.642 61.9969,678.632 85.5893,676.775" style="stroke:#000;stroke-width:1"/><polygon fill="#000" points="90.823 676.438 81.584 673.025 85.833 676.76 82.099 681.009 90.823 676.438" style="stroke:#000;stroke-width:1"/><path id="&lt;b&gt;App&lt;/b&gt;-&gt;Cashier" fill="none" d="M102.134,858.3205 C78.5445,846.1502 35.7424,819.965 18.3846,783 C7.1445,759.063 4.61,686.574 18.3846,664 C30.8836,643.517 57.0846,635.916 79.532,633.357" style="stroke:#000;stroke-width:1"/><polygon fill="#000" points="84.553 632.86 75.203 629.767 79.577 633.353 75.991 637.728 84.553 632.86" style="stroke:#000;stroke-width:1"/><path id="&lt;b&gt;App&lt;/b&gt;-&gt;InventoryClerk" fill="none" d="M101.9633,858.5285 C67.158,841.613 -8.7037,798.392 18.3846,754 C26.9894,739.899 42.0338,731.771 57.8802,727.155" style="stroke:#000;stroke-width:1"/><polygon fill="#000" points="62.818 725.832 53.089 724.298 57.988 727.126 55.16 732.025 62.818 725.832" style="stroke:#000;stroke-width:1"/><path id="&lt;b&gt;App&lt;/b&gt;-&gt;SysAdmin" fill="none" d="M118.385,852.8516 C118.385,830.3 118.385,807.748 118.385,785.196" style="stroke:#000;stroke-width:1"/><polygon fill="#000" points="118.385 780.079 114.385 789.079 118.385 785.079 122.385 789.079 118.385 780.079" style="stroke:#000;stroke-width:1"/><path id="auth.route-&gt;auth.controller" fill="none" d="M162.594,259.79 C184.653,259.172 211.879,258.409 236.111,257.73" style="stroke:#000;stroke-width:.5"/><polygon fill="#000" points="241.234 257.587 232.125 253.841 236.236 257.727 232.35 261.837 241.234 257.587" style="stroke:#000;stroke-width:.5"/><path id="Cashier-&gt;PointOfSale" fill="none" d="M147.275,626.125 C176.621,618.891 223.119,607.43 256.691,599.154" style="stroke:#000;stroke-width:.5"/><polygon fill="#000" points="261.547 597.957 251.851 596.226 256.692 599.153 253.765 603.994 261.547 597.957" style="stroke:#000;stroke-width:.5"/><path id="Inventory-&gt;useProducts" fill="none" d="M337.426,716.495 C362.103,713.534 394.752,709.616 422.038,706.342" style="stroke:#000;stroke-width:.5"/><polygon fill="#000" points="427.068 705.738 417.656 702.839 422.104 706.334 418.609 710.782 427.068 705.738" style="stroke:#000;stroke-width:.5"/><path id="InventoryClerk-&gt;AuditLog" fill="none" d="M172.156,727.113 C183.116,730.609 193.548,736.187 200.885,745 C213.165,759.751 196.365,816.452 208.885,831 C220.458,844.4477 238.826,850.3556 255.878,852.74" style="stroke:#000;stroke-width:.5"/><polygon fill="#000" points="261.119 853.371 252.661 848.325 256.155 852.774 251.706 856.268 261.119 853.371" style="stroke:#000;stroke-width:.5"/><path id="InventoryClerk-&gt;Inventory" fill="none" d="M176.354,721.681 C201.016,721.543 229.48,721.383 252.658,721.253" style="stroke:#000;stroke-width:.5"/><polygon fill="#000" points="257.822 721.224 248.799 717.275 252.822 721.253 248.845 725.275 257.822 721.224" style="stroke:#000;stroke-width:.5"/><path id="InventoryClerk-&gt;Invoices" fill="none" d="M158.574,711.846 C174.216,707.815 192.395,703.157 208.885,699 C226.368,694.593 245.806,689.778 262.044,685.78" style="stroke:#000;stroke-width:.5"/><polygon fill="#000" points="266.976 684.566 257.281 682.835 262.121 685.762 259.194 690.602 266.976 684.566" style="stroke:#000;stroke-width:.5"/><path id="InventoryClerk-&gt;Suppliers" fill="none" d="M171.609,716.412 C182.592,712.935 193.171,707.485 200.885,699 C214.254,684.293 195.276,669.487 208.885,655 C220.144,643.014 236.812,637.12 252.689,634.352" style="stroke:#000;stroke-width:.5"/><polygon fill="#000" points="258.034 633.529 248.53 630.946 253.092 634.29 249.748 638.853 258.034 633.529" style="stroke:#000;stroke-width:.5"/><path id="product.route-&gt;product.controller" fill="none" d="M174.397,305.384 C191.438,305.193 210.442,304.98 228.335,304.779" style="stroke:#000;stroke-width:.5"/><polygon fill="#000" points="233.349 304.723 224.305 300.824 228.349 304.779 224.394 308.823 233.349 304.723" style="stroke:#000;stroke-width:.5"/><path id="&lt;b&gt;server&lt;/b&gt;-&gt;auth.route" fill="none" d="M97.6303,484.947 C73.436,471.928 34.6875,446.718 18.3846,412 C7.1445,388.063 4.61,315.574 18.3846,293 C29.1072,275.428 49.8294,267.132 69.6423,263.348" style="stroke:#000;stroke-width:1"/><polygon fill="#000" points="74.653 262.48 65.103 260.075 69.727 263.333 66.468 267.957 74.653 262.48" style="stroke:#000;stroke-width:1"/><path id="&lt;b&gt;server&lt;/b&gt;-&gt;product.model" fill="none" d="M97.6303,484.947 C73.436,471.928 34.6875,446.718 18.3846,412 C2.6106,378.408 2.7097,278.638 18.3846,245 C32.8096,214.044 64.8788,190.436 88.8355,176.246" style="stroke:#000;stroke-width:1"/><polygon fill="#000" points="93.208 173.706 83.417 174.768 88.885 176.218 87.436 181.686 93.208 173.706" style="stroke:#000;stroke-width:1"/><path id="&lt;b&gt;server&lt;/b&gt;-&gt;product.route" fill="none" d="M97.6303,484.947 C73.436,471.928 34.6875,446.718 18.3846,412 C4.4053,382.23 1.2531,366.075 18.3846,338 C27.2045,323.546 42.7901,315.368 59.0701,310.815" style="stroke:#000;stroke-width:1"/><polygon fill="#000" points="64.138 309.515 54.427 307.875 59.295 310.757 56.413 315.625 64.138 309.515" style="stroke:#000;stroke-width:1"/><path id="&lt;b&gt;server&lt;/b&gt;-&gt;supplier.model" fill="none" d="M97.6303,484.947 C73.436,471.928 34.6875,446.718 18.3846,412 C3.7913,380.922 0.5007,132.308 18.3846,103 C26.8603,89.11 41.5839,81.016 57.1677,76.365" style="stroke:#000;stroke-width:1"/><polygon fill="#000" points="62.026 75.029 52.287 73.558 57.205 76.355 54.408 81.272 62.026 75.029" style="stroke:#000;stroke-width:1"/><path id="&lt;b&gt;server&lt;/b&gt;-&gt;supplier.route" fill="none" d="M97.0154,485.081 C60.5229,466.711 -7.4817,425.389 18.3846,383 C27.2045,368.546 42.7901,360.368 59.0701,355.815" style="stroke:#000;stroke-width:1"/><polygon fill="#000" points="64.138 354.515 54.427 352.875 59.295 355.757 56.413 360.625 64.138 354.515" style="stroke:#000;stroke-width:1"/><path id="&lt;b&gt;server&lt;/b&gt;-&gt;user.model" fill="none" d="M97.6303,484.947 C73.436,471.928 34.6875,446.718 18.3846,412 C5.8693,385.348 3.0473,172.134 18.3846,147 C28.2503,130.832 46.6529,122.69 65.0081,118.719" style="stroke:#000;stroke-width:1"/><polygon fill="#000" points="70.177 117.706 60.576 115.511 65.27 118.667 62.114 123.362 70.177 117.706" style="stroke:#000;stroke-width:1"/><path id="&lt;b&gt;server&lt;/b&gt;-&gt;user.route" fill="none" d="M118.385,481.852 C118.385,459.3 118.385,436.748 118.385,414.196" style="stroke:#000;stroke-width:1"/><polygon fill="#000" points="118.385 409.079 114.385 418.079 118.385 414.079 122.385 418.079 118.385 409.079" style="stroke:#000;stroke-width:1"/><path id="supplier.route-&gt;supplier.controller" fill="none" d="M174.397,351.616 C191.107,351.804 209.704,352.012 227.29,352.209" style="stroke:#000;stroke-width:.5"/><polygon fill="#000" points="232.712 352.27 223.757 348.17 227.712 352.214 223.668 356.17 232.712 352.27" style="stroke:#000;stroke-width:.5"/><path id="Suppliers-&gt;useSuppliers" fill="none" d="M336.998,637.666 C361.555,640.753 394.146,644.85 421.476,648.286" style="stroke:#000;stroke-width:.5"/><polygon fill="#000" points="426.515 648.919 418.083 643.829 421.554 648.296 417.087 651.767 426.515 648.919" style="stroke:#000;stroke-width:.5"/><path id="SysAdmin-&gt;AuditLog" fill="none" d="M133.209,779.472 C149.95,793.93 179.562,817.497 208.885,831 C224.738,838.3 243.339,843.3833 259.426,846.8087" style="stroke:#000;stroke-width:.5"/><polygon fill="#000" points="264.332 847.819 256.324 842.086 259.435 846.811 254.71 849.922 264.332 847.819" style="stroke:#000;stroke-width:.5"/><path id="SysAdmin-&gt;Dashboard" fill="none" d="M152.541,774.801 C182.113,781.76 225.502,791.969 257.172,799.421" style="stroke:#000;stroke-width:.5"/><polygon fill="#000" points="262.15 800.592 254.304 794.638 257.283 799.448 252.473 802.426 262.15 800.592" style="stroke:#000;stroke-width:.5"/><path id="SysAdmin-&gt;SysInfo" fill="none" d="M137.924,778.814 C156.708,791.776 185.17,814.324 200.885,841 C208.764,854.3756 197.97,863.9615 208.885,875 C221.765,888.026 241.053,893.7862 258.384,896.1809" style="stroke:#000;stroke-width:.5"/><polygon fill="#000" points="263.69 896.82 255.234 891.772 258.726 896.222 254.276 899.714 263.69 896.82" style="stroke:#000;stroke-width:.5"/><path id="user.route-&gt;user.controller" fill="none" d="M162.594,397.21 C184.653,397.828 211.879,398.591 236.111,399.27" style="stroke:#000;stroke-width:.5"/><polygon fill="#000" points="241.234 399.413 232.35 395.163 236.236 399.273 232.125 403.159 241.234 399.413" style="stroke:#000;stroke-width:.5"/><script type="text/plantuml"><![CDATA[MD5=[8cd86c9e6a7b29bd1cc2ee7e0ca3204c]
@startuml

scale max 1920 width
left to right direction

skinparam nodesep 18
skinparam ranksep 35
skinparam monochrome true
skinparam shadowing false
skinparam defaultFontName Tahoma
skinparam defaultFontSize 12
skinparam roundCorner 6
skinparam dpi 150
skinparam arrowColor black
skinparam arrowThickness 0.5
skinparam packageTitleAlignment left

skinparam usecase {
  borderThickness 0.5
}

skinparam rectangle {
  borderThickness 0.5
}

skinparam component {
  borderThickness 1
}


package "Client" {
  (<b>App</b>)
}

package "Views" {
  (Admin)
  (Cashier)
  (InventoryClerk)
  (SysAdmin)
}

package "Containers" {
  (AuditLog)
  (<b>Catalog</b>)
  (Dashboard)
  (Inventory)
  (Invoices)
  (PointOfSale)
  (<b>Settings</b>)
  (Suppliers)
  (SysInfo)
  (Users)
}

package "Services" {
  (useProducts)
  (useSuppliers)
  (<b>useUsers</b>)
}

package "Server" {
  (<b>server</b>)
}

package "API" {
  (auth.route)
  (product.route)
  (supplier.route)
  (user.route)
}

package "Database Models" {
  (product.model)
  (supplier.model)
  (user.model)
}

package "Functions" {
  (auth.controller)
  (product.controller)
  (supplier.controller)
  (user.controller)
}

(Admin) --> (AuditLog)
(Admin) --> (Dashboard)
(Admin) --> (Inventory)
(Admin) --> (Invoices)
(Admin) --> (PointOfSale)
(Admin) --> (Suppliers)
(Admin) --> (Users)
(<b>App</b>) -[thickness=1]> (Admin)
(<b>App</b>) -[thickness=1]> (Cashier)
(<b>App</b>) -[thickness=1]> (InventoryClerk)
(<b>App</b>) -[thickness=1]> (SysAdmin)
(auth.route) --> (auth.controller)
(Cashier) --> (PointOfSale)
(Inventory) --> (useProducts)
(InventoryClerk) --> (AuditLog)
(InventoryClerk) --> (Inventory)
(InventoryClerk) --> (Invoices)
(InventoryClerk) --> (Suppliers)
(product.route) --> (product.controller)
(<b>server</b>) -[thickness=1]> (auth.route)
(<b>server</b>) -[thickness=1]> (product.model)
(<b>server</b>) -[thickness=1]> (product.route)
(<b>server</b>) -[thickness=1]> (supplier.model)
(<b>server</b>) -[thickness=1]> (supplier.route)
(<b>server</b>) -[thickness=1]> (user.model)
(<b>server</b>) -[thickness=1]> (user.route)
(supplier.route) --> (supplier.controller)
(Suppliers) --> (useSuppliers)
(SysAdmin) --> (AuditLog)
(SysAdmin) --> (Dashboard)
(SysAdmin) --> (SysInfo)
(user.route) --> (user.controller)

@enduml


' View and edit on https://arkit.pro
]]></script></g></svg>