<svg xmlns="http://www.w3.org/2000/svg" xmlns:xlink="http://www.w3.org/1999/xlink" width="586" height="904" contentScriptType="application/ecmascript" contentStyleType="text/css" style="width:586px;height:904px" preserveAspectRatio="none" version="1.1" viewBox="0 0 586 904" zoomAndPan="magnify"><g><path fill="#FFF" d="M77.4692,781 L115.4692,781 A4.5,4.5 0 0 1 118.4692,784 L125.4692,801.4844 L160.469,801.4844 A3,3 0 0 1 163.469,804.4844 L163.469,853 A3,3 0 0 1 160.469,856 L77.4692,856 A3,3 0 0 1 74.4692,853 L74.4692,784 A3,3 0 0 1 77.4692,781" style="stroke:#000;stroke-width:1.5"/><line style="stroke:#000;stroke-width:1.5" x1="74.469" x2="125.469" y1="801.484" y2="801.484"/><text x="78.469" y="795.006" fill="#000" font-family="Tahoma, sans-serif" font-size="12" font-weight="bold" lengthAdjust="spacingAndGlyphs" textLength="38">Client</text><path fill="#FFF" d="M48.4692,548 L85.4692,548 A4.5,4.5 0 0 1 88.4692,551 L95.4692,568.4844 L189.469,568.4844 A3,3 0 0 1 192.469,571.4844 L192.469,754 A3,3 0 0 1 189.469,757 L48.4692,757 A3,3 0 0 1 45.4692,754 L45.4692,551 A3,3 0 0 1 48.4692,548" style="stroke:#000;stroke-width:1.5"/><line style="stroke:#000;stroke-width:1.5" x1="45.469" x2="95.469" y1="568.484" y2="568.484"/><text x="49.469" y="562.006" fill="#000" font-family="Tahoma, sans-serif" font-size="12" font-weight="bold" lengthAdjust="spacingAndGlyphs" textLength="37">Roles</text><path fill="#FFF" d="M235.469,461 L273.469,461 A4.5,4.5 0 0 1 276.469,464 L283.469,481.4844 L363.469,481.4844 A3,3 0 0 1 366.469,484.4844 L366.469,885 A3,3 0 0 1 363.469,888 L235.469,888 A3,3 0 0 1 232.469,885 L232.469,464 A3,3 0 0 1 235.469,461" style="stroke:#000;stroke-width:1.5"/><line style="stroke:#000;stroke-width:1.5" x1="232.469" x2="283.469" y1="481.484" y2="481.484"/><text x="236.469" y="475.006" fill="#000" font-family="Tahoma, sans-serif" font-size="12" font-weight="bold" lengthAdjust="spacingAndGlyphs" textLength="38">Views</text><path fill="#FFF" d="M425.469,611 L482.469,611 A4.5,4.5 0 0 1 485.469,614 L492.469,631.4844 L571.469,631.4844 A3,3 0 0 1 574.469,634.4844 L574.469,889 A3,3 0 0 1 571.469,892 L425.469,892 A3,3 0 0 1 422.469,889 L422.469,614 A3,3 0 0 1 425.469,611" style="stroke:#000;stroke-width:1.5"/><line style="stroke:#000;stroke-width:1.5" x1="422.469" x2="492.469" y1="631.484" y2="631.484"/><text x="426.469" y="625.006" fill="#000" font-family="Tahoma, sans-serif" font-size="12" font-weight="bold" lengthAdjust="spacingAndGlyphs" textLength="57">Services</text><path fill="#FFF" d="M73.9692,449 L115.9692,449 A4.5,4.5 0 0 1 118.9692,452 L125.9692,469.4844 L163.969,469.4844 A3,3 0 0 1 166.969,472.4844 L166.969,521 A3,3 0 0 1 163.969,524 L73.9692,524 A3,3 0 0 1 70.9692,521 L70.9692,452 A3,3 0 0 1 73.9692,449" style="stroke:#000;stroke-width:1.5"/><line style="stroke:#000;stroke-width:1.5" x1="70.969" x2="125.969" y1="469.484" y2="469.484"/><text x="74.969" y="463.006" fill="#000" font-family="Tahoma, sans-serif" font-size="12" font-weight="bold" lengthAdjust="spacingAndGlyphs" textLength="42">Server</text><path fill="#FFF" d="M49.9692,215 L71.9692,215 A4.5,4.5 0 0 1 74.9692,218 L81.9692,235.4844 L187.969,235.4844 A3,3 0 0 1 190.969,238.4844 L190.969,422 A3,3 0 0 1 187.969,425 L49.9692,425 A3,3 0 0 1 46.9692,422 L46.9692,218 A3,3 0 0 1 49.9692,215" style="stroke:#000;stroke-width:1.5"/><line style="stroke:#000;stroke-width:1.5" x1="46.969" x2="81.969" y1="235.484" y2="235.484"/><text x="50.969" y="229.006" fill="#000" font-family="Tahoma, sans-serif" font-size="12" font-weight="bold" lengthAdjust="spacingAndGlyphs" textLength="22">API</text><path fill="#FFF" d="M47.4692,24 L94.4692,24 A4.5,4.5 0 0 1 97.4692,27 L104.4692,44.4844 L190.469,44.4844 A3,3 0 0 1 193.469,47.4844 L193.469,188 A3,3 0 0 1 190.469,191 L47.4692,191 A3,3 0 0 1 44.4692,188 L44.4692,27 A3,3 0 0 1 47.4692,24" style="stroke:#000;stroke-width:1.5"/><line style="stroke:#000;stroke-width:1.5" x1="44.469" x2="104.469" y1="44.484" y2="44.484"/><text x="48.469" y="38.006" fill="#000" font-family="Tahoma, sans-serif" font-size="12" font-weight="bold" lengthAdjust="spacingAndGlyphs" textLength="47">Models</text><path fill="#FFF" d="M220.469,209 L285.469,209 A4.5,4.5 0 0 1 288.469,212 L295.469,229.4844 L378.469,229.4844 A3,3 0 0 1 381.469,232.4844 L381.469,428 A3,3 0 0 1 378.469,431 L220.469,431 A3,3 0 0 1 217.469,428 L217.469,212 A3,3 0 0 1 220.469,209" style="stroke:#000;stroke-width:1.5"/><line style="stroke:#000;stroke-width:1.5" x1="217.469" x2="295.469" y1="229.484" y2="229.484"/><text x="221.469" y="223.006" fill="#000" font-family="Tahoma, sans-serif" font-size="12" font-weight="bold" lengthAdjust="spacingAndGlyphs" textLength="65">Functions</text><ellipse cx="118.925" cy="827.242" fill="#F8F8F8" rx="28.456" ry="13.242" style="stroke:#383838;stroke-width:.5"/><text x="100.925" y="830.984" fill="#000" font-family="Tahoma, sans-serif" font-size="12" font-weight="bold" lengthAdjust="spacingAndGlyphs" textLength="36">Login</text><ellipse cx="119.218" cy="684.242" fill="#F8F8F8" rx="27.749" ry="13.242" style="stroke:#383838;stroke-width:.5"/><text x="101.718" y="687.984" fill="#000" font-family="Tahoma, sans-serif" font-size="12" lengthAdjust="spacingAndGlyphs" textLength="35">Admin</text><ellipse cx="118.875" cy="594.242" fill="#F8F8F8" rx="33.406" ry="13.242" style="stroke:#383838;stroke-width:.5"/><text x="97.375" y="597.984" fill="#000" font-family="Tahoma, sans-serif" font-size="12" lengthAdjust="spacingAndGlyphs" textLength="43">Cashier</text><ellipse cx="119.17" cy="638.94" fill="#F8F8F8" rx="57.701" ry="13.94" style="stroke:#383838;stroke-width:.5"/><text x="78.17" y="642.682" fill="#000" font-family="Tahoma, sans-serif" font-size="12" lengthAdjust="spacingAndGlyphs" textLength="82">InventoryClerk</text><ellipse cx="119.067" cy="728.242" fill="#F8F8F8" rx="42.598" ry="13.242" style="stroke:#383838;stroke-width:.5"/><text x="91.067" y="731.984" fill="#000" font-family="Tahoma, sans-serif" font-size="12" lengthAdjust="spacingAndGlyphs" textLength="56">SysAdmin</text><ellipse cx="299.617" cy="727.242" fill="#F8F8F8" rx="37.648" ry="13.242" style="stroke:#383838;stroke-width:.5"/><text x="275.117" y="730.984" fill="#000" font-family="Tahoma, sans-serif" font-size="12" lengthAdjust="spacingAndGlyphs" textLength="49">AuditLog</text><ellipse cx="299.582" cy="507.242" fill="#F8F8F8" rx="34.113" ry="13.242" style="stroke:#383838;stroke-width:.5"/><text x="277.582" y="510.984" fill="#000" font-family="Tahoma, sans-serif" font-size="12" lengthAdjust="spacingAndGlyphs" textLength="44">Catalog</text><ellipse cx="299.517" cy="859.242" fill="#F8F8F8" rx="47.548" ry="13.242" style="stroke:#383838;stroke-width:.5"/><text x="268.017" y="862.984" fill="#000" font-family="Tahoma, sans-serif" font-size="12" lengthAdjust="spacingAndGlyphs" textLength="63">Dashboard</text><ellipse cx="299.653" cy="683.242" fill="#F8F8F8" rx="41.184" ry="13.242" style="stroke:#383838;stroke-width:.5"/><text x="272.653" y="686.984" fill="#000" font-family="Tahoma, sans-serif" font-size="12" lengthAdjust="spacingAndGlyphs" textLength="54">Inventory</text><ellipse cx="299.324" cy="595.242" fill="#F8F8F8" rx="38.355" ry="13.242" style="stroke:#383838;stroke-width:.5"/><text x="274.324" y="598.984" fill="#000" font-family="Tahoma, sans-serif" font-size="12" lengthAdjust="spacingAndGlyphs" textLength="50">Invoices</text><ellipse cx="299.552" cy="551.242" fill="#F8F8F8" rx="51.083" ry="13.242" style="stroke:#383838;stroke-width:.5"/><text x="265.552" y="554.984" fill="#000" font-family="Tahoma, sans-serif" font-size="12" lengthAdjust="spacingAndGlyphs" textLength="68">PointOfSale</text><ellipse cx="299.446" cy="639.242" fill="#F8F8F8" rx="40.477" ry="13.242" style="stroke:#383838;stroke-width:.5"/><text x="272.946" y="642.984" fill="#000" font-family="Tahoma, sans-serif" font-size="12" lengthAdjust="spacingAndGlyphs" textLength="53">Suppliers</text><ellipse cx="299.289" cy="815.242" fill="#F8F8F8" rx="34.82" ry="13.242" style="stroke:#383838;stroke-width:.5"/><text x="276.789" y="818.984" fill="#000" font-family="Tahoma, sans-serif" font-size="12" lengthAdjust="spacingAndGlyphs" textLength="45">SysInfo</text><ellipse cx="299.303" cy="771.242" fill="#F8F8F8" rx="26.334" ry="13.242" style="stroke:#383838;stroke-width:.5"/><text x="282.803" y="774.984" fill="#000" font-family="Tahoma, sans-serif" font-size="12" lengthAdjust="spacingAndGlyphs" textLength="33">Users</text><rect style="stroke:#000;stroke-width:.5" width="96" height="34.484" x="450.469" y="790" fill="#F8F8F8" rx="3" ry="3"/><text x="460.469" y="812.006" fill="#000" font-family="Tahoma, sans-serif" font-size="12" lengthAdjust="spacingAndGlyphs" textLength="76">MongoCharts</text><rect style="stroke:#000;stroke-width:.5" width="97" height="34.484" x="449.969" y="842" fill="#F8F8F8" rx="3" ry="3"/><text x="459.969" y="864.006" fill="#000" font-family="Tahoma, sans-serif" font-size="12" lengthAdjust="spacingAndGlyphs" textLength="77">MongoTables</text><rect style="stroke:#000;stroke-width:.5" width="105" height="34.484" x="445.969" y="738" fill="#F8F8F8" rx="3" ry="3"/><text x="455.969" y="760.006" fill="#000" font-family="Tahoma, sans-serif" font-size="12" lengthAdjust="spacingAndGlyphs" textLength="85">MongoWidgets</text><ellipse cx="498.685" cy="706.243" fill="#F8F8F8" rx="59.216" ry="14.243" style="stroke:#383838;stroke-width:.5"/><text x="455.685" y="709.985" fill="#000" font-family="Tahoma, sans-serif" font-size="12" lengthAdjust="spacingAndGlyphs" textLength="86">ProductService</text><ellipse cx="498.454" cy="658.897" fill="#F8F8F8" rx="59.984" ry="14.397" style="stroke:#383838;stroke-width:.5"/><text x="454.454" y="662.639" fill="#000" font-family="Tahoma, sans-serif" font-size="12" lengthAdjust="spacingAndGlyphs" textLength="88">SupplierService</text><ellipse cx="118.96" cy="495.242" fill="#F8F8F8" rx="31.991" ry="13.242" style="stroke:#383838;stroke-width:.5"/><text x="98.46" y="498.984" fill="#000" font-family="Tahoma, sans-serif" font-size="12" font-weight="bold" lengthAdjust="spacingAndGlyphs" textLength="41">server</text><ellipse cx="118.981" cy="261.242" fill="#F8F8F8" rx="44.012" ry="13.242" style="stroke:#383838;stroke-width:.5"/><text x="89.981" y="264.984" fill="#000" font-family="Tahoma, sans-serif" font-size="12" lengthAdjust="spacingAndGlyphs" textLength="58">auth.route</text><ellipse cx="118.822" cy="306.071" fill="#F8F8F8" rx="55.853" ry="13.571" style="stroke:#383838;stroke-width:.5"/><text x="80.322" y="309.813" fill="#000" font-family="Tahoma, sans-serif" font-size="12" lengthAdjust="spacingAndGlyphs" textLength="77">product.route</text><ellipse cx="119.188" cy="351.144" fill="#F8F8F8" rx="56.219" ry="13.644" style="stroke:#383838;stroke-width:.5"/><text x="80.188" y="354.886" fill="#000" font-family="Tahoma, sans-serif" font-size="12" lengthAdjust="spacingAndGlyphs" textLength="78">supplier.route</text><ellipse cx="118.981" cy="396.242" fill="#F8F8F8" rx="44.012" ry="13.242" style="stroke:#383838;stroke-width:.5"/><text x="89.981" y="399.984" fill="#000" font-family="Tahoma, sans-serif" font-size="12" lengthAdjust="spacingAndGlyphs" textLength="58">user.route</text><ellipse cx="119.046" cy="71.015" fill="#F8F8F8" rx="58.077" ry="14.015" style="stroke:#383838;stroke-width:.5"/><text x="77.546" y="74.758" fill="#000" font-family="Tahoma, sans-serif" font-size="12" lengthAdjust="spacingAndGlyphs" textLength="83">product.model</text><ellipse cx="118.924" cy="117.091" fill="#F8F8F8" rx="58.455" ry="14.091" style="stroke:#383838;stroke-width:.5"/><text x="76.924" y="120.833" fill="#000" font-family="Tahoma, sans-serif" font-size="12" lengthAdjust="spacingAndGlyphs" textLength="84">supplier.model</text><ellipse cx="118.724" cy="162.242" fill="#F8F8F8" rx="48.255" ry="13.242" style="stroke:#383838;stroke-width:.5"/><text x="86.724" y="165.984" fill="#000" font-family="Tahoma, sans-serif" font-size="12" lengthAdjust="spacingAndGlyphs" textLength="64">user.model</text><ellipse cx="299.546" cy="256.015" fill="#F8F8F8" rx="58.077" ry="14.015" style="stroke:#383838;stroke-width:.5"/><text x="258.046" y="259.758" fill="#000" font-family="Tahoma, sans-serif" font-size="12" lengthAdjust="spacingAndGlyphs" textLength="83">auth.controller</text><ellipse cx="299.517" cy="304.01" fill="#F8F8F8" rx="65.548" ry="15.51" style="stroke:#383838;stroke-width:.5"/><text x="248.517" y="307.752" fill="#000" font-family="Tahoma, sans-serif" font-size="12" lengthAdjust="spacingAndGlyphs" textLength="102">product.controller</text><ellipse cx="299.425" cy="353.091" fill="#F8F8F8" rx="65.956" ry="15.591" style="stroke:#383838;stroke-width:.5"/><text x="247.925" y="356.833" fill="#000" font-family="Tahoma, sans-serif" font-size="12" lengthAdjust="spacingAndGlyphs" textLength="103">supplier.controller</text><ellipse cx="299.546" cy="401.015" fill="#F8F8F8" rx="58.077" ry="14.015" style="stroke:#383838;stroke-width:.5"/><text x="258.046" y="404.758" fill="#000" font-family="Tahoma, sans-serif" font-size="12" lengthAdjust="spacingAndGlyphs" textLength="83">user.controller</text><path id="Admin-&gt;AuditLog" fill="none" d="M144.043,689.799 C174.7,697.184 227.916,710.004 263.165,718.495" style="stroke:#000;stroke-width:.5"/><polygon fill="#000" points="268.23 719.716 260.418 713.719 263.369 718.545 258.543 721.496 268.23 719.716" style="stroke:#000;stroke-width:.5"/><path id="Admin-&gt;Dashboard" fill="none" d="M146.627,683.634 C165.013,684.937 188.41,689.985 201.469,706 C219.9,728.603 190.798,814.5944 209.469,837 C218.726,848.1079 232.62,854.1027 246.695,857.2144" style="stroke:#000;stroke-width:.5"/><polygon fill="#000" points="251.88 858.235 243.822 852.572 246.974 857.269 242.277 860.421 251.88 858.235" style="stroke:#000;stroke-width:.5"/><path id="Admin-&gt;Inventory" fill="none" d="M146.692,683.85 C174.757,683.693 219.398,683.443 253.016,683.255" style="stroke:#000;stroke-width:.5"/><polygon fill="#000" points="258.313 683.225 249.29 679.277 253.313 683.254 249.336 687.276 258.313 683.225" style="stroke:#000;stroke-width:.5"/><path id="Admin-&gt;Invoices" fill="none" d="M146.469,683.862 C164.536,682.292 187.611,677.131 201.469,662 C215.19,647.02 195.59,631.833 209.469,617 C221.296,604.361 239.135,598.49 255.745,595.918" style="stroke:#000;stroke-width:.5"/><polygon fill="#000" points="260.852 595.222 251.394 592.475 255.898 595.898 252.475 600.402 260.852 595.222" style="stroke:#000;stroke-width:.5"/><path id="Admin-&gt;PointOfSale" fill="none" d="M146.489,684.251 C164.808,682.893 188.182,677.827 201.469,662 C214.237,646.792 196.54,588.071 209.469,573 C218.161,562.869 230.71,557.014 243.655,553.722" style="stroke:#000;stroke-width:.5"/><polygon fill="#000" points="248.824 552.542 239.16 550.643 243.949 553.654 240.939 558.443 248.824 552.542" style="stroke:#000;stroke-width:.5"/><path id="Admin-&gt;Suppliers" fill="none" d="M143.509,677.888 C161.55,673.218 187.068,666.647 209.469,661 C226.673,656.663 245.769,651.932 261.847,647.972" style="stroke:#000;stroke-width:.5"/><polygon fill="#000" points="266.735 646.769 257.04 645.037 261.88 647.965 258.952 652.805 266.735 646.769" style="stroke:#000;stroke-width:.5"/><path id="Admin-&gt;SysInfo" fill="none" d="M146.479,683.757 C164.793,685.119 188.166,690.187 201.469,706 C213.968,720.857 196.813,778.277 209.469,793 C221.599,807.11 241.211,812.921 258.941,815.07" style="stroke:#000;stroke-width:.5"/><polygon fill="#000" points="264.373 815.625 255.827 810.73 259.399 815.116 255.013 818.688 264.373 815.625" style="stroke:#000;stroke-width:.5"/><path id="Admin-&gt;Users" fill="none" d="M146.82,684.206 C164.81,685.833 187.65,691.033 201.469,706 C214.656,720.282 196.131,734.859 209.469,749 C224.244,764.663 248.257,769.916 267.618,771.387" style="stroke:#000;stroke-width:.5"/><polygon fill="#000" points="272.944 771.707 264.2 767.174 267.953 771.407 263.72 775.16 272.944 771.707" style="stroke:#000;stroke-width:.5"/><path id="AuditLog-&gt;ProductService" fill="none" d="M335.689,723.246 C364.368,720.188 405.459,715.808 439.051,712.227" style="stroke:#000;stroke-width:.5"/><polygon fill="#000" points="444.375 711.66 435.002 708.637 439.403 712.19 435.85 716.591 444.375 711.66" style="stroke:#000;stroke-width:.5"/><path id="auth.route-&gt;auth.controller" fill="none" d="M163.179,259.79 C185.238,259.172 212.464,258.409 236.696,257.73" style="stroke:#000;stroke-width:.5"/><polygon fill="#000" points="241.818 257.587 232.709 253.841 236.82 257.727 232.934 261.837 241.818 257.587" style="stroke:#000;stroke-width:.5"/><path id="Cashier-&gt;Catalog" fill="none" d="M132.88,582.096 C149.412,567.481 179.518,542.926 209.469,529 C226.08,521.276 245.744,516.051 262.359,512.638" style="stroke:#000;stroke-width:.5"/><polygon fill="#000" points="267.41 511.637 257.804 509.462 262.505 512.609 259.359 517.309 267.41 511.637" style="stroke:#000;stroke-width:.5"/><path id="Cashier-&gt;PointOfSale" fill="none" d="M147.86,587.281 C176.992,580.263 223.029,569.173 256.542,561.1" style="stroke:#000;stroke-width:.5"/><polygon fill="#000" points="261.808 559.831 252.122 558.048 256.947 561.001 253.994 565.826 261.808 559.831" style="stroke:#000;stroke-width:.5"/><path id="Catalog-&gt;ProductService" fill="none" d="M333.735,506.685 C352.714,508.35 375.446,513.786 389.469,529 C436.465,579.986 368.192,631.362 414.469,683 C421.013,690.302 429.649,695.372 438.878,698.874" style="stroke:#000;stroke-width:.5"/><polygon fill="#000" points="443.749 700.567 436.561 693.834 439.026 698.926 433.935 701.391 443.749 700.567" style="stroke:#000;stroke-width:.5"/><path id="Dashboard-&gt;_MongoCharts" fill="none" d="M335.613,850.5583 C352.007,846.5575 371.765,841.6461 389.469,837 C407.707,832.214 427.61,826.7535 445.305,821.8145" style="stroke:#000;stroke-width:.5"/><polygon fill="#000" points="450.234 820.436 440.49 819.006 445.418 821.782 442.643 826.711 450.234 820.436" style="stroke:#000;stroke-width:.5"/><path id="Dashboard-&gt;_MongoTables" fill="none" d="M347.155,859 C376.411,859 414.192,859 444.557,859" style="stroke:#000;stroke-width:.5"/><polygon fill="#000" points="449.75 859 440.75 855 444.75 859 440.75 863 449.75 859" style="stroke:#000;stroke-width:.5"/><path id="Dashboard-&gt;_MongoWidgets" fill="none" d="M345.738,855.8251 C361.01,852.8034 377.261,847.2125 389.469,837 C410.375,819.5114 394.108,799.12 414.469,781 C422.03,774.271 431.322,769.283 440.92,765.586" style="stroke:#000;stroke-width:.5"/><polygon fill="#000" points="445.651 763.873 435.827 763.177 440.95 765.576 438.551 770.699 445.651 763.873" style="stroke:#000;stroke-width:.5"/><path id="Inventory-&gt;ProductService" fill="none" d="M338.453,687.435 C367.214,690.793 407.215,695.463 439.901,699.279" style="stroke:#000;stroke-width:.5"/><polygon fill="#000" points="445.081 699.884 436.606 694.867 440.115 699.304 435.678 702.813 445.081 699.884" style="stroke:#000;stroke-width:.5"/><path id="InventoryClerk-&gt;AuditLog" fill="none" d="M172.169,644.611 C183.152,648.087 193.738,653.53 201.469,662 C214.574,676.357 196.131,690.859 209.469,705 C221.544,717.801 239.79,723.649 256.624,726.161" style="stroke:#000;stroke-width:.5"/><polygon fill="#000" points="261.794 726.838 253.389 721.704 256.836 726.189 252.351 729.637 261.794 726.838" style="stroke:#000;stroke-width:.5"/><path id="InventoryClerk-&gt;Inventory" fill="none" d="M160.028,648.874 C190.441,656.371 231.938,666.6 261.55,673.9" style="stroke:#000;stroke-width:.5"/><polygon fill="#000" points="266.566 675.136 258.786 669.097 261.711 673.939 256.87 676.865 266.566 675.136" style="stroke:#000;stroke-width:.5"/><path id="InventoryClerk-&gt;Invoices" fill="none" d="M160.028,629.126 C190.927,621.509 233.266,611.072 262.96,603.753" style="stroke:#000;stroke-width:.5"/><polygon fill="#000" points="267.982 602.515 258.286 600.786 263.127 603.712 260.202 608.554 267.982 602.515" style="stroke:#000;stroke-width:.5"/><path id="InventoryClerk-&gt;Suppliers" fill="none" d="M176.939,639 C201.791,639 230.502,639 253.776,639" style="stroke:#000;stroke-width:.5"/><polygon fill="#000" points="258.96 639 249.96 635 253.96 639 249.96 643 258.96 639" style="stroke:#000;stroke-width:.5"/><path id="&lt;b&gt;Login&lt;/b&gt;-&gt;Admin" fill="none" d="M98.6061,817.6418 C62.1789,799.551 -7.9701,757.78 18.4692,715 C32.3021,692.618 62.4057,685.611 86.0796,683.762" style="stroke:#000;stroke-width:1"/><polygon fill="#000" points="91.331 683.426 82.094 680.008 86.341 683.745 82.604 687.992 91.331 683.426" style="stroke:#000;stroke-width:1"/><path id="&lt;b&gt;Login&lt;/b&gt;-&gt;Cashier" fill="none" d="M98.9663,817.4286 C74.7216,804.574 35.056,779.211 18.4692,744 C7.1998,720.077 4.5666,647.495 18.4692,625 C31.1419,604.495 57.4705,596.895 80.0006,594.342" style="stroke:#000;stroke-width:1"/><polygon fill="#000" points="85.04 593.846 75.691 590.747 80.064 594.336 76.475 598.708 85.04 593.846" style="stroke:#000;stroke-width:1"/><path id="&lt;b&gt;Login&lt;/b&gt;-&gt;InventoryClerk" fill="none" d="M98.9663,817.4286 C74.7216,804.574 35.056,779.211 18.4692,744 C4.6428,714.649 1.4122,698.599 18.4692,671 C27.237,656.813 42.4869,648.671 58.4968,644.067" style="stroke:#000;stroke-width:1"/><polygon fill="#000" points="63.483 642.75 53.76 641.182 58.649 644.028 55.804 648.917 63.483 642.75" style="stroke:#000;stroke-width:1"/><path id="&lt;b&gt;Login&lt;/b&gt;-&gt;SysAdmin" fill="none" d="M118.969,813.8516 C118.969,791.3 118.969,768.748 118.969,746.196" style="stroke:#000;stroke-width:1"/><polygon fill="#000" points="118.969 741.079 114.969 750.079 118.969 746.079 122.969 750.079 118.969 741.079" style="stroke:#000;stroke-width:1"/><path id="product.route-&gt;product.controller" fill="none" d="M174.982,305.384 C192.023,305.193 211.027,304.98 228.919,304.779" style="stroke:#000;stroke-width:.5"/><polygon fill="#000" points="233.934 304.723 224.89 300.824 228.934 304.779 224.979 308.823 233.934 304.723" style="stroke:#000;stroke-width:.5"/><path id="&lt;b&gt;server&lt;/b&gt;-&gt;auth.route" fill="none" d="M98.1144,484.975 C73.8023,471.983 34.8631,446.801 18.4692,412 C7.1998,388.077 4.5666,315.495 18.4692,293 C29.3406,275.41 50.1776,267.112 70.0723,263.331" style="stroke:#000;stroke-width:1"/><polygon fill="#000" points="75.103 262.464 65.555 260.051 70.176 263.313 66.913 267.934 75.103 262.464" style="stroke:#000;stroke-width:1"/><path id="&lt;b&gt;server&lt;/b&gt;-&gt;product.model" fill="none" d="M98.1144,484.975 C73.8023,471.983 34.8631,446.801 18.4692,412 C3.8379,380.94 0.4191,132.206 18.4692,103 C27.1498,88.955 42.1841,80.833 58.0191,76.206" style="stroke:#000;stroke-width:1"/><polygon fill="#000" points="62.953 74.879 53.223 73.353 58.124 76.177 55.3 81.079 62.953 74.879" style="stroke:#000;stroke-width:1"/><path id="&lt;b&gt;server&lt;/b&gt;-&gt;product.route" fill="none" d="M98.1144,484.975 C73.8023,471.983 34.8631,446.801 18.4692,412 C4.4534,382.247 1.1785,365.977 18.4692,338 C27.4551,323.461 43.2496,315.269 59.6929,310.73" style="stroke:#000;stroke-width:1"/><polygon fill="#000" points="64.81 309.436 55.104 307.766 59.963 310.662 57.066 315.521 64.81 309.436" style="stroke:#000;stroke-width:1"/><path id="&lt;b&gt;server&lt;/b&gt;-&gt;supplier.model" fill="none" d="M98.1144,484.975 C73.8023,471.983 34.8631,446.801 18.4692,412 C6.016,385.564 3.1062,173.858 18.4692,149 C27.1062,135.025 42.0331,126.915 57.7804,122.276" style="stroke:#000;stroke-width:1"/><polygon fill="#000" points="62.688 120.945 52.955 119.441 57.862 122.254 55.049 127.162 62.688 120.945" style="stroke:#000;stroke-width:1"/><path id="&lt;b&gt;server&lt;/b&gt;-&gt;supplier.route" fill="none" d="M97.7485,485.215 C61.0915,466.9 -7.7641,425.446 18.4692,383 C27.4551,368.461 43.2496,360.269 59.6929,355.73" style="stroke:#000;stroke-width:1"/><polygon fill="#000" points="64.81 354.436 55.104 352.766 59.963 355.662 57.066 360.521 64.81 354.436" style="stroke:#000;stroke-width:1"/><path id="&lt;b&gt;server&lt;/b&gt;-&gt;user.model" fill="none" d="M98.1144,484.975 C73.8023,471.983 34.8631,446.801 18.4692,412 C2.6541,378.427 2.6541,278.573 18.4692,245 C33.3578,213.394 66.8416,189.722 91.0762,175.91" style="stroke:#000;stroke-width:1"/><polygon fill="#000" points="95.487 173.446 85.679 174.344 91.122 175.885 89.582 181.328 95.487 173.446" style="stroke:#000;stroke-width:1"/><path id="&lt;b&gt;server&lt;/b&gt;-&gt;user.route" fill="none" d="M118.969,481.852 C118.969,459.3 118.969,436.748 118.969,414.196" style="stroke:#000;stroke-width:1"/><polygon fill="#000" points="118.969 409.079 114.969 418.079 118.969 414.079 122.969 418.079 118.969 409.079" style="stroke:#000;stroke-width:1"/><path id="supplier.route-&gt;supplier.controller" fill="none" d="M174.982,351.616 C191.692,351.804 210.289,352.012 227.875,352.209" style="stroke:#000;stroke-width:.5"/><polygon fill="#000" points="233.297 352.27 224.343 348.167 228.297 352.213 224.252 356.167 233.297 352.27" style="stroke:#000;stroke-width:.5"/><path id="Suppliers-&gt;SupplierService" fill="none" d="M338.453,642.856 C366.577,645.711 405.449,649.658 437.719,652.934" style="stroke:#000;stroke-width:.5"/><polygon fill="#000" points="442.839 653.454 434.288 648.567 437.865 652.95 433.481 656.526 442.839 653.454" style="stroke:#000;stroke-width:.5"/><path id="SysAdmin-&gt;AuditLog" fill="none" d="M161.82,727.766 C190.34,727.606 227.957,727.395 256.502,727.235" style="stroke:#000;stroke-width:.5"/><polygon fill="#000" points="261.722 727.206 252.7 723.255 256.722 727.233 252.744 731.255 261.722 727.206" style="stroke:#000;stroke-width:.5"/><path id="SysAdmin-&gt;Dashboard" fill="none" d="M138.543,739.794 C157.355,752.739 185.84,775.274 201.469,802 C209.524,815.7744 198.286,825.6179 209.469,837 C219.404,847.1116 233.198,852.8503 246.964,856.0349" style="stroke:#000;stroke-width:.5"/><polygon fill="#000" points="252.027 857.096 244.039 851.335 247.133 856.07 242.398 859.165 252.027 857.096" style="stroke:#000;stroke-width:.5"/><path id="SysAdmin-&gt;SysInfo" fill="none" d="M133.462,740.418 C150.112,755.088 179.867,779.236 209.469,793 C225.819,800.602 245.126,805.784 261.572,809.1991" style="stroke:#000;stroke-width:.5"/><polygon fill="#000" points="266.577 810.203 258.539 804.512 261.675 809.22 256.966 812.356 266.577 810.203" style="stroke:#000;stroke-width:.5"/><path id="user.route-&gt;user.controller" fill="none" d="M163.179,397.21 C185.238,397.828 212.464,398.591 236.696,399.27" style="stroke:#000;stroke-width:.5"/><polygon fill="#000" points="241.818 399.413 232.934 395.163 236.82 399.273 232.709 403.159 241.818 399.413" style="stroke:#000;stroke-width:.5"/><script type="text/plantuml"><![CDATA[MD5=[40854df1e37d9eaaee465255b5ae9ab8]
@startuml

scale max 1920 width
left to right direction

skinparam nodesep 18
skinparam ranksep 36
skinparam monochrome true
skinparam shadowing false
skinparam defaultFontName Tahoma
skinparam defaultFontSize 12
skinparam roundCorner 6
skinparam dpi 150
skinparam arrowColor black
skinparam arrowThickness 0.5
skinparam packageTitleAlignment left

skinparam usecase {
  borderThickness 0.5
}

skinparam rectangle {
  borderThickness 0.5
}

skinparam component {
  borderThickness 1
}


package "Client" {
  (<b>Login</b>)
}

package "Roles" {
  (Admin)
  (Cashier)
  (InventoryClerk)
  (SysAdmin)
}

package "Views" {
  (AuditLog)
  (Catalog)
  (Dashboard)
  (Inventory)
  (Invoices)
  (PointOfSale)
  (Suppliers)
  (SysInfo)
  (Users)
}

package "Services" {
  rectangle "MongoCharts" as _MongoCharts
  rectangle "MongoTables" as _MongoTables
  rectangle "MongoWidgets" as _MongoWidgets
  (ProductService)
  (SupplierService)
}

package "Server" {
  (<b>server</b>)
}

package "API" {
  (auth.route)
  (product.route)
  (supplier.route)
  (user.route)
}

package "Models" {
  (product.model)
  (supplier.model)
  (user.model)
}

package "Functions" {
  (auth.controller)
  (product.controller)
  (supplier.controller)
  (user.controller)
}

(Admin) --> (AuditLog)
(Admin) --> (Dashboard)
(Admin) --> (Inventory)
(Admin) --> (Invoices)
(Admin) --> (PointOfSale)
(Admin) --> (Suppliers)
(Admin) --> (SysInfo)
(Admin) --> (Users)
(AuditLog) --> (ProductService)
(auth.route) --> (auth.controller)
(Cashier) --> (Catalog)
(Cashier) --> (PointOfSale)
(Catalog) --> (ProductService)
(Dashboard) ---> _MongoCharts
(Dashboard) ---> _MongoTables
(Dashboard) ---> _MongoWidgets
(Inventory) --> (ProductService)
(InventoryClerk) --> (AuditLog)
(InventoryClerk) --> (Inventory)
(InventoryClerk) --> (Invoices)
(InventoryClerk) --> (Suppliers)
(<b>Login</b>) -[thickness=1]> (Admin)
(<b>Login</b>) -[thickness=1]> (Cashier)
(<b>Login</b>) -[thickness=1]> (InventoryClerk)
(<b>Login</b>) -[thickness=1]> (SysAdmin)
(product.route) --> (product.controller)
(<b>server</b>) -[thickness=1]> (auth.route)
(<b>server</b>) -[thickness=1]> (product.model)
(<b>server</b>) -[thickness=1]> (product.route)
(<b>server</b>) -[thickness=1]> (supplier.model)
(<b>server</b>) -[thickness=1]> (supplier.route)
(<b>server</b>) -[thickness=1]> (user.model)
(<b>server</b>) -[thickness=1]> (user.route)
(supplier.route) --> (supplier.controller)
(Suppliers) --> (SupplierService)
(SysAdmin) --> (AuditLog)
(SysAdmin) --> (Dashboard)
(SysAdmin) --> (SysInfo)
(user.route) --> (user.controller)

@enduml


' View and edit on https://arkit.pro
]]></script></g></svg>