<svg xmlns="http://www.w3.org/2000/svg" xmlns:xlink="http://www.w3.org/1999/xlink" width="1097" height="1634" contentScriptType="application/ecmascript" contentStyleType="text/css" style="width:1097px;height:1634px" preserveAspectRatio="none" version="1.1" viewBox="0 0 1097 1634" zoomAndPan="magnify"><g><path fill="#FFF" d="M98.0513,589.41 L140.0513,589.41 A4.5,4.5 0 0 1 143.0513,592.41 L150.0513,609.8944 L188.051,609.8944 A3,3 0 0 1 191.051,612.8944 L191.051,661.409 A3,3 0 0 1 188.051,664.409 L98.0513,664.409 A3,3 0 0 1 95.0513,661.409 L95.0513,592.41 A3,3 0 0 1 98.0513,589.41" style="stroke:#000;stroke-width:1.5"/><line style="stroke:#000;stroke-width:1.5" x1="95.051" x2="150.051" y1="609.894" y2="609.894"/><text x="99.051" y="603.416" fill="#000" font-family="Tahoma, sans-serif" font-size="12" font-weight="bold" lengthAdjust="spacingAndGlyphs" textLength="42">Server</text><path fill="#FFF" d="M66.0513,283.41 L88.0513,283.41 A4.5,4.5 0 0 1 91.0513,286.41 L98.0513,303.8944 L220.051,303.8944 A3,3 0 0 1 223.051,306.8944 L223.051,562.41 A3,3 0 0 1 220.051,565.41 L66.0513,565.41 A3,3 0 0 1 63.0513,562.41 L63.0513,286.41 A3,3 0 0 1 66.0513,283.41" style="stroke:#000;stroke-width:1.5"/><line style="stroke:#000;stroke-width:1.5" x1="63.051" x2="98.051" y1="303.894" y2="303.894"/><text x="67.051" y="297.416" fill="#000" font-family="Tahoma, sans-serif" font-size="12" font-weight="bold" lengthAdjust="spacingAndGlyphs" textLength="22">API</text><path fill="#FFF" d="M63.5513,24.41 L110.5513,24.41 A4.5,4.5 0 0 1 113.5513,27.41 L120.5513,44.8944 L222.551,44.8944 A3,3 0 0 1 225.551,47.8944 L225.551,256.41 A3,3 0 0 1 222.551,259.41 L63.5513,259.41 A3,3 0 0 1 60.5513,256.41 L60.5513,27.41 A3,3 0 0 1 63.5513,24.41" style="stroke:#000;stroke-width:1.5"/><line style="stroke:#000;stroke-width:1.5" x1="60.551" x2="120.551" y1="44.894" y2="44.894"/><text x="64.551" y="38.416" fill="#000" font-family="Tahoma, sans-serif" font-size="12" font-weight="bold" lengthAdjust="spacingAndGlyphs" textLength="47">Models</text><path fill="#FFF" d="M252.551,275.41 L317.551,275.41 A4.5,4.5 0 0 1 320.551,278.41 L327.551,295.8944 L427.551,295.8944 A3,3 0 0 1 430.551,298.8944 L430.551,571.41 A3,3 0 0 1 427.551,574.41 L252.551,574.41 A3,3 0 0 1 249.551,571.41 L249.551,278.41 A3,3 0 0 1 252.551,275.41" style="stroke:#000;stroke-width:1.5"/><line style="stroke:#000;stroke-width:1.5" x1="249.551" x2="327.551" y1="295.894" y2="295.894"/><text x="253.551" y="289.416" fill="#000" font-family="Tahoma, sans-serif" font-size="12" font-weight="bold" lengthAdjust="spacingAndGlyphs" textLength="65">Functions</text><path fill="#FFF" d="M101.5513,807.409 L139.5513,807.409 A4.5,4.5 0 0 1 142.5513,810.409 L149.5513,827.8934 L184.551,827.8934 A3,3 0 0 1 187.551,830.8934 L187.551,879.409 A3,3 0 0 1 184.551,882.409 L101.5513,882.409 A3,3 0 0 1 98.5513,879.409 L98.5513,810.409 A3,3 0 0 1 101.5513,807.409" style="stroke:#000;stroke-width:1.5"/><line style="stroke:#000;stroke-width:1.5" x1="98.551" x2="149.551" y1="827.893" y2="827.893"/><text x="102.551" y="821.415" fill="#000" font-family="Tahoma, sans-serif" font-size="12" font-weight="bold" lengthAdjust="spacingAndGlyphs" textLength="38">Client</text><path fill="#FFF" d="M72.5513,906.409 L154.5513,906.409 A4.5,4.5 0 0 1 157.5513,909.409 L164.5513,926.8934 L213.551,926.8934 A3,3 0 0 1 216.551,929.8934 L216.551,1130.409 A3,3 0 0 1 213.551,1133.409 L72.5513,1133.409 A3,3 0 0 1 69.5513,1130.409 L69.5513,909.409 A3,3 0 0 1 72.5513,906.409" style="stroke:#000;stroke-width:1.5"/><line style="stroke:#000;stroke-width:1.5" x1="69.551" x2="164.551" y1="926.893" y2="926.893"/><text x="73.551" y="920.415" fill="#000" font-family="Tahoma, sans-serif" font-size="12" font-weight="bold" lengthAdjust="spacingAndGlyphs" textLength="82">Permissions</text><path fill="#FFF" d="M272.051,807.409 L312.051,807.409 A4.5,4.5 0 0 1 315.051,810.409 L322.051,827.8934 L408.051,827.8934 A3,3 0 0 1 411.051,830.8934 L411.051,1231.409 A3,3 0 0 1 408.051,1234.409 L272.051,1234.409 A3,3 0 0 1 269.051,1231.409 L269.051,810.409 A3,3 0 0 1 272.051,807.409" style="stroke:#000;stroke-width:1.5"/><line style="stroke:#000;stroke-width:1.5" x1="269.051" x2="322.051" y1="827.893" y2="827.893"/><text x="273.051" y="821.415" fill="#000" font-family="Tahoma, sans-serif" font-size="12" font-weight="bold" lengthAdjust="spacingAndGlyphs" textLength="40">Pages</text><path fill="#FFF" d="M500.551,530.41 L572.551,530.41 A4.5,4.5 0 0 1 575.551,533.41 L582.551,550.8944 L845.551,550.8944 A3,3 0 0 1 848.551,553.8944 L848.551,1439.409 A3,3 0 0 1 845.551,1442.409 L500.551,1442.409 A3,3 0 0 1 497.551,1439.409 L497.551,533.41 A3,3 0 0 1 500.551,530.41" style="stroke:#000;stroke-width:1.5"/><line style="stroke:#000;stroke-width:1.5" x1="497.551" x2="582.551" y1="550.894" y2="550.894"/><text x="501.551" y="544.416" fill="#000" font-family="Tahoma, sans-serif" font-size="12" font-weight="bold" lengthAdjust="spacingAndGlyphs" textLength="72">Containers</text><path fill="#FFF" d="M918.551,1063.409 L975.551,1063.409 A4.5,4.5 0 0 1 978.551,1066.409 L985.551,1083.8934 L1082.55,1083.8934 A3,3 0 0 1 1085.55,1086.8934 L1085.55,1447.409 A3,3 0 0 1 1082.55,1450.409 L918.551,1450.409 A3,3 0 0 1 915.551,1447.409 L915.551,1066.409 A3,3 0 0 1 918.551,1063.409" style="stroke:#000;stroke-width:1.5"/><line style="stroke:#000;stroke-width:1.5" x1="915.551" x2="985.551" y1="1083.893" y2="1083.893"/><text x="919.551" y="1077.415" fill="#000" font-family="Tahoma, sans-serif" font-size="12" font-weight="bold" lengthAdjust="spacingAndGlyphs" textLength="57">Services</text><ellipse cx="143.042" cy="635.651" fill="#F8F8F8" rx="31.991" ry="13.242" style="stroke:#383838;stroke-width:.5"/><text x="122.542" y="639.393" fill="#000" font-family="Tahoma, sans-serif" font-size="12" font-weight="bold" lengthAdjust="spacingAndGlyphs" textLength="41">server</text><ellipse cx="143.063" cy="329.652" fill="#F8F8F8" rx="44.012" ry="13.242" style="stroke:#383838;stroke-width:.5"/><text x="114.063" y="333.394" fill="#000" font-family="Tahoma, sans-serif" font-size="12" lengthAdjust="spacingAndGlyphs" textLength="58">auth.route</text><ellipse cx="142.904" cy="380.481" fill="#F8F8F8" rx="55.853" ry="13.571" style="stroke:#383838;stroke-width:.5"/><text x="104.404" y="384.223" fill="#000" font-family="Tahoma, sans-serif" font-size="12" lengthAdjust="spacingAndGlyphs" textLength="77">product.route</text><ellipse cx="143.27" cy="431.554" fill="#F8F8F8" rx="56.219" ry="13.644" style="stroke:#383838;stroke-width:.5"/><text x="104.27" y="435.296" fill="#000" font-family="Tahoma, sans-serif" font-size="12" lengthAdjust="spacingAndGlyphs" textLength="78">supplier.route</text><ellipse cx="142.979" cy="484.596" fill="#F8F8F8" rx="63.928" ry="15.186" style="stroke:#383838;stroke-width:.5"/><text x="93.979" y="488.338" fill="#000" font-family="Tahoma, sans-serif" font-size="12" lengthAdjust="spacingAndGlyphs" textLength="98">transaction.route</text><ellipse cx="143.063" cy="536.652" fill="#F8F8F8" rx="44.012" ry="13.242" style="stroke:#383838;stroke-width:.5"/><text x="114.063" y="540.394" fill="#000" font-family="Tahoma, sans-serif" font-size="12" lengthAdjust="spacingAndGlyphs" textLength="58">user.route</text><ellipse cx="143.128" cy="121.425" fill="#F8F8F8" rx="58.077" ry="14.015" style="stroke:#383838;stroke-width:.5"/><text x="101.628" y="125.168" fill="#000" font-family="Tahoma, sans-serif" font-size="12" lengthAdjust="spacingAndGlyphs" textLength="83">product.model</text><ellipse cx="143.006" cy="173.501" fill="#F8F8F8" rx="58.455" ry="14.091" style="stroke:#383838;stroke-width:.5"/><text x="101.006" y="177.243" fill="#000" font-family="Tahoma, sans-serif" font-size="12" lengthAdjust="spacingAndGlyphs" textLength="84">supplier.model</text><ellipse cx="142.917" cy="227.583" fill="#F8F8F8" rx="66.366" ry="15.673" style="stroke:#383838;stroke-width:.5"/><text x="90.917" y="231.325" fill="#000" font-family="Tahoma, sans-serif" font-size="12" lengthAdjust="spacingAndGlyphs" textLength="104">transaction.model</text><ellipse cx="142.806" cy="70.652" fill="#F8F8F8" rx="48.255" ry="13.242" style="stroke:#383838;stroke-width:.5"/><text x="110.806" y="74.394" fill="#000" font-family="Tahoma, sans-serif" font-size="12" lengthAdjust="spacingAndGlyphs" textLength="64">user.model</text><ellipse cx="340.128" cy="322.425" fill="#F8F8F8" rx="58.077" ry="14.015" style="stroke:#383838;stroke-width:.5"/><text x="298.628" y="326.168" fill="#000" font-family="Tahoma, sans-serif" font-size="12" lengthAdjust="spacingAndGlyphs" textLength="83">auth.controller</text><ellipse cx="340.099" cy="376.42" fill="#F8F8F8" rx="65.548" ry="15.51" style="stroke:#383838;stroke-width:.5"/><text x="289.099" y="380.162" fill="#000" font-family="Tahoma, sans-serif" font-size="12" lengthAdjust="spacingAndGlyphs" textLength="102">product.controller</text><ellipse cx="340.007" cy="431.501" fill="#F8F8F8" rx="65.956" ry="15.591" style="stroke:#383838;stroke-width:.5"/><text x="288.507" y="435.243" fill="#000" font-family="Tahoma, sans-serif" font-size="12" lengthAdjust="spacingAndGlyphs" textLength="103">supplier.controller</text><ellipse cx="339.92" cy="488.184" fill="#F8F8F8" rx="74.369" ry="17.274" style="stroke:#383838;stroke-width:.5"/><text x="278.42" y="491.926" fill="#000" font-family="Tahoma, sans-serif" font-size="12" lengthAdjust="spacingAndGlyphs" textLength="123">transaction.controller</text><ellipse cx="340.128" cy="544.425" fill="#F8F8F8" rx="58.077" ry="14.015" style="stroke:#383838;stroke-width:.5"/><text x="298.628" y="548.168" fill="#000" font-family="Tahoma, sans-serif" font-size="12" lengthAdjust="spacingAndGlyphs" textLength="83">user.controller</text><ellipse cx="143.007" cy="853.651" fill="#F8F8F8" rx="28.456" ry="13.242" style="stroke:#383838;stroke-width:.5"/><text x="125.007" y="857.393" fill="#000" font-family="Tahoma, sans-serif" font-size="12" font-weight="bold" lengthAdjust="spacingAndGlyphs" textLength="36">Login</text><ellipse cx="143.3" cy="1054.651" fill="#F8F8F8" rx="27.749" ry="13.242" style="stroke:#383838;stroke-width:.5"/><text x="125.8" y="1058.393" fill="#000" font-family="Tahoma, sans-serif" font-size="12" lengthAdjust="spacingAndGlyphs" textLength="35">Admin</text><ellipse cx="142.957" cy="952.651" fill="#F8F8F8" rx="33.406" ry="13.242" style="stroke:#383838;stroke-width:.5"/><text x="121.457" y="956.393" fill="#000" font-family="Tahoma, sans-serif" font-size="12" lengthAdjust="spacingAndGlyphs" textLength="43">Cashier</text><ellipse cx="143.252" cy="1003.349" fill="#F8F8F8" rx="57.701" ry="13.94" style="stroke:#383838;stroke-width:.5"/><text x="102.252" y="1007.091" fill="#000" font-family="Tahoma, sans-serif" font-size="12" lengthAdjust="spacingAndGlyphs" textLength="82">InventoryClerk</text><ellipse cx="143.149" cy="1104.651" fill="#F8F8F8" rx="42.598" ry="13.242" style="stroke:#383838;stroke-width:.5"/><text x="115.149" y="1108.393" fill="#000" font-family="Tahoma, sans-serif" font-size="12" lengthAdjust="spacingAndGlyphs" textLength="56">SysAdmin</text><ellipse cx="340.099" cy="1205.651" fill="#F8F8F8" rx="47.548" ry="13.242" style="stroke:#383838;stroke-width:.5"/><text x="308.599" y="1209.393" fill="#000" font-family="Tahoma, sans-serif" font-size="12" lengthAdjust="spacingAndGlyphs" textLength="63">Dashboard</text><ellipse cx="340.235" cy="953.651" fill="#F8F8F8" rx="41.184" ry="13.242" style="stroke:#383838;stroke-width:.5"/><text x="313.235" y="957.393" fill="#000" font-family="Tahoma, sans-serif" font-size="12" lengthAdjust="spacingAndGlyphs" textLength="54">Inventory</text><ellipse cx="340.134" cy="853.651" fill="#F8F8F8" rx="51.083" ry="13.242" style="stroke:#383838;stroke-width:.5"/><text x="306.134" y="857.393" fill="#000" font-family="Tahoma, sans-serif" font-size="12" lengthAdjust="spacingAndGlyphs" textLength="68">PointOfSale</text><ellipse cx="340.128" cy="1003.651" fill="#F8F8F8" rx="30.577" ry="13.242" style="stroke:#383838;stroke-width:.5"/><text x="320.628" y="1007.393" fill="#000" font-family="Tahoma, sans-serif" font-size="12" lengthAdjust="spacingAndGlyphs" textLength="39">Recent</text><ellipse cx="340.028" cy="903.651" fill="#F8F8F8" rx="40.477" ry="13.242" style="stroke:#383838;stroke-width:.5"/><text x="313.528" y="907.393" fill="#000" font-family="Tahoma, sans-serif" font-size="12" lengthAdjust="spacingAndGlyphs" textLength="53">Suppliers</text><ellipse cx="339.871" cy="1155.651" fill="#F8F8F8" rx="34.82" ry="13.242" style="stroke:#383838;stroke-width:.5"/><text x="317.371" y="1159.393" fill="#000" font-family="Tahoma, sans-serif" font-size="12" lengthAdjust="spacingAndGlyphs" textLength="45">SysInfo</text><ellipse cx="340.18" cy="1054.335" fill="#F8F8F8" rx="55.13" ry="13.426" style="stroke:#383838;stroke-width:.5"/><text x="302.68" y="1058.077" fill="#000" font-family="Tahoma, sans-serif" font-size="12" lengthAdjust="spacingAndGlyphs" textLength="75">Transactions</text><ellipse cx="339.885" cy="1105.651" fill="#F8F8F8" rx="26.334" ry="13.242" style="stroke:#383838;stroke-width:.5"/><text x="323.385" y="1109.393" fill="#000" font-family="Tahoma, sans-serif" font-size="12" lengthAdjust="spacingAndGlyphs" textLength="33">Users</text><ellipse cx="584.041" cy="1412.407" fill="#F8F8F8" rx="55.49" ry="13.498" style="stroke:#383838;stroke-width:.5"/><text x="546.041" y="1416.149" fill="#000" font-family="Tahoma, sans-serif" font-size="12" lengthAdjust="spacingAndGlyphs" textLength="76">Development</text><ellipse cx="584.256" cy="576.652" fill="#F8F8F8" rx="53.205" ry="13.242" style="stroke:#383838;stroke-width:.5"/><text x="548.756" y="580.394" fill="#000" font-family="Tahoma, sans-serif" font-size="12" lengthAdjust="spacingAndGlyphs" textLength="71">PosControls</text><rect style="stroke:#000;stroke-width:.5" width="83" height="34.484" x="726.551" y="563.41" fill="#F8F8F8" rx="3" ry="3"/><text x="736.551" y="585.416" fill="#000" font-family="Tahoma, sans-serif" font-size="12" lengthAdjust="spacingAndGlyphs" textLength="63">PosModals</text><ellipse cx="584.035" cy="833.306" fill="#F8F8F8" rx="59.984" ry="14.397" style="stroke:#383838;stroke-width:.5"/><text x="540.035" y="837.048" fill="#000" font-family="Tahoma, sans-serif" font-size="12" lengthAdjust="spacingAndGlyphs" textLength="88">ProductCatalog</text><ellipse cx="583.979" cy="887.595" fill="#F8F8F8" rx="63.928" ry="15.186" style="stroke:#383838;stroke-width:.5"/><text x="534.979" y="891.337" fill="#000" font-family="Tahoma, sans-serif" font-size="12" lengthAdjust="spacingAndGlyphs" textLength="98">ProductInventory</text><rect style="stroke:#000;stroke-width:.5" width="105" height="34.484" x="715.551" y="679.409" fill="#F8F8F8" rx="3" ry="3"/><text x="725.551" y="701.415" fill="#000" font-family="Tahoma, sans-serif" font-size="12" lengthAdjust="spacingAndGlyphs" textLength="85">ProductModals</text><ellipse cx="583.904" cy="940.48" fill="#F8F8F8" rx="55.853" ry="13.571" style="stroke:#383838;stroke-width:.5"/><text x="545.404" y="944.222" fill="#000" font-family="Tahoma, sans-serif" font-size="12" lengthAdjust="spacingAndGlyphs" textLength="77">ProductsCard</text><ellipse cx="583.811" cy="992.461" fill="#F8F8F8" rx="60.76" ry="14.552" style="stroke:#383838;stroke-width:.5"/><text x="538.811" y="996.203" fill="#000" font-family="Tahoma, sans-serif" font-size="12" lengthAdjust="spacingAndGlyphs" textLength="90">RecentProducts</text><ellipse cx="584.094" cy="780.617" fill="#F8F8F8" rx="61.543" ry="14.709" style="stroke:#383838;stroke-width:.5"/><text x="538.094" y="784.36" fill="#000" font-family="Tahoma, sans-serif" font-size="12" lengthAdjust="spacingAndGlyphs" textLength="92">RecentSuppliers</text><ellipse cx="584.081" cy="1047.415" fill="#F8F8F8" rx="70.529" ry="16.506" style="stroke:#383838;stroke-width:.5"/><text x="527.081" y="1051.157" fill="#000" font-family="Tahoma, sans-serif" font-size="12" lengthAdjust="spacingAndGlyphs" textLength="114">RecentTransactions</text><ellipse cx="583.963" cy="1211.651" fill="#F8F8F8" rx="53.912" ry="13.242" style="stroke:#383838;stroke-width:.5"/><text x="547.963" y="1215.393" fill="#000" font-family="Tahoma, sans-serif" font-size="12" lengthAdjust="spacingAndGlyphs" textLength="72">RecentUsers</text><ellipse cx="583.871" cy="1361.651" fill="#F8F8F8" rx="34.82" ry="13.242" style="stroke:#383838;stroke-width:.5"/><text x="561.371" y="1365.393" fill="#000" font-family="Tahoma, sans-serif" font-size="12" lengthAdjust="spacingAndGlyphs" textLength="45">Release</text><ellipse cx="584.214" cy="626.651" fill="#F8F8F8" rx="29.163" ry="13.242" style="stroke:#383838;stroke-width:.5"/><text x="565.714" y="630.393" fill="#000" font-family="Tahoma, sans-serif" font-size="12" lengthAdjust="spacingAndGlyphs" textLength="37">Status</text><rect style="stroke:#000;stroke-width:.5" width="107" height="34.484" x="714.551" y="621.409" fill="#F8F8F8" rx="3" ry="3"/><text x="724.551" y="643.415" fill="#000" font-family="Tahoma, sans-serif" font-size="12" lengthAdjust="spacingAndGlyphs" textLength="87">SupplierModals</text><ellipse cx="584.137" cy="728.626" fill="#F8F8F8" rx="56.586" ry="13.717" style="stroke:#383838;stroke-width:.5"/><text x="544.637" y="732.368" fill="#000" font-family="Tahoma, sans-serif" font-size="12" lengthAdjust="spacingAndGlyphs" textLength="79">SuppliersCard</text><ellipse cx="583.966" cy="677.192" fill="#F8F8F8" rx="54.415" ry="13.283" style="stroke:#383838;stroke-width:.5"/><text x="547.466" y="680.934" fill="#000" font-family="Tahoma, sans-serif" font-size="12" lengthAdjust="spacingAndGlyphs" textLength="73">SuppliersList</text><rect style="stroke:#000;stroke-width:.5" width="129" height="34.484" x="703.551" y="737.409" fill="#F8F8F8" rx="3" ry="3"/><text x="713.551" y="759.415" fill="#000" font-family="Tahoma, sans-serif" font-size="12" lengthAdjust="spacingAndGlyphs" textLength="109">TransactionModals</text><ellipse cx="584.192" cy="1158.337" fill="#F8F8F8" rx="65.141" ry="15.428" style="stroke:#383838;stroke-width:.5"/><text x="533.692" y="1162.079" fill="#000" font-family="Tahoma, sans-serif" font-size="12" lengthAdjust="spacingAndGlyphs" textLength="101">TransactionsCard</text><ellipse cx="584.279" cy="1103.355" fill="#F8F8F8" rx="62.728" ry="14.946" style="stroke:#383838;stroke-width:.5"/><text x="536.779" y="1107.097" fill="#000" font-family="Tahoma, sans-serif" font-size="12" lengthAdjust="spacingAndGlyphs" textLength="95">TransactionsList</text><rect style="stroke:#000;stroke-width:.5" width="87" height="34.484" x="724.551" y="795.409" fill="#F8F8F8" rx="3" ry="3"/><text x="734.551" y="817.415" fill="#000" font-family="Tahoma, sans-serif" font-size="12" lengthAdjust="spacingAndGlyphs" textLength="67">UserModals</text><ellipse cx="584.27" cy="1261.651" fill="#F8F8F8" rx="44.719" ry="13.242" style="stroke:#383838;stroke-width:.5"/><text x="554.77" y="1265.393" fill="#000" font-family="Tahoma, sans-serif" font-size="12" lengthAdjust="spacingAndGlyphs" textLength="59">UsersCard</text><ellipse cx="584.028" cy="1311.651" fill="#F8F8F8" rx="40.477" ry="13.242" style="stroke:#383838;stroke-width:.5"/><text x="557.528" y="1315.393" fill="#000" font-family="Tahoma, sans-serif" font-size="12" lengthAdjust="spacingAndGlyphs" textLength="53">UsersList</text><ellipse cx="1000.77" cy="1109.651" fill="#F8F8F8" rx="44.719" ry="13.242" style="stroke:#383838;stroke-width:.5"/><text x="971.27" y="1113.393" fill="#000" font-family="Tahoma, sans-serif" font-size="12" lengthAdjust="spacingAndGlyphs" textLength="59">ApiService</text><ellipse cx="1000.321" cy="1421.651" fill="#F8F8F8" rx="39.77" ry="13.242" style="stroke:#383838;stroke-width:.5"/><text x="974.321" y="1425.393" fill="#000" font-family="Tahoma, sans-serif" font-size="12" lengthAdjust="spacingAndGlyphs" textLength="52">Commits</text><ellipse cx="1000.767" cy="1214.652" fill="#F8F8F8" rx="59.216" ry="14.243" style="stroke:#383838;stroke-width:.5"/><text x="957.767" y="1218.394" fill="#000" font-family="Tahoma, sans-serif" font-size="12" lengthAdjust="spacingAndGlyphs" textLength="86">ProductService</text><ellipse cx="1000.321" cy="1371.651" fill="#F8F8F8" rx="39.77" ry="13.242" style="stroke:#383838;stroke-width:.5"/><text x="974.321" y="1375.393" fill="#000" font-family="Tahoma, sans-serif" font-size="12" lengthAdjust="spacingAndGlyphs" textLength="52">Releases</text><ellipse cx="1000.535" cy="1161.306" fill="#F8F8F8" rx="59.984" ry="14.397" style="stroke:#383838;stroke-width:.5"/><text x="956.535" y="1165.048" fill="#000" font-family="Tahoma, sans-serif" font-size="12" lengthAdjust="spacingAndGlyphs" textLength="88">SupplierService</text><ellipse cx="1000.401" cy="1268.579" fill="#F8F8F8" rx="68.85" ry="16.17" style="stroke:#383838;stroke-width:.5"/><text x="945.401" y="1272.321" fill="#000" font-family="Tahoma, sans-serif" font-size="12" lengthAdjust="spacingAndGlyphs" textLength="110">TransactionService</text><ellipse cx="1000.634" cy="1321.651" fill="#F8F8F8" rx="51.083" ry="13.242" style="stroke:#383838;stroke-width:.5"/><text x="966.634" y="1325.393" fill="#000" font-family="Tahoma, sans-serif" font-size="12" lengthAdjust="spacingAndGlyphs" textLength="68">UserService</text><path id="Admin-&gt;Dashboard" fill="none" d="M170.713,1054.188 C191.206,1055.574 218.479,1061.099 233.551,1079.409 C247.861,1096.791 227.057,1163.18 241.551,1180.409 C252.817,1193.799 270.188,1200.539 287.164,1203.783" style="stroke:#000;stroke-width:.5"/><polygon fill="#000" points="292.413 1204.68 284.218 1199.218 287.485 1203.836 282.867 1207.103 292.413 1204.68" style="stroke:#000;stroke-width:.5"/><path id="Admin-&gt;Inventory" fill="none" d="M170.753,1054.276 C190.987,1052.664 217.896,1047.008 233.551,1029.409 C248.801,1012.266 226.12,995.387 241.551,978.409 C254.658,963.988 274.847,957.387 293.461,954.529" style="stroke:#000;stroke-width:.5"/><polygon fill="#000" points="298.662 953.819 289.203 951.075 293.708 954.496 290.287 959.001 298.662 953.819" style="stroke:#000;stroke-width:.5"/><path id="Admin-&gt;PointOfSale" fill="none" d="M170.844,1054.736 C191.41,1053.41 218.719,1047.913 233.551,1029.409 C254.567,1003.189 220.256,904.402 241.551,878.409 C252.039,865.607 268.11,858.856 284.198,855.43" style="stroke:#000;stroke-width:.5"/><polygon fill="#000" points="289.186 854.471 279.592 852.243 284.276 855.415 281.103 860.099 289.186 854.471" style="stroke:#000;stroke-width:.5"/><path id="Admin-&gt;Recent" fill="none" d="M167.573,1048.257 C202.861,1039.028 269.512,1021.596 308.512,1011.396" style="stroke:#000;stroke-width:.5"/><polygon fill="#000" points="313.593 1010.067 303.874 1008.473 308.755 1011.331 305.897 1016.213 313.593 1010.067" style="stroke:#000;stroke-width:.5"/><path id="Admin-&gt;Suppliers" fill="none" d="M170.713,1054.629 C191.206,1053.244 218.479,1047.718 233.551,1029.409 C247.861,1012.026 227.057,945.637 241.551,928.409 C254.302,913.252 274.875,906.616 293.843,903.927" style="stroke:#000;stroke-width:.5"/><polygon fill="#000" points="299.143 903.269 289.719 900.408 294.181 903.885 290.704 908.347 299.143 903.269" style="stroke:#000;stroke-width:.5"/><path id="Admin-&gt;SysInfo" fill="none" d="M170.753,1054.541 C190.987,1056.153 217.896,1061.81 233.551,1079.409 C248.801,1096.551 226.12,1113.43 241.551,1130.409 C256.179,1146.502 279.627,1152.857 299.862,1155.138" style="stroke:#000;stroke-width:.5"/><polygon fill="#000" points="304.93 1155.633 296.363 1150.775 299.954 1155.146 295.583 1158.737 304.93 1155.633" style="stroke:#000;stroke-width:.5"/><path id="Admin-&gt;Transactions" fill="none" d="M170.756,1054.409 C198.594,1054.409 243.135,1054.409 279.404,1054.409" style="stroke:#000;stroke-width:.5"/><polygon fill="#000" points="284.692 1054.409 275.692 1050.409 279.692 1054.409 275.692 1058.409 284.692 1054.409" style="stroke:#000;stroke-width:.5"/><path id="Admin-&gt;Users" fill="none" d="M167.281,1060.67 C187.024,1065.976 216.128,1073.76 241.551,1080.409 C264.886,1086.511 291.4,1093.301 310.883,1098.262" style="stroke:#000;stroke-width:.5"/><polygon fill="#000" points="316.183 1099.611 308.447 1093.515 311.337 1098.378 306.475 1101.268 316.183 1099.611" style="stroke:#000;stroke-width:.5"/><path id="auth.route-&gt;auth.controller" fill="none" d="M186.845,327.87 C213.446,326.92 248.08,325.67 277.589,324.61" style="stroke:#000;stroke-width:.5"/><polygon fill="#000" points="282.656 324.43 273.519 320.754 277.659 324.608 273.805 328.749 282.656 324.43" style="stroke:#000;stroke-width:.5"/><path id="Cashier-&gt;PointOfSale" fill="none" d="M156.5,940.292 C174.04,923.883 207.685,894.773 241.551,878.409 C257.094,870.899 275.159,865.462 291.485,861.617" style="stroke:#000;stroke-width:.5"/><polygon fill="#000" points="296.491 860.474 286.826 858.578 291.616 861.587 288.607 866.377 296.491 860.474" style="stroke:#000;stroke-width:.5"/><path id="Development-&gt;Commits" fill="none" d="M589.34,1425.876 C601.082,1460.167 637.371,1550.5228 703.551,1585.4085 C773.928,1622.506 811.824,1621.8321 882.551,1585.4085 C943.306,1554.1207 979.477,1475.056 993.199,1439.372" style="stroke:#000;stroke-width:.5"/><polygon fill="#000" points="995.06 1434.433 988.144 1441.445 993.297 1439.112 995.63 1444.265 995.06 1434.433" style="stroke:#000;stroke-width:.5"/><path id="Inventory-&gt;ProductInventory" fill="none" d="M372.72,945.505 C391.82,940.685 416.62,934.331 438.551,928.409 C472.107,919.348 509.893,908.607 538.407,900.393" style="stroke:#000;stroke-width:.5"/><polygon fill="#000" points="543.26 898.993 533.504 897.644 538.456 900.379 535.721 905.331 543.26 898.993" style="stroke:#000;stroke-width:.5"/><path id="Inventory-&gt;ProductsCard" fill="none" d="M380.742,951.276 C419.735,949.182 479.695,945.961 524.227,943.569" style="stroke:#000;stroke-width:.5"/><polygon fill="#000" points="529.305 943.296 520.103 939.785 524.312 943.565 520.533 947.774 529.305 943.296" style="stroke:#000;stroke-width:.5"/><path id="InventoryClerk-&gt;Inventory" fill="none" d="M183.512,993.29 C218.41,984.342 268.904,971.395 302.8,962.704" style="stroke:#000;stroke-width:.5"/><polygon fill="#000" points="307.677 961.453 297.965 959.816 302.834 962.696 299.954 967.565 307.677 961.453" style="stroke:#000;stroke-width:.5"/><path id="InventoryClerk-&gt;Recent" fill="none" d="M200.715,1003.409 C234.167,1003.409 275.447,1003.409 304.166,1003.409" style="stroke:#000;stroke-width:.5"/><polygon fill="#000" points="309.377 1003.409 300.377 999.409 304.377 1003.409 300.377 1007.409 309.377 1003.409" style="stroke:#000;stroke-width:.5"/><path id="InventoryClerk-&gt;Suppliers" fill="none" d="M196.896,998.283 C210.583,994.47 224.109,988.067 233.551,977.409 C248.183,960.891 226.659,944.692 241.551,928.409 C254.811,913.911 275.229,907.325 293.961,904.499" style="stroke:#000;stroke-width:.5"/><polygon fill="#000" points="299.192 903.798 289.74 901.029 294.236 904.462 290.803 908.958 299.192 903.798" style="stroke:#000;stroke-width:.5"/><path id="InventoryClerk-&gt;Transactions" fill="none" d="M183.044,1013.607 C215.989,1022.223 263.078,1034.539 296.891,1043.382" style="stroke:#000;stroke-width:.5"/><polygon fill="#000" points="301.78 1044.661 294.085 1038.514 296.943 1043.396 292.061 1046.253 301.78 1044.661" style="stroke:#000;stroke-width:.5"/><path id="&lt;b&gt;Login&lt;/b&gt;-&gt;Admin" fill="none" d="M121.21,861.937 C93.6591,874.031 47.5333,899.053 28.0513,937.409 C11.9497,969.109 9.2349,987.24 28.0513,1017.409 C45.0308,1044.632 82.783,1052.532 110.418,1054.481" style="stroke:#000;stroke-width:1"/><polygon fill="#000" points="115.453 1054.779 106.705 1050.254 110.462 1054.483 106.232 1058.24 115.453 1054.779" style="stroke:#000;stroke-width:1"/><path id="&lt;b&gt;Login&lt;/b&gt;-&gt;Cashier" fill="none" d="M143.051,866.487 C143.051,889.039 143.051,911.591 143.051,934.143" style="stroke:#000;stroke-width:1"/><polygon fill="#000" points="143.051 939.26 147.051 930.26 143.051 934.26 139.051 930.26 143.051 939.26" style="stroke:#000;stroke-width:1"/><path id="&lt;b&gt;Login&lt;/b&gt;-&gt;InventoryClerk" fill="none" d="M121.048,861.862 C80.2342,878.869 -0.5614,919.534 28.0513,965.409 C39.6924,984.073 61.0234,993.829 82.1807,998.84" style="stroke:#000;stroke-width:1"/><polygon fill="#000" points="87.261 999.956 79.329 994.118 82.377 998.883 77.612 1001.931 87.261 999.956" style="stroke:#000;stroke-width:1"/><path id="&lt;b&gt;Login&lt;/b&gt;-&gt;Status" fill="none" d="M159.482,842.469 C206.711,809.429 354.314,709.437 489.551,652.409 C509.844,643.851 533.79,637.254 552.368,632.847" style="stroke:#000;stroke-width:1"/><polygon fill="#000" points="557.458 631.662 547.785 629.808 552.588 632.796 549.6 637.599 557.458 631.662" style="stroke:#000;stroke-width:1"/><path id="&lt;b&gt;Login&lt;/b&gt;-&gt;SysAdmin" fill="none" d="M121.21,861.937 C93.6591,874.031 47.5333,899.053 28.0513,937.409 C1.8862,988.922 -2.5254,1018.385 28.0513,1067.409 C42.1509,1090.014 70.5741,1099.296 95.6339,1102.911" style="stroke:#000;stroke-width:1"/><polygon fill="#000" points="100.596 1103.56 92.191 1098.425 95.638 1102.911 91.153 1106.358 100.596 1103.56" style="stroke:#000;stroke-width:1"/><path id="PointOfSale-&gt;PosControls" fill="none" d="M344.833,840.302 C357.603,798.461 403.227,667.003 489.551,601.41 C501.348,592.45 516.11,586.69 530.395,583" style="stroke:#000;stroke-width:.5"/><polygon fill="#000" points="535.63 581.73 525.941 579.965 530.771 582.909 527.827 587.739 535.63 581.73" style="stroke:#000;stroke-width:.5"/><path id="PointOfSale-&gt;ProductCatalog" fill="none" d="M388.863,849.457 C426.907,846.313 480.412,841.891 521.628,838.485" style="stroke:#000;stroke-width:.5"/><polygon fill="#000" points="526.847 838.054 517.548 834.808 521.864 838.465 518.207 842.781 526.847 838.054" style="stroke:#000;stroke-width:.5"/><path id="PosControls-&gt;_PosModals" fill="none" d="M637.205,577.55 C663.794,578.14 695.829,578.84 721.426,579.41" style="stroke:#000;stroke-width:.5;stroke-dasharray:7,7"/><polygon fill="#000" points="726.456 579.52 717.546 575.323 721.457 579.41 717.37 583.321 726.456 579.52" style="stroke:#000;stroke-width:.5"/><path id="product.route-&gt;product.controller" fill="none" d="M198.889,379.28 C220.777,378.83 246.238,378.31 269.408,377.84" style="stroke:#000;stroke-width:.5"/><polygon fill="#000" points="274.624 377.73 265.544 373.916 269.625 377.833 265.708 381.914 274.624 377.73" style="stroke:#000;stroke-width:.5"/><path id="ProductCatalog-&gt;ProductService" fill="none" d="M628.567,843.269 C638.199,847.225 647.594,852.738 654.551,860.409 C708.812,920.237 649.046,975.803 703.551,1035.409 C752.626,1089.076 801.889,1045.444 856.551,1093.409 C874.562,1109.212 888.871,1173.402 907.551,1188.409 C917.832,1196.668 930.594,1202.304 943.305,1206.151" style="stroke:#000;stroke-width:.5"/><polygon fill="#000" points="948.359 1207.591 940.798 1201.28 943.55 1206.222 938.608 1208.975 948.359 1207.591" style="stroke:#000;stroke-width:.5"/><path id="ProductInventory-&gt;_ProductModals" fill="none" d="M629.25,876.719 C638.518,872.817 647.583,867.535 654.551,860.409 C699.178,814.772 660.263,772.317 703.551,725.409 C706.623,722.08 710.152,719.105 713.938,716.451" style="stroke:#000;stroke-width:.5;stroke-dasharray:7,7"/><polygon fill="#000" points="718.489 713.482 708.766 715.05 714.302 716.214 713.137 721.75 718.489 713.482" style="stroke:#000;stroke-width:.5"/><path id="ProductInventory-&gt;ProductService" fill="none" d="M628.906,898.114 C638.412,902.193 647.666,907.78 654.551,915.409 C707.235,973.781 649.605,1028.201 703.551,1085.409 C753.024,1137.872 795.164,1101.573 856.551,1139.409 C883.31,1155.901 880.279,1172.779 907.551,1188.409 C919.864,1195.465 934.214,1200.708 947.868,1204.562" style="stroke:#000;stroke-width:.5"/><polygon fill="#000" points="952.861 1205.92 945.227 1199.698 948.036 1204.607 943.127 1207.417 952.861 1205.92" style="stroke:#000;stroke-width:.5"/><path id="ProductsCard-&gt;_ProductModals" fill="none" d="M627.567,931.72 C637.573,927.879 647.395,922.353 654.551,914.409 C712.63,849.933 647.779,791.889 703.551,725.409 C706.351,722.072 709.615,719.1 713.16,716.457" style="stroke:#000;stroke-width:.5;stroke-dasharray:7,7"/><polygon fill="#000" points="717.438 713.504 707.759 715.326 713.323 716.345 712.304 721.909 717.438 713.504" style="stroke:#000;stroke-width:.5"/><path id="ProductsCard-&gt;ProductService" fill="none" d="M627.051,949.1 C637.183,952.945 647.195,958.472 654.551,966.409 C707.716,1023.763 647.664,1080.704 703.551,1135.409 C721.334,1152.815 871.297,1186.989 950.685,1204.114" style="stroke:#000;stroke-width:.5"/><polygon fill="#000" points="955.81 1205.217 947.854 1199.412 950.922 1204.164 946.17 1207.232 955.81 1205.217" style="stroke:#000;stroke-width:.5"/><path id="Recent-&gt;RecentProducts" fill="none" d="M370.725,1002.06 C407.38,1000.394 470.766,997.512 518.765,995.331" style="stroke:#000;stroke-width:.5"/><polygon fill="#000" points="523.948 995.095 514.776 991.508 518.953 995.322 515.139 999.5 523.948 995.095" style="stroke:#000;stroke-width:.5"/><path id="Recent-&gt;RecentSuppliers" fill="none" d="M370.744,1003.222 C392.23,1001.502 420.542,995.732 438.551,978.409 C495.709,923.429 433.228,863.243 489.551,807.409 C498.767,798.273 510.869,792.188 523.296,788.147" style="stroke:#000;stroke-width:.5"/><polygon fill="#000" points="528.256 786.643 518.482 785.427 523.471 788.094 520.804 793.083 528.256 786.643" style="stroke:#000;stroke-width:.5"/><path id="Recent-&gt;RecentTransactions" fill="none" d="M368.341,1008.37 C405.508,1015.128 473.069,1027.412 522.508,1036.401" style="stroke:#000;stroke-width:.5"/><polygon fill="#000" points="527.535 1037.315 519.395 1031.77 522.616 1036.421 517.965 1039.641 527.535 1037.315" style="stroke:#000;stroke-width:.5"/><path id="Recent-&gt;RecentUsers" fill="none" d="M370.644,1004.06 C392.078,1006.081 420.37,1012.174 438.551,1029.409 C491.798,1079.881 436.321,1135.918 489.551,1186.409 C499.866,1196.192 513.576,1202.24 527.31,1205.952" style="stroke:#000;stroke-width:.5"/><polygon fill="#000" points="532.365 1207.217 524.604 1201.154 527.514 1206.004 522.664 1208.915 532.365 1207.217" style="stroke:#000;stroke-width:.5"/><path id="RecentProducts-&gt;_ProductModals" fill="none" d="M630.383,982.966 C639.486,979.171 648.194,973.855 654.551,966.409 C725.525,883.283 635.549,810.981 703.551,725.409 C706.207,722.067 709.334,719.096 712.752,716.457" style="stroke:#000;stroke-width:.5;stroke-dasharray:7,7"/><polygon fill="#000" points="716.887 713.508 707.236 715.474 712.815 716.41 711.879 721.989 716.887 713.508" style="stroke:#000;stroke-width:.5"/><path id="RecentProducts-&gt;ProductService" fill="none" d="M628.852,1002.488 C638.36,1006.43 647.628,1011.882 654.551,1019.409 C706.627,1076.026 644.258,1136.401 703.551,1185.409 C773.522,1243.242 886.989,1235.319 951.21,1224.679" style="stroke:#000;stroke-width:.5"/><polygon fill="#000" points="956.507 1223.777 946.964 1221.343 951.578 1224.616 948.305 1229.23 956.507 1223.777" style="stroke:#000;stroke-width:.5"/><path id="RecentSuppliers-&gt;_SupplierModals" fill="none" d="M627.33,769.942 C636.998,766.162 646.722,761.11 654.551,754.409 C688.266,725.552 670.874,697.434 703.551,667.409 C707.3,663.965 711.527,660.87 715.976,658.103" style="stroke:#000;stroke-width:.5;stroke-dasharray:7,7"/><polygon fill="#000" points="720.489 655.444 710.705 656.568 716.182 657.983 714.766 663.46 720.489 655.444" style="stroke:#000;stroke-width:.5"/><path id="RecentSuppliers-&gt;SupplierService" fill="none" d="M628.952,790.397 C638.456,794.342 647.698,799.819 654.551,807.409 C709.541,868.309 648.658,924.42 703.551,985.409 C752.416,1039.698 801.259,997.682 856.551,1045.409 C891.063,1075.197 871.759,1106.171 907.551,1134.409 C918.05,1142.691 931.019,1148.434 943.875,1152.416" style="stroke:#000;stroke-width:.5"/><polygon fill="#000" points="948.983 1153.911 941.469 1147.544 944.184 1152.507 939.222 1155.222 948.983 1153.911" style="stroke:#000;stroke-width:.5"/><path id="RecentTransactions-&gt;_TransactionModals" fill="none" d="M632.911,1035.438 C641.092,1031.504 648.795,1026.295 654.551,1019.409 C723.257,937.217 636.73,867.139 703.551,783.409 C706.214,780.072 709.346,777.105 712.767,774.469" style="stroke:#000;stroke-width:.5;stroke-dasharray:7,7"/><polygon fill="#000" points="716.906 771.523 707.255 773.485 712.833 774.423 711.895 780.002 716.906 771.523" style="stroke:#000;stroke-width:.5"/><path id="RecentTransactions-&gt;TransactionService" fill="none" d="M630.985,1059.847 C639.727,1063.948 648.135,1069.343 654.551,1076.409 C704.26,1131.154 646.588,1188.257 703.551,1235.409 C736.371,1262.576 849.596,1268.441 926.107,1269.172" style="stroke:#000;stroke-width:.5"/><polygon fill="#000" points="931.551 1269.216 922.583 1265.144 926.551 1269.176 922.519 1273.144 931.551 1269.216" style="stroke:#000;stroke-width:.5"/><path id="RecentUsers-&gt;_UserModals" fill="none" d="M626.977,1203.302 C637.109,1199.603 647.14,1194.224 654.551,1186.409 C752.344,1083.279 765.415,898.301 766.941,834.644" style="stroke:#000;stroke-width:.5;stroke-dasharray:7,7"/><polygon fill="#000" points="767.044 829.567 762.862 838.484 766.943 834.566 770.861 838.646 767.044 829.567" style="stroke:#000;stroke-width:.5"/><path id="RecentUsers-&gt;UserService" fill="none" d="M626.48,1219.513 C636.736,1223.215 646.951,1228.596 654.551,1236.409 C703.16,1286.377 647.081,1344.534 703.551,1385.409 C767.996,1432.056 812.749,1423.576 882.551,1385.409 C900.616,1375.531 890.952,1358.589 907.551,1346.409 C919.66,1337.523 934.744,1331.796 949.172,1328.104" style="stroke:#000;stroke-width:.5"/><polygon fill="#000" points="954.035 1326.928 944.347 1325.154 949.175 1328.102 946.226 1332.93 954.035 1326.928" style="stroke:#000;stroke-width:.5"/><path id="Release-&gt;Releases" fill="none" d="M616.079,1366.766 C629.471,1370.514 644.367,1376.827 654.551,1387.409 C702.6,1437.332 647.382,1494.837 703.551,1535.4085 C768.043,1581.9909 821.521,1586.4416 882.551,1535.4085 C930.704,1495.144 865.148,1442.689 907.551,1396.409 C919.711,1383.137 938.142,1376.63 955.322,1373.535" style="stroke:#000;stroke-width:.5"/><polygon fill="#000" points="960.605 1372.68 951.081 1370.171 955.669 1373.48 952.361 1378.068 960.605 1372.68" style="stroke:#000;stroke-width:.5"/><path id="&lt;b&gt;server&lt;/b&gt;-&gt;auth.route" fill="none" d="M119.768,626.243 C92.0765,613.919 47.1974,589.1 28.0513,551.41 C9.5345,514.95 6.4124,402.1 28.0513,367.41 C41.8684,345.26 69.3364,335.65 93.9626,331.64" style="stroke:#000;stroke-width:1"/><polygon fill="#000" points="99.168 330.86 89.677 328.229 94.223 331.596 90.856 336.142 99.168 330.86" style="stroke:#000;stroke-width:1"/><path id="&lt;b&gt;server&lt;/b&gt;-&gt;product.model" fill="none" d="M119.768,626.243 C92.0765,613.919 47.1974,589.1 28.0513,551.41 C8.3269,512.58 5.0012,196.36 28.0513,159.41 C39.5894,140.91 60.6466,131.16 81.619,126.11" style="stroke:#000;stroke-width:1"/><polygon fill="#000" points="86.656 124.99 77 123.054 81.777 126.083 78.748 130.86 86.656 124.99" style="stroke:#000;stroke-width:1"/><path id="&lt;b&gt;server&lt;/b&gt;-&gt;product.route" fill="none" d="M119.768,626.243 C92.0765,613.919 47.1974,589.1 28.0513,551.41 C1.2824,498.71 -3.231,468.56 28.0513,418.41 C39.8985,399.41 61.7815,389.65 83.3039,384.72" style="stroke:#000;stroke-width:1"/><polygon fill="#000" points="88.468 383.62 78.834 381.576 83.577 384.658 80.495 389.402 88.468 383.62" style="stroke:#000;stroke-width:1"/><path id="&lt;b&gt;server&lt;/b&gt;-&gt;supplier.model" fill="none" d="M119.768,626.243 C92.0765,613.919 47.1974,589.1 28.0513,551.41 C10.9434,517.73 8.0588,243.46 28.0513,211.41 C39.5379,192.99 60.4588,183.25 81.3381,178.18" style="stroke:#000;stroke-width:1"/><polygon fill="#000" points="86.354 177.05 76.695 175.125 81.476 178.148 78.453 182.929 86.354 177.05" style="stroke:#000;stroke-width:1"/><path id="&lt;b&gt;server&lt;/b&gt;-&gt;supplier.route" fill="none" d="M119.768,626.243 C92.0765,613.919 47.1974,589.1 28.0513,551.41 C11.5472,518.92 8.7644,500.33 28.0513,469.41 C39.8985,450.41 61.7815,440.65 83.3039,435.72" style="stroke:#000;stroke-width:1"/><polygon fill="#000" points="88.468 434.62 78.834 432.576 83.577 435.658 80.495 440.402 88.468 434.62" style="stroke:#000;stroke-width:1"/><path id="&lt;b&gt;server&lt;/b&gt;-&gt;transaction.model" fill="none" d="M119.768,626.243 C92.0765,613.919 47.1974,589.1 28.0513,551.41 C4.2008,504.45 4.5961,361.56 28.0513,314.41 C44.3877,281.57 79.6968,257.82 106.909,243.51" style="stroke:#000;stroke-width:1"/><polygon fill="#000" points="111.545 241.13 101.713 241.698 107.101 243.421 105.378 248.809 111.545 241.13" style="stroke:#000;stroke-width:1"/><path id="&lt;b&gt;server&lt;/b&gt;-&gt;transaction.route" fill="none" d="M119.773,626.421 C78.58,609.11 -0.2664,568.81 28.0513,523.41 C38.8509,506.09 57.925,496.3 77.4723,490.81" style="stroke:#000;stroke-width:1"/><polygon fill="#000" points="82.447 489.5 72.726 487.918 77.611 490.77 74.759 495.655 82.447 489.5" style="stroke:#000;stroke-width:1"/><path id="&lt;b&gt;server&lt;/b&gt;-&gt;user.model" fill="none" d="M119.768,626.243 C92.0765,613.919 47.1974,589.1 28.0513,551.41 C5.7104,507.42 1.9435,149.27 28.0513,107.41 C41.0559,86.56 66.2458,77.04 89.7429,72.85" style="stroke:#000;stroke-width:1"/><polygon fill="#000" points="94.726 72.04 85.198 69.547 89.792 72.848 86.491 77.442 94.726 72.04" style="stroke:#000;stroke-width:1"/><path id="&lt;b&gt;server&lt;/b&gt;-&gt;user.route" fill="none" d="M143.051,622.26 C143.051,599.71 143.051,577.16 143.051,554.6" style="stroke:#000;stroke-width:1"/><polygon fill="#000" points="143.051 549.49 139.051 558.49 143.051 554.49 147.051 558.49 143.051 549.49" style="stroke:#000;stroke-width:1"/><path id="Status-&gt;ApiService" fill="none" d="M611.867,630.301 C626.411,633.758 643.601,640.252 654.551,652.409 C712.63,716.885 643.729,778.547 703.551,841.409 C761.017,901.793 817.99,844.68 882.551,897.409 C947.676,950.598 982.459,1050.09 994.556,1091.06" style="stroke:#000;stroke-width:.5"/><polygon fill="#000" points="996.049 1096.215 997.386 1086.457 994.657 1091.413 989.702 1088.684 996.049 1096.215" style="stroke:#000;stroke-width:.5"/><path id="supplier.route-&gt;supplier.controller" fill="none" d="M199.149,431.41 C220.718,431.41 245.726,431.41 268.582,431.41" style="stroke:#000;stroke-width:.5"/><polygon fill="#000" points="273.728 431.41 264.728 427.41 268.728 431.41 264.728 435.41 273.728 431.41" style="stroke:#000;stroke-width:.5"/><path id="Suppliers-&gt;SuppliersCard" fill="none" d="M380.486,901.46 C399.942,898.628 422.596,892.284 438.551,878.409 C483.516,839.304 444.984,793.966 489.551,754.409 C499.988,745.145 513.46,739.154 526.909,735.288" style="stroke:#000;stroke-width:.5"/><polygon fill="#000" points="531.857 733.957 522.127 732.432 527.029 735.255 524.205 740.157 531.857 733.957" style="stroke:#000;stroke-width:.5"/><path id="Suppliers-&gt;SuppliersList" fill="none" d="M380.635,902.218 C400.371,899.609 423.233,893.236 438.551,878.409 C467.657,850.236 460.732,731.874 489.551,703.409 C499.694,693.391 513.345,687.155 527.078,683.295" style="stroke:#000;stroke-width:.5"/><polygon fill="#000" points="532.135 681.978 522.417 680.378 527.297 683.239 524.435 688.119 532.135 681.978" style="stroke:#000;stroke-width:.5"/><path id="SuppliersCard-&gt;_SupplierModals" fill="none" d="M620.185,717.977 C631.457,714.055 643.8,709.136 654.551,703.409 C678.402,690.703 680.249,681.094 703.551,667.409 C709.298,664.034 715.505,660.771 721.71,657.728" style="stroke:#000;stroke-width:.5;stroke-dasharray:7,7"/><polygon fill="#000" points="726.447 655.445 716.603 655.748 721.942 657.615 720.075 662.955 726.447 655.445" style="stroke:#000;stroke-width:.5"/><path id="SuppliersCard-&gt;SupplierService" fill="none" d="M627.509,737.15 C637.516,740.99 647.352,746.502 654.551,754.409 C710.66,816.031 648.105,873.189 703.551,935.409 C752.255,990.062 805.448,943.992 856.551,996.409 C879.374,1019.818 883.655,1112.096 907.551,1134.409 C917.111,1143.334 929.468,1149.324 942.006,1153.34" style="stroke:#000;stroke-width:.5"/><polygon fill="#000" points="947.003 1154.837 939.529 1148.423 942.213 1153.402 937.234 1156.086 947.003 1154.837" style="stroke:#000;stroke-width:.5"/><path id="SuppliersList-&gt;_SupplierModals" fill="none" d="M625.896,668.656 C650.463,663.392 682.122,656.608 709.231,650.799" style="stroke:#000;stroke-width:.5;stroke-dasharray:7,7"/><polygon fill="#000" points="714.237 649.726 704.599 647.7 709.348 650.773 706.274 655.522 714.237 649.726" style="stroke:#000;stroke-width:.5"/><path id="SuppliersList-&gt;SupplierService" fill="none" d="M626.8,685.861 C637.055,689.712 647.19,695.302 654.551,703.409 C711.152,765.744 647.443,823.629 703.551,886.409 C752.225,940.869 807.788,892.028 856.551,946.409 C871.001,962.523 892.405,1118.947 907.551,1134.409 C916.601,1143.646 928.631,1149.764 940.998,1153.804" style="stroke:#000;stroke-width:.5"/><polygon fill="#000" points="945.935 1155.306 938.487 1148.861 941.151 1153.852 936.161 1156.516 945.935 1155.306" style="stroke:#000;stroke-width:.5"/><path id="SysAdmin-&gt;Dashboard" fill="none" d="M156.434,1116.87 C173.898,1133.741 207.454,1163.661 241.551,1180.409 C257.614,1188.298 276.427,1193.876 293.221,1197.729" style="stroke:#000;stroke-width:.5"/><polygon fill="#000" points="298.362 1198.87 290.442 1193.016 293.481 1197.787 288.709 1200.826 298.362 1198.87" style="stroke:#000;stroke-width:.5"/><path id="SysAdmin-&gt;SysInfo" fill="none" d="M175.646,1112.916 C194.72,1118.032 219.518,1124.646 241.551,1130.409 C262.722,1135.945 286.511,1142.047 305.291,1146.837" style="stroke:#000;stroke-width:.5"/><polygon fill="#000" points="310.449 1148.151 302.717 1142.051 305.604 1146.915 300.74 1149.802 310.449 1148.151" style="stroke:#000;stroke-width:.5"/><path id="SysAdmin-&gt;Users" fill="none" d="M185.884,1104.623 C222.638,1104.812 275.264,1105.081 308.276,1105.251" style="stroke:#000;stroke-width:.5"/><polygon fill="#000" points="313.4 1105.277 304.421 1101.231 308.4 1105.251 304.38 1109.231 313.4 1105.277" style="stroke:#000;stroke-width:.5"/><path id="SysInfo-&gt;Development" fill="none" d="M375.153,1155.201 C396.411,1156.978 422.656,1162.977 438.551,1180.409 C485.865,1232.293 441.516,1269.738 463.551,1336.409 C471.412,1360.19 470.095,1370.635 489.551,1386.409 C500.741,1395.481 514.886,1401.393 528.764,1405.244" style="stroke:#000;stroke-width:.5"/><polygon fill="#000" points="533.859 1406.572 526.159 1400.431 529.021 1405.311 524.141 1408.172 533.859 1406.572" style="stroke:#000;stroke-width:.5"/><path id="SysInfo-&gt;Release" fill="none" d="M375.116,1155.235 C396.36,1157.025 422.601,1163.027 438.551,1180.409 C484.247,1230.206 417.926,1280.547 463.551,1330.409 C483.695,1352.422 517.271,1359.661 543.712,1361.684" style="stroke:#000;stroke-width:.5"/><polygon fill="#000" points="548.899 1362.022 540.177 1357.447 543.909 1361.698 539.659 1365.43 548.899 1362.022" style="stroke:#000;stroke-width:.5"/><path id="transaction.route-&gt;transaction.controller" fill="none" d="M206.824,485.7 C223.921,486.05 242.657,486.43 260.511,486.8" style="stroke:#000;stroke-width:.5"/><polygon fill="#000" points="265.521 486.9 256.605 482.716 260.522 486.797 256.441 490.714 265.521 486.9" style="stroke:#000;stroke-width:.5"/><path id="Transactions-&gt;TransactionsCard" fill="none" d="M387.103,1061.594 C404.03,1065.519 422.875,1071.473 438.551,1080.409 C466.129,1096.127 462.215,1114.273 489.551,1130.409 C501.508,1137.466 515.389,1142.874 528.738,1146.966" style="stroke:#000;stroke-width:.5"/><polygon fill="#000" points="533.628 1148.414 526.136 1142.021 528.834 1146.993 523.862 1149.691 533.628 1148.414" style="stroke:#000;stroke-width:.5"/><path id="Transactions-&gt;TransactionsList" fill="none" d="M382.928,1062.888 C423.83,1071.169 486.211,1083.8 530.441,1092.756" style="stroke:#000;stroke-width:.5"/><polygon fill="#000" points="535.471 1093.775 527.445 1088.067 530.571 1092.782 525.856 1095.908 535.471 1093.775" style="stroke:#000;stroke-width:.5"/><path id="TransactionsCard-&gt;_TransactionModals" fill="none" d="M631.491,1147.569 C640.309,1143.527 648.619,1137.989 654.551,1130.409 C750.543,1007.753 610.37,908.212 703.551,783.409 C705.944,780.204 708.775,777.343 711.892,774.792" style="stroke:#000;stroke-width:.5;stroke-dasharray:7,7"/><polygon fill="#000" points="716.304 771.5 706.698 773.675 712.296 774.49 711.481 780.087 716.304 771.5" style="stroke:#000;stroke-width:.5"/><path id="TransactionsCard-&gt;TransactionService" fill="none" d="M629.427,1169.611 C638.687,1173.653 647.703,1179.099 654.551,1186.409 C702.21,1237.284 647.081,1294.534 703.551,1335.409 C767.996,1382.056 812.749,1373.576 882.551,1335.409 C900.616,1325.531 891.137,1308.837 907.551,1296.409 C917.101,1289.177 928.525,1283.8 940.022,1279.805" style="stroke:#000;stroke-width:.5"/><polygon fill="#000" points="944.949 1278.177 935.148 1277.204 940.202 1279.747 937.66 1284.8 944.949 1278.177" style="stroke:#000;stroke-width:.5"/><path id="TransactionsList-&gt;_TransactionModals" fill="none" d="M630.962,1093.297 C639.922,1089.375 648.424,1083.939 654.551,1076.409 C737.877,973.993 623.224,888.192 703.551,783.409 C705.985,780.234 708.846,777.397 711.984,774.862" style="stroke:#000;stroke-width:.5;stroke-dasharray:7,7"/><polygon fill="#000" points="716.421 771.589 706.804 773.714 712.398 774.558 711.554 780.151 716.421 771.589" style="stroke:#000;stroke-width:.5"/><path id="TransactionsList-&gt;TransactionService" fill="none" d="M628.396,1114.097 C638.032,1118.184 647.473,1123.779 654.551,1131.409 C703.402,1184.064 645.572,1243.013 703.551,1285.409 C740.324,1312.297 867.75,1293.877 942.892,1279.947" style="stroke:#000;stroke-width:.5"/><polygon fill="#000" points="948.21 1278.953 938.628 1276.675 943.295 1279.872 940.098 1284.539 948.21 1278.953" style="stroke:#000;stroke-width:.5"/><path id="user.route-&gt;user.controller" fill="none" d="M186.845,538.16 C213.446,539.26 248.08,540.68 277.589,541.89" style="stroke:#000;stroke-width:.5"/><polygon fill="#000" points="282.656 542.09 273.827 537.726 277.66 541.886 273.5 545.719 282.656 542.09" style="stroke:#000;stroke-width:.5"/><path id="Users-&gt;UsersCard" fill="none" d="M366.958,1105.129 C388.928,1106.325 419.781,1111.615 438.551,1130.409 C470.317,1162.213 432.55,1195.859 463.551,1228.409 C481.775,1247.542 510.002,1255.914 534.447,1259.445" style="stroke:#000;stroke-width:.5"/><polygon fill="#000" points="539.601 1260.127 531.203 1254.981 534.644 1259.471 530.154 1262.912 539.601 1260.127" style="stroke:#000;stroke-width:.5"/><path id="Users-&gt;UsersList" fill="none" d="M366.589,1105.043 C388.627,1106.151 419.789,1111.361 438.551,1130.409 C489.74,1182.376 433.025,1240.303 489.551,1286.409 C503.476,1297.766 522.082,1303.997 539.029,1307.403" style="stroke:#000;stroke-width:.5"/><polygon fill="#000" points="544.228 1308.372 536.114 1302.789 539.313 1307.455 534.647 1310.653 544.228 1308.372" style="stroke:#000;stroke-width:.5"/><path id="UsersCard-&gt;_UserModals" fill="none" d="M622.808,1254.948 C634.375,1251.262 646.229,1245.479 654.551,1236.409 C763.947,1117.182 769.249,903.806 767.889,834.68" style="stroke:#000;stroke-width:.5;stroke-dasharray:7,7"/><polygon fill="#000" points="767.77 829.576 763.979 838.666 767.886 834.575 771.977 838.481 767.77 829.576" style="stroke:#000;stroke-width:.5"/><path id="UsersCard-&gt;UserService" fill="none" d="M622.502,1268.158 C634.048,1271.863 645.968,1277.585 654.551,1286.409 C703.16,1336.377 647.081,1394.534 703.551,1435.409 C767.996,1482.056 819.145,1483.458 882.551,1435.409 C915.297,1410.593 878.375,1375.337 907.551,1346.409 C917.914,1336.133 932.053,1329.97 946.136,1326.306" style="stroke:#000;stroke-width:.5"/><polygon fill="#000" points="951.315 1325.066 941.631 1323.272 946.452 1326.23 943.494 1331.052 951.315 1325.066" style="stroke:#000;stroke-width:.5"/><path id="UsersList-&gt;_UserModals" fill="none" d="M620.782,1305.74 C633.033,1302.111 645.836,1296.161 654.551,1286.409 C716.375,1217.222 754.862,918.455 764.602,834.454" style="stroke:#000;stroke-width:.5;stroke-dasharray:7,7"/><polygon fill="#000" points="765.176 829.465 760.174 837.949 764.605 834.432 768.121 838.863 765.176 829.465" style="stroke:#000;stroke-width:.5"/><path id="UsersList-&gt;UserService" fill="none" d="M620.343,1317.487 C632.545,1321.16 645.431,1327.033 654.551,1336.409 C703.16,1386.377 647.081,1444.534 703.551,1485.409 C767.996,1532.0555 821.521,1536.4416 882.551,1485.409 C930.704,1445.144 865.148,1392.689 907.551,1346.409 C917.41,1335.648 931.391,1329.335 945.486,1325.681" style="stroke:#000;stroke-width:.5"/><polygon fill="#000" points="950.676 1324.452 940.996 1322.635 945.811 1325.605 942.841 1330.419 950.676 1324.452" style="stroke:#000;stroke-width:.5"/><script type="text/plantuml"><![CDATA[MD5=[fa42eef3927c4119281a7af993635ff5]
@startuml

scale max 1920 width
left to right direction

skinparam nodesep 24
skinparam ranksep 49
skinparam monochrome true
skinparam shadowing false
skinparam defaultFontName Tahoma
skinparam defaultFontSize 12
skinparam roundCorner 6
skinparam dpi 150
skinparam arrowColor black
skinparam arrowThickness 0.5
skinparam packageTitleAlignment left

skinparam usecase {
  borderThickness 0.5
}

skinparam rectangle {
  borderThickness 0.5
}

skinparam component {
  borderThickness 1
}


package "Server" {
  (<b>server</b>)
}

package "API" {
  (auth.route)
  (product.route)
  (supplier.route)
  (transaction.route)
  (user.route)
}

package "Models" {
  (product.model)
  (supplier.model)
  (transaction.model)
  (user.model)
}

package "Functions" {
  (auth.controller)
  (product.controller)
  (supplier.controller)
  (transaction.controller)
  (user.controller)
}

package "Client" {
  (<b>Login</b>)
}

package "Permissions" {
  (Admin)
  (Cashier)
  (InventoryClerk)
  (SysAdmin)
}

package "Pages" {
  (Dashboard)
  (Inventory)
  (PointOfSale)
  (Recent)
  (Suppliers)
  (SysInfo)
  (Transactions)
  (Users)
}

package "Containers" {
  (Development)
  (PosControls)
  rectangle "PosModals" as _PosModals
  (ProductCatalog)
  (ProductInventory)
  rectangle "ProductModals" as _ProductModals
  (ProductsCard)
  (RecentProducts)
  (RecentSuppliers)
  (RecentTransactions)
  (RecentUsers)
  (Release)
  (Status)
  rectangle "SupplierModals" as _SupplierModals
  (SuppliersCard)
  (SuppliersList)
  rectangle "TransactionModals" as _TransactionModals
  (TransactionsCard)
  (TransactionsList)
  rectangle "UserModals" as _UserModals
  (UsersCard)
  (UsersList)
}

package "Services" {
  (ApiService)
  (Commits)
  (ProductService)
  (Releases)
  (SupplierService)
  (TransactionService)
  (UserService)
}

(Admin) --> (Dashboard)
(Admin) --> (Inventory)
(Admin) --> (PointOfSale)
(Admin) --> (Recent)
(Admin) --> (Suppliers)
(Admin) --> (SysInfo)
(Admin) --> (Transactions)
(Admin) --> (Users)
(auth.route) --> (auth.controller)
(Cashier) --> (PointOfSale)
(Development) ----> (Commits)
(Inventory) ---> (ProductInventory)
(Inventory) ---> (ProductsCard)
(InventoryClerk) --> (Inventory)
(InventoryClerk) --> (Recent)
(InventoryClerk) --> (Suppliers)
(InventoryClerk) --> (Transactions)
(<b>Login</b>) -[thickness=1]> (Admin)
(<b>Login</b>) -[thickness=1]> (Cashier)
(<b>Login</b>) -[thickness=1]> (InventoryClerk)
(<b>Login</b>) -[thickness=1]> (Status)
(<b>Login</b>) -[thickness=1]> (SysAdmin)
(PointOfSale) ---> (PosControls)
(PointOfSale) ---> (ProductCatalog)
(PosControls) ..> _PosModals
(product.route) --> (product.controller)
(ProductCatalog) ---> (ProductService)
(ProductInventory) ..> _ProductModals
(ProductInventory) ---> (ProductService)
(ProductsCard) ..> _ProductModals
(ProductsCard) ---> (ProductService)
(Recent) ---> (RecentProducts)
(Recent) ---> (RecentSuppliers)
(Recent) ---> (RecentTransactions)
(Recent) ---> (RecentUsers)
(RecentProducts) ..> _ProductModals
(RecentProducts) ---> (ProductService)
(RecentSuppliers) ..> _SupplierModals
(RecentSuppliers) ---> (SupplierService)
(RecentTransactions) ..> _TransactionModals
(RecentTransactions) ---> (TransactionService)
(RecentUsers) ..> _UserModals
(RecentUsers) ---> (UserService)
(Release) ----> (Releases)
(<b>server</b>) -[thickness=1]> (auth.route)
(<b>server</b>) -[thickness=1]> (product.model)
(<b>server</b>) -[thickness=1]> (product.route)
(<b>server</b>) -[thickness=1]> (supplier.model)
(<b>server</b>) -[thickness=1]> (supplier.route)
(<b>server</b>) -[thickness=1]> (transaction.model)
(<b>server</b>) -[thickness=1]> (transaction.route)
(<b>server</b>) -[thickness=1]> (user.model)
(<b>server</b>) -[thickness=1]> (user.route)
(Status) --> (ApiService)
(supplier.route) --> (supplier.controller)
(Suppliers) ---> (SuppliersCard)
(Suppliers) ---> (SuppliersList)
(SuppliersCard) ..> _SupplierModals
(SuppliersCard) ---> (SupplierService)
(SuppliersList) ..> _SupplierModals
(SuppliersList) ---> (SupplierService)
(SysAdmin) --> (Dashboard)
(SysAdmin) --> (SysInfo)
(SysAdmin) --> (Users)
(SysInfo) ---> (Development)
(SysInfo) ---> (Release)
(transaction.route) --> (transaction.controller)
(Transactions) ---> (TransactionsCard)
(Transactions) ---> (TransactionsList)
(TransactionsCard) ..> _TransactionModals
(TransactionsCard) ---> (TransactionService)
(TransactionsList) ..> _TransactionModals
(TransactionsList) ---> (TransactionService)
(user.route) --> (user.controller)
(Users) ---> (UsersCard)
(Users) ---> (UsersList)
(UsersCard) ..> _UserModals
(UsersCard) ---> (UserService)
(UsersList) ..> _UserModals
(UsersList) ---> (UserService)

@enduml


' View and edit on https://arkit.pro
]]></script></g></svg>