<svg xmlns="http://www.w3.org/2000/svg" xmlns:xlink="http://www.w3.org/1999/xlink" width="924" height="219" contentScriptType="application/ecmascript" contentStyleType="text/css" style="width:924px;height:219px" preserveAspectRatio="none" version="1.1" viewBox="0 0 924 219" zoomAndPan="magnify"><g><path fill="#FFF" d="M370,25 L392,25 A4.5,4.5 0 0 1 395,28 L402,45.4844 L885,45.4844 A3,3 0 0 1 888,48.4844 L888,100 A3,3 0 0 1 885,103 L370,103 A3,3 0 0 1 367,100 L367,28 A3,3 0 0 1 370,25" style="stroke:#000;stroke-width:1.5"/><line style="stroke:#000;stroke-width:1.5" x1="367" x2="402" y1="45.484" y2="45.484"/><text x="371" y="39.006" fill="#000" font-family="Tahoma, sans-serif" font-size="12" font-weight="bold" lengthAdjust="spacingAndGlyphs" textLength="22">API</text><path fill="#FFF" d="M25,24.5 L131,24.5 A4.5,4.5 0 0 1 134,27.5 L141,44.9844 L318,44.9844 A3,3 0 0 1 321,47.9844 L321,202 A3,3 0 0 1 318,205 L25,205 A3,3 0 0 1 22,202 L22,27.5 A3,3 0 0 1 25,24.5" style="stroke:#000;stroke-width:1.5"/><line style="stroke:#000;stroke-width:1.5" x1="22" x2="141" y1="44.984" y2="44.984"/><text x="26" y="38.506" fill="#000" font-family="Tahoma, sans-serif" font-size="12" font-weight="bold" lengthAdjust="spacingAndGlyphs" textLength="106">Schema/Models</text><path fill="#FFF" d="M348,127 L413,127 A4.5,4.5 0 0 1 416,130 L423,147.4844 L909,147.4844 A3,3 0 0 1 912,150.4844 L912,204 A3,3 0 0 1 909,207 L348,207 A3,3 0 0 1 345,204 L345,130 A3,3 0 0 1 348,127" style="stroke:#000;stroke-width:1.5"/><line style="stroke:#000;stroke-width:1.5" x1="345" x2="423" y1="147.484" y2="147.484"/><text x="349" y="141.006" fill="#000" font-family="Tahoma, sans-serif" font-size="12" font-weight="bold" lengthAdjust="spacingAndGlyphs" textLength="65">Functions</text><ellipse cx="821.083" cy="72.742" fill="#F8F8F8" rx="51.083" ry="13.242" style="stroke:#383838;stroke-width:.5"/><text x="787.083" y="76.484" fill="#000" font-family="Tahoma, sans-serif" font-size="12" font-weight="bold" lengthAdjust="spacingAndGlyphs" textLength="68">auth.route</text><ellipse cx="695.76" cy="72.552" fill="#F8F8F8" rx="60.76" ry="14.552" style="stroke:#383838;stroke-width:.5"/><text x="650.76" y="76.294" fill="#000" font-family="Tahoma, sans-serif" font-size="12" font-weight="bold" lengthAdjust="spacingAndGlyphs" textLength="90">product.route</text><ellipse cx="560.043" cy="72.709" fill="#F8F8F8" rx="61.543" ry="14.709" style="stroke:#383838;stroke-width:.5"/><text x="514.043" y="76.451" fill="#000" font-family="Tahoma, sans-serif" font-size="12" font-weight="bold" lengthAdjust="spacingAndGlyphs" textLength="92">supplier.route</text><ellipse cx="434.083" cy="72.742" fill="#F8F8F8" rx="51.083" ry="13.242" style="stroke:#383838;stroke-width:.5"/><text x="400.083" y="76.484" fill="#000" font-family="Tahoma, sans-serif" font-size="12" font-weight="bold" lengthAdjust="spacingAndGlyphs" textLength="68">user.route</text><ellipse cx="101.127" cy="72.525" fill="#F8F8F8" rx="63.127" ry="15.025" style="stroke:#383838;stroke-width:.5"/><text x="53.127" y="76.267" fill="#000" font-family="Tahoma, sans-serif" font-size="12" font-weight="bold" lengthAdjust="spacingAndGlyphs" textLength="96">product.model</text><ellipse cx="240.928" cy="72.686" fill="#F8F8F8" rx="63.928" ry="15.186" style="stroke:#383838;stroke-width:.5"/><text x="191.928" y="76.428" fill="#000" font-family="Tahoma, sans-serif" font-size="12" font-weight="bold" lengthAdjust="spacingAndGlyphs" textLength="98">supplier.model</text><ellipse cx="100.771" cy="175.354" fill="#F8F8F8" rx="54.771" ry="13.354" style="stroke:#383838;stroke-width:.5"/><text x="63.771" y="179.096" fill="#000" font-family="Tahoma, sans-serif" font-size="12" font-weight="bold" lengthAdjust="spacingAndGlyphs" textLength="74">user.model</text><ellipse cx="838.077" cy="175.515" fill="#F8F8F8" rx="58.077" ry="14.015" style="stroke:#383838;stroke-width:.5"/><text x="796.577" y="179.258" fill="#000" font-family="Tahoma, sans-serif" font-size="12" lengthAdjust="spacingAndGlyphs" textLength="83">auth.controller</text><ellipse cx="701.048" cy="175.51" fill="#F8F8F8" rx="65.548" ry="15.51" style="stroke:#383838;stroke-width:.5"/><text x="650.048" y="179.252" fill="#000" font-family="Tahoma, sans-serif" font-size="12" lengthAdjust="spacingAndGlyphs" textLength="102">product.controller</text><ellipse cx="555.956" cy="175.591" fill="#F8F8F8" rx="65.956" ry="15.591" style="stroke:#383838;stroke-width:.5"/><text x="504.456" y="179.333" fill="#000" font-family="Tahoma, sans-serif" font-size="12" lengthAdjust="spacingAndGlyphs" textLength="103">supplier.controller</text><ellipse cx="419.077" cy="175.515" fill="#F8F8F8" rx="58.077" ry="14.015" style="stroke:#383838;stroke-width:.5"/><text x="377.577" y="179.258" fill="#000" font-family="Tahoma, sans-serif" font-size="12" lengthAdjust="spacingAndGlyphs" textLength="83">user.controller</text><path id="&lt;b&gt;auth.route&lt;/b&gt;-&gt;auth.controller" fill="none" d="M823.085,85.885 C826.047,103.486 831.495,135.8554 834.923,156.2207" style="stroke:#000;stroke-width:1"/><polygon fill="#000" points="835.791 161.374 838.241 151.834 834.961 156.443 830.352 153.163 835.791 161.374" style="stroke:#000;stroke-width:1"/><path id="&lt;b&gt;product.route&lt;/b&gt;-&gt;product.controller" fill="none" d="M696.674,87.121 C697.536,104.52 699.033,134.7601 700.02,154.7034" style="stroke:#000;stroke-width:1"/><polygon fill="#000" points="700.272 159.787 703.822 150.6 700.025 154.793 695.832 150.995 700.272 159.787" style="stroke:#000;stroke-width:1"/><path id="&lt;b&gt;supplier.route&lt;/b&gt;-&gt;supplier.controller" fill="none" d="M559.461,87.121 C558.771,104.52 557.574,134.7601 556.784,154.7034" style="stroke:#000;stroke-width:1"/><polygon fill="#000" points="556.583 159.787 560.936 150.952 556.781 154.791 552.942 150.636 556.583 159.787" style="stroke:#000;stroke-width:1"/><path id="&lt;b&gt;user.route&lt;/b&gt;-&gt;user.controller" fill="none" d="M432.161,85.885 C429.547,103.486 424.739,135.8554 421.715,156.2207" style="stroke:#000;stroke-width:1"/><polygon fill="#000" points="420.949 161.374 426.228 153.059 421.684 156.428 418.315 151.884 420.949 161.374" style="stroke:#000;stroke-width:1"/><script type="text/plantuml"><![CDATA[MD5=[3baa31eceba4f2297d5df1bcaa89d354]
@startuml

scale max 1920 width
top to bottom direction

skinparam nodesep 13
skinparam ranksep 26
skinparam monochrome true
skinparam shadowing false
skinparam defaultFontName Tahoma
skinparam defaultFontSize 12
skinparam roundCorner 6
skinparam dpi 150
skinparam arrowColor black
skinparam arrowThickness 0.5
skinparam packageTitleAlignment left

skinparam usecase {
  borderThickness 0.5
}

skinparam rectangle {
  borderThickness 0.5
}

skinparam component {
  borderThickness 1
}







package "API" {
  (<b>auth.route</b>)
  (<b>product.route</b>)
  (<b>supplier.route</b>)
  (<b>user.route</b>)
}

package "Schema/Models" {
  (<b>product.model</b>)
  (<b>supplier.model</b>)
  (<b>user.model</b>)
}

package "Functions" {
  (auth.controller)
  (product.controller)
  (supplier.controller)
  (user.controller)
}

(<b>auth.route</b>) --[thickness=1]> (auth.controller)
(<b>product.route</b>) --[thickness=1]> (product.controller)
(<b>supplier.route</b>) --[thickness=1]> (supplier.controller)
(<b>user.route</b>) --[thickness=1]> (user.controller)

@enduml


' View and edit on https://arkit.pro
]]></script></g></svg>