<?xml version="1.0" encoding="UTF-8" standalone="no"?><svg xmlns="http://www.w3.org/2000/svg" xmlns:xlink="http://www.w3.org/1999/xlink" contentScriptType="application/ecmascript" contentStyleType="text/css" height="219px" preserveAspectRatio="none" style="width:924px;height:219px;" version="1.1" viewBox="0 0 924 219" width="924px" zoomAndPan="magnify"><defs/><g><!--MD5=[fac864e77539af95038f0151207ed802]
cluster API--><path d="M370,25 L392,25 A4.5,4.5 0 0 1 395,28 L402,45.4844 L885,45.4844 A3,3 0 0 1 888,48.4844 L888,100 A3,3 0 0 1 885,103 L370,103 A3,3 0 0 1 367,100 L367,28 A3,3 0 0 1 370,25 " fill="#FFFFFF" style="stroke: #000000; stroke-width: 1.5;"/><line style="stroke: #000000; stroke-width: 1.5;" x1="367" x2="402" y1="45.4844" y2="45.4844"/><text fill="#000000" font-family="Tahoma, sans-serif" font-size="12" font-weight="bold" lengthAdjust="spacingAndGlyphs" textLength="22" x="371" y="39.0059">API</text><!--MD5=[68c85c6266d31e0dde731f72a616c078]
cluster Schema/Models--><path d="M25,24.5 L131,24.5 A4.5,4.5 0 0 1 134,27.5 L141,44.9844 L318,44.9844 A3,3 0 0 1 321,47.9844 L321,202 A3,3 0 0 1 318,205 L25,205 A3,3 0 0 1 22,202 L22,27.5 A3,3 0 0 1 25,24.5 " fill="#FFFFFF" style="stroke: #000000; stroke-width: 1.5;"/><line style="stroke: #000000; stroke-width: 1.5;" x1="22" x2="141" y1="44.9844" y2="44.9844"/><text fill="#000000" font-family="Tahoma, sans-serif" font-size="12" font-weight="bold" lengthAdjust="spacingAndGlyphs" textLength="106" x="26" y="38.5059">Schema/Models</text><!--MD5=[7c6608d7cf625e90131334e1ca091b1a]
cluster Functions--><path d="M348,127 L413,127 A4.5,4.5 0 0 1 416,130 L423,147.4844 L909,147.4844 A3,3 0 0 1 912,150.4844 L912,204 A3,3 0 0 1 909,207 L348,207 A3,3 0 0 1 345,204 L345,130 A3,3 0 0 1 348,127 " fill="#FFFFFF" style="stroke: #000000; stroke-width: 1.5;"/><line style="stroke: #000000; stroke-width: 1.5;" x1="345" x2="423" y1="147.4844" y2="147.4844"/><text fill="#000000" font-family="Tahoma, sans-serif" font-size="12" font-weight="bold" lengthAdjust="spacingAndGlyphs" textLength="65" x="349" y="141.0059">Functions</text><ellipse cx="821.0833" cy="72.742" fill="#F8F8F8" rx="51.0833" ry="13.242" style="stroke: #383838; stroke-width: 0.5;"/><text fill="#000000" font-family="Tahoma, sans-serif" font-size="12" font-weight="bold" lengthAdjust="spacingAndGlyphs" textLength="68" x="787.0833" y="76.4842">auth.route</text><ellipse cx="695.7601" cy="72.552" fill="#F8F8F8" rx="60.7601" ry="14.552" style="stroke: #383838; stroke-width: 0.5;"/><text fill="#000000" font-family="Tahoma, sans-serif" font-size="12" font-weight="bold" lengthAdjust="spacingAndGlyphs" textLength="90" x="650.7601" y="76.2942">product.route</text><ellipse cx="560.0426" cy="72.7085" fill="#F8F8F8" rx="61.5426" ry="14.7085" style="stroke: #383838; stroke-width: 0.5;"/><text fill="#000000" font-family="Tahoma, sans-serif" font-size="12" font-weight="bold" lengthAdjust="spacingAndGlyphs" textLength="92" x="514.0426" y="76.4507">supplier.route</text><ellipse cx="434.0833" cy="72.742" fill="#F8F8F8" rx="51.0833" ry="13.242" style="stroke: #383838; stroke-width: 0.5;"/><text fill="#000000" font-family="Tahoma, sans-serif" font-size="12" font-weight="bold" lengthAdjust="spacingAndGlyphs" textLength="68" x="400.0833" y="76.4842">user.route</text><ellipse cx="101.1268" cy="72.5254" fill="#F8F8F8" rx="63.1268" ry="15.0254" style="stroke: #383838; stroke-width: 0.5;"/><text fill="#000000" font-family="Tahoma, sans-serif" font-size="12" font-weight="bold" lengthAdjust="spacingAndGlyphs" textLength="96" x="53.1268" y="76.2675">product.model</text><ellipse cx="240.9281" cy="72.6856" fill="#F8F8F8" rx="63.9281" ry="15.1856" style="stroke: #383838; stroke-width: 0.5;"/><text fill="#000000" font-family="Tahoma, sans-serif" font-size="12" font-weight="bold" lengthAdjust="spacingAndGlyphs" textLength="98" x="191.9281" y="76.4278">supplier.model</text><ellipse cx="100.771" cy="175.3542" fill="#F8F8F8" rx="54.771" ry="13.3542" style="stroke: #383838; stroke-width: 0.5;"/><text fill="#000000" font-family="Tahoma, sans-serif" font-size="12" font-weight="bold" lengthAdjust="spacingAndGlyphs" textLength="74" x="63.771" y="179.0964">user.model</text><ellipse cx="838.0771" cy="175.5154" fill="#F8F8F8" rx="58.0771" ry="14.0154" style="stroke: #383838; stroke-width: 0.5;"/><text fill="#000000" font-family="Tahoma, sans-serif" font-size="12" lengthAdjust="spacingAndGlyphs" textLength="83" x="796.5771" y="179.2576">auth.controller</text><ellipse cx="701.0478" cy="175.5096" fill="#F8F8F8" rx="65.5478" ry="15.5096" style="stroke: #383838; stroke-width: 0.5;"/><text fill="#000000" font-family="Tahoma, sans-serif" font-size="12" lengthAdjust="spacingAndGlyphs" textLength="102" x="650.0478" y="179.2518">product.controller</text><ellipse cx="555.9562" cy="175.5912" fill="#F8F8F8" rx="65.9562" ry="15.5912" style="stroke: #383838; stroke-width: 0.5;"/><text fill="#000000" font-family="Tahoma, sans-serif" font-size="12" lengthAdjust="spacingAndGlyphs" textLength="103" x="504.4562" y="179.3334">supplier.controller</text><ellipse cx="419.0771" cy="175.5154" fill="#F8F8F8" rx="58.0771" ry="14.0154" style="stroke: #383838; stroke-width: 0.5;"/><text fill="#000000" font-family="Tahoma, sans-serif" font-size="12" lengthAdjust="spacingAndGlyphs" textLength="83" x="377.5771" y="179.2576">user.controller</text><!--MD5=[314e8977a4195c4f8fc19e4ced3b50b0]
link <b>auth.route</b> to auth.controller--><path d="M823.085,85.885 C826.047,103.486 831.495,135.8554 834.923,156.2207 " fill="none" id="&lt;b&gt;auth.route&lt;/b&gt;-&gt;auth.controller" style="stroke: #000000; stroke-width: 1.0;"/><polygon fill="#000000" points="835.791,161.3737,838.2413,151.8345,834.9609,156.4431,830.3523,153.1627,835.791,161.3737" style="stroke: #000000; stroke-width: 1.0;"/><!--MD5=[7924bdf5d91fc77f555a6f4b5c35af41]
link <b>product.route</b> to product.controller--><path d="M696.674,87.121 C697.536,104.52 699.033,134.7601 700.02,154.7034 " fill="none" id="&lt;b&gt;product.route&lt;/b&gt;-&gt;product.controller" style="stroke: #000000; stroke-width: 1.0;"/><polygon fill="#000000" points="700.272,159.7867,703.822,150.5999,700.0247,154.7928,695.8318,150.9955,700.272,159.7867" style="stroke: #000000; stroke-width: 1.0;"/><!--MD5=[be66ce7fef17987e68c424e7d659d555]
link <b>supplier.route</b> to supplier.controller--><path d="M559.461,87.121 C558.771,104.52 557.574,134.7601 556.784,154.7034 " fill="none" id="&lt;b&gt;supplier.route&lt;/b&gt;-&gt;supplier.controller" style="stroke: #000000; stroke-width: 1.0;"/><polygon fill="#000000" points="556.583,159.7867,560.936,150.952,556.7809,154.7906,552.9423,150.6355,556.583,159.7867" style="stroke: #000000; stroke-width: 1.0;"/><!--MD5=[59ba8300c8f0fd06cce1319e0d91ddd0]
link <b>user.route</b> to user.controller--><path d="M432.161,85.885 C429.547,103.486 424.739,135.8554 421.715,156.2207 " fill="none" id="&lt;b&gt;user.route&lt;/b&gt;-&gt;user.controller" style="stroke: #000000; stroke-width: 1.0;"/><polygon fill="#000000" points="420.949,161.3737,426.2281,153.0592,421.6837,156.428,418.3149,151.8836,420.949,161.3737" style="stroke: #000000; stroke-width: 1.0;"/><!--MD5=[409baabade1c7341fafa0c1f90a4f8c6]
link <b>product.model</b> to <b>supplier.model</b>--><!--MD5=[49b076a052d78110e8620b1ad64be62c]
link <b>product.model</b> to <b>user.model</b>--><script type="text/plantuml"><![CDATA[MD5=[3baa31eceba4f2297d5df1bcaa89d354]
@startuml

scale max 1920 width
top to bottom direction

skinparam nodesep 13
skinparam ranksep 26
skinparam monochrome true
skinparam shadowing false
skinparam defaultFontName Tahoma
skinparam defaultFontSize 12
skinparam roundCorner 6
skinparam dpi 150
skinparam arrowColor black
skinparam arrowThickness 0.5
skinparam packageTitleAlignment left

skinparam usecase {
  borderThickness 0.5
}

skinparam rectangle {
  borderThickness 0.5
}

skinparam component {
  borderThickness 1
}







package "API" {
  (<b>auth.route</b>)
  (<b>product.route</b>)
  (<b>supplier.route</b>)
  (<b>user.route</b>)
}

package "Schema/Models" {
  (<b>product.model</b>)
  (<b>supplier.model</b>)
  (<b>user.model</b>)
}

package "Functions" {
  (auth.controller)
  (product.controller)
  (supplier.controller)
  (user.controller)
}

(<b>auth.route</b>) --[thickness=1]> (auth.controller)
(<b>product.route</b>) --[thickness=1]> (product.controller)
(<b>supplier.route</b>) --[thickness=1]> (supplier.controller)
(<b>user.route</b>) --[thickness=1]> (user.controller)

@enduml


' View and edit on https://arkit.pro
]]></script></g></svg>